<svg width="333" height="218" viewBox="0 0 333 218" fill="none" xmlns="http://www.w3.org/2000/svg">
<rect y="217" width="50" height="68" transform="rotate(-90 0 217)" fill="#F0F8FA"/>
<rect x="214" y="195.16" width="136.845" height="118.074" transform="rotate(-90 214 195.16)" fill="#F0F8FA"/>
<rect x="68.2559" y="112.054" width="111.878" height="65.1767" transform="rotate(-90 68.2559 112.054)" fill="#F0F8FA"/>
<rect x="0.00392261" y="1.09256" width="44.5594" height="44.5594" transform="matrix(0.707107 0.707107 -0.702011 0.712166 164.856 94.9595)" stroke="#005174" stroke-width="1.53961"/>
<rect x="0.00261507" y="0.728373" width="6.25605" height="6.25605" transform="matrix(0.707107 0.707107 -0.702011 0.712166 69.6137 179.516)" fill="#005174" stroke="#005174" stroke-width="1.0264" stroke-dasharray="2.05 2.05"/>
<rect x="0.00261507" y="0.728373" width="6.25605" height="6.25605" transform="matrix(0.707107 0.707107 -0.702011 0.712166 282.24 101.926)" fill="#005174" stroke="#005174" stroke-width="1.0264" stroke-dasharray="2.05 2.05"/>
<circle cx="150.207" cy="99.3844" r="2.59808" transform="rotate(180 150.207 99.3844)" stroke="#005174" stroke-width="1.53961"/>
<circle cx="3.36789" cy="3.36789" r="2.59808" transform="matrix(-1 8.74228e-08 8.74228e-08 1 153.575 154.618)" stroke="#005174" stroke-width="1.53961"/>
<circle cx="178.498" cy="157.986" r="2.59808" stroke="#005174" stroke-width="1.53961"/>
<circle cx="3.36789" cy="3.36789" r="2.59808" transform="matrix(1 -8.74228e-08 -8.74228e-08 -1 188.265 115.55)" stroke="#005174" stroke-width="1.53961"/>
<circle cx="3.36789" cy="3.36789" r="2.59808" transform="matrix(1 -8.74228e-08 -8.74228e-08 -1 175.467 102.752)" stroke="#005174" stroke-width="1.53961"/>
<circle cx="191.633" cy="144.514" r="2.59808" stroke="#005174" stroke-width="1.53961"/>
<circle cx="136.062" cy="112.182" r="2.59808" transform="rotate(180 136.062 112.182)" stroke="#005174" stroke-width="1.53961"/>
<circle cx="3.36789" cy="3.36789" r="2.59808" transform="matrix(1 -8.74228e-08 -8.74228e-08 -1 199.379 130.369)" stroke="#005174" stroke-width="1.53961"/>
<circle cx="125.285" cy="127.001" r="2.59808" transform="rotate(180 125.285 127.001)" stroke="#005174" stroke-width="1.53961"/>
<circle cx="136.736" cy="144.514" r="2.59808" transform="rotate(180 136.736 144.514)" stroke="#005174" stroke-width="1.53961"/>
<circle cx="66.6839" cy="48.1924" r="3.36789" transform="rotate(180 66.6839 48.1924)" fill="#005174"/>
<circle cx="6.06278" cy="82.5448" r="3.36789" transform="rotate(180 6.06278 82.5448)" fill="#005174"/>
<circle cx="3.36746" cy="163.374" r="3.36789" transform="rotate(180 3.36746 163.374)" fill="#005174"/>
<circle cx="287.681" cy="86.6184" r="3.36789" transform="rotate(180 287.681 86.6184)" fill="#005174"/>
<rect x="0.77533" y="0.769783" width="15.7608" height="15.7608" transform="matrix(1 -1.74846e-07 0.00718035 0.999974 245.305 45.4862)" stroke="#005174" stroke-width="1.53961"/>
<circle cx="253.979" cy="54.0297" r="3.36789" transform="rotate(180 253.979 54.0297)" fill="#005174"/>
<circle cx="253.265" cy="213.892" r="3.36789" transform="rotate(180 253.265 213.892)" fill="#005174"/>
<circle cx="326.011" cy="135.757" r="3.36789" transform="rotate(180 326.011 135.757)" fill="#005174"/>
<path d="M146.84 99.3843L122.463 99.3843C121.046 99.3843 119.897 98.2354 119.897 96.8183L119.897 50.7584C119.897 49.3412 118.748 48.1924 117.331 48.1924L70.052 48.1924" stroke="#005174" stroke-width="1.53961" stroke-dasharray="1.9 1.9"/>
<path d="M146.84 157.986L114.043 157.986C112.626 157.986 111.477 159.134 111.477 160.552L111.477 203.917C111.477 205.334 110.328 206.483 108.911 206.483L71.9444 206.483C70.5273 206.483 69.3784 205.334 69.3784 203.917L69.3784 187.286" stroke="#005174" stroke-width="1.53961" stroke-dasharray="1.9 1.9"/>
<path d="M181.866 157.986L225.103 157.986C226.521 157.986 227.669 159.134 227.669 160.552L227.669 178.995C227.669 180.412 228.818 181.561 230.235 181.561L250.699 181.561C252.117 181.561 253.265 182.71 253.265 184.127L253.265 211.535" stroke="#005174" stroke-width="1.53961"/>
<path d="M195 112.182L243.257 112.182C244.674 112.182 245.823 111.033 245.823 109.616L245.823 89.2164C245.823 87.7992 246.972 86.6504 248.389 86.6504L277.385 86.6504L286.366 86.6504" stroke="#005174" stroke-width="1.53961" stroke-dasharray="2.05 2.05"/>
<path d="M182.203 99.3843L194.119 99.3843C195.536 99.3843 196.685 98.2354 196.685 96.8183L196.685 78.4392C196.685 77.0221 197.834 75.8732 199.251 75.8732L226.579 75.8732C227.996 75.8732 229.145 74.7244 229.145 73.3072L229.145 56.8847C229.145 55.4676 230.294 54.3187 231.711 54.3187L246.337 54.3187" stroke="#005174" stroke-width="1.53961" stroke-dasharray="2.05 2.05"/>
<path d="M195 144.514L241.605 144.514C243.022 144.514 244.171 145.663 244.171 147.08L244.171 157.777C244.171 159.194 245.32 160.343 246.737 160.343L279.999 160.343C281.416 160.343 282.565 159.194 282.565 157.777L282.565 138.155C282.565 136.738 283.714 135.589 285.131 135.589L323.653 135.589" stroke="#005174" stroke-width="1.53961" stroke-dasharray="2.05 2.05"/>
<path d="M132.695 112.182L88.7845 112.182C87.3673 112.182 86.2185 111.033 86.2185 109.616L86.2185 85.4476C86.2185 84.0305 85.0696 82.8816 83.6525 82.8816L9.43063 82.8816" stroke="#005174" stroke-width="1.53961" stroke-dasharray="1.03 1.03"/>
<path d="M206.114 127.001L226.113 127.001C227.53 127.001 228.679 128.15 228.679 129.567L228.679 132.518C228.679 133.935 229.828 135.084 231.245 135.084L260.129 135.084C261.546 135.084 262.695 133.935 262.695 132.518L262.695 122.286C262.695 120.984 263.75 119.928 265.052 119.928V119.928L279.438 119.928C280.855 119.928 282.004 118.78 282.004 117.362L282.004 109.745" stroke="#005174" stroke-width="1.53961" stroke-dasharray="1.03 1.03"/>
<path d="M121.918 127.001L67.0214 127.001L47.6961 127.001C46.279 127.001 45.1301 125.852 45.1301 124.435L45.1301 115.887" stroke="#005174" stroke-width="1.53961" stroke-dasharray="1.9 1.9"/>
<path d="M133.368 144.514L91.1413 144.514C89.7241 144.514 88.5753 143.365 88.5753 141.948L88.5753 138.323C88.5753 136.906 87.4264 135.757 86.0092 135.757L34.224 135.757C32.8068 135.757 31.658 136.906 31.658 138.323L31.658 161.145C31.658 162.562 30.5091 163.711 29.0919 163.711L3.70449 163.711" stroke="#005174" stroke-width="1.53961"/>
<circle cx="45.1295" cy="104.773" r="11.3546" transform="rotate(180 45.1295 104.773)" stroke="#005174" stroke-width="1.53961" stroke-dasharray="2.05 2.05"/>
<circle cx="45.1297" cy="104.773" r="4.20184" transform="rotate(180 45.1297 104.773)" fill="#005174" stroke="#005174" stroke-width="1.0264" stroke-dasharray="1.03 1.03"/>
<path fill-rule="evenodd" clip-rule="evenodd" d="M159.667 110.629C158.678 110.896 157.808 111.595 157.366 112.477C157.224 112.762 157.086 113.11 157.059 113.251C157.012 113.504 157.005 113.508 156.626 113.509C154.568 113.515 152.761 115.327 152.761 117.386V117.739L152.368 117.831C150.971 118.158 149.842 119.228 149.347 120.693C149.138 121.312 149.153 122.52 149.378 123.163C149.471 123.431 149.594 123.733 149.65 123.835C149.751 124.016 149.742 124.025 149.217 124.313C147.769 125.107 146.775 126.802 146.775 128.478C146.775 130.153 147.769 131.848 149.217 132.642C149.742 132.93 149.751 132.939 149.65 133.12C149.594 133.222 149.471 133.524 149.378 133.792C149.153 134.435 149.138 135.643 149.347 136.262C149.839 137.72 150.978 138.799 152.368 139.124L152.761 139.216V139.569C152.761 141.635 154.578 143.448 156.649 143.448C157.002 143.448 157.012 143.454 157.059 143.704C157.152 144.201 157.61 144.98 158.06 145.41C160.077 147.334 163.322 146.402 164.027 143.695C164.196 143.047 164.196 113.908 164.027 113.26C163.523 111.326 161.535 110.126 159.667 110.629ZM168.039 110.632C166.774 110.972 165.782 111.979 165.448 113.26C165.279 113.908 165.279 143.047 165.448 143.695C165.95 145.624 167.909 146.816 169.776 146.33C170.412 146.164 170.928 145.875 171.415 145.41C171.865 144.98 172.323 144.201 172.416 143.704C172.463 143.452 172.47 143.448 172.849 143.446C174.907 143.44 176.714 141.628 176.714 139.569V139.216L177.107 139.124C178.497 138.799 179.636 137.72 180.128 136.262C180.337 135.643 180.322 134.435 180.097 133.792C180.004 133.524 179.881 133.222 179.825 133.12C179.724 132.939 179.733 132.93 180.258 132.642C181.703 131.85 182.7 130.15 182.7 128.478C182.7 126.802 181.705 125.107 180.258 124.313C179.733 124.025 179.724 124.016 179.825 123.835C179.881 123.733 180.004 123.431 180.097 123.163C180.322 122.52 180.337 121.312 180.128 120.693C179.636 119.235 178.497 118.156 177.107 117.831L176.714 117.739V117.386C176.714 115.327 174.907 113.515 172.849 113.509C172.47 113.508 172.463 113.504 172.416 113.251C172.389 113.11 172.251 112.762 172.109 112.477C171.375 111.01 169.61 110.21 168.039 110.632ZM161.576 111.964C162.123 112.241 162.363 112.473 162.648 112.999L162.904 113.47L162.925 117.381L162.947 121.292H161.447H159.947V120.328V119.364L160.174 119.27C160.677 119.062 161.145 118.305 161.145 117.699C161.145 116.772 160.276 115.903 159.348 115.903C158.421 115.903 157.552 116.772 157.552 117.699C157.552 118.305 158.019 119.062 158.522 119.27L158.749 119.364V120.328V121.292H157.186H155.624L155.53 121.065C155.321 120.562 154.565 120.094 153.959 120.094C153.031 120.094 152.162 120.963 152.162 121.891C152.162 122.818 153.031 123.687 153.959 123.687C154.565 123.687 155.321 123.22 155.53 122.717L155.624 122.49H159.282H162.941V123.987V125.484H158.634H154.326L154.142 125.667L153.959 125.851V127.829V129.807L153.732 129.901C153.228 130.109 152.761 130.866 152.761 131.472C152.761 132.399 153.63 133.268 154.557 133.268C155.485 133.268 156.354 132.399 156.354 131.472C156.354 130.866 155.887 130.109 155.383 129.901L155.156 129.807V128.244V126.681H159.049H162.941V128.178V129.675H160.43H157.919L157.735 129.859L157.552 130.043V132.32V134.597L157.324 134.691C156.821 134.9 156.354 135.656 156.354 136.262C156.354 136.868 156.821 137.624 157.324 137.833L157.552 137.927V139.006C157.552 140.053 157.557 140.092 157.735 140.27L157.919 140.454H160.437H162.954L162.928 141.969C162.902 143.443 162.895 143.496 162.701 143.867C162.404 144.433 162.178 144.667 161.654 144.949C161.223 145.182 161.127 145.204 160.546 145.204C159.964 145.204 159.869 145.182 159.436 144.948C158.691 144.546 158.245 143.884 158.176 143.078C158.121 142.42 158.088 142.335 157.843 142.208C157.646 142.107 157.555 142.102 157.236 142.179C156.401 142.379 155.382 142.075 154.759 141.44C154.128 140.797 153.826 139.785 154.028 138.986C154.132 138.573 154.046 138.275 153.785 138.149C153.695 138.106 153.389 138.051 153.105 138.029C152.061 137.945 151.165 137.325 150.685 136.355C150.418 135.814 150.403 135.744 150.403 135.068C150.403 134.422 150.426 134.307 150.636 133.867C150.765 133.599 150.975 133.249 151.104 133.089C151.527 132.565 151.376 132.157 150.686 131.957C149.37 131.574 148.418 130.615 148.085 129.335C147.599 127.47 148.744 125.558 150.683 124.999C151.376 124.799 151.528 124.391 151.104 123.866C150.975 123.706 150.765 123.356 150.636 123.088C150.426 122.649 150.403 122.533 150.403 121.891C150.403 121.251 150.426 121.131 150.635 120.69C150.911 120.107 151.221 119.738 151.695 119.424C152.122 119.141 152.882 118.898 153.349 118.894C153.945 118.89 154.174 118.584 154.03 117.984C153.829 117.148 154.133 116.129 154.769 115.505C155.416 114.87 156.407 114.577 157.236 114.776C157.555 114.853 157.646 114.849 157.843 114.747C158.087 114.621 158.116 114.546 158.184 113.86C158.284 112.859 158.994 112.036 159.984 111.776C160.392 111.669 161.176 111.762 161.576 111.964ZM170.058 112.02C170.783 112.406 171.231 113.077 171.299 113.877C171.354 114.535 171.387 114.62 171.632 114.747C171.829 114.849 171.919 114.853 172.239 114.776C173.068 114.577 174.059 114.87 174.706 115.505C175.337 116.125 175.65 117.164 175.447 117.969C175.343 118.382 175.429 118.68 175.69 118.806C175.78 118.85 176.086 118.904 176.37 118.927C177.423 119.011 178.307 119.624 178.792 120.606C179.056 121.14 179.072 121.212 179.072 121.887C179.072 122.533 179.049 122.649 178.839 123.088C178.71 123.356 178.5 123.706 178.371 123.866C177.947 124.391 178.099 124.799 178.792 124.999C179.456 125.19 180.038 125.535 180.482 126.002C182.392 128.003 181.491 131.171 178.789 131.957C178.099 132.157 177.948 132.565 178.371 133.089C178.5 133.249 178.71 133.599 178.839 133.867C179.049 134.306 179.072 134.423 179.072 135.064C179.072 135.709 179.049 135.823 178.833 136.28C178.328 137.346 177.255 138.049 176.115 138.06C175.529 138.066 175.302 138.375 175.445 138.972C175.644 139.802 175.352 140.792 174.716 141.44C174.092 142.075 173.074 142.379 172.239 142.179C171.919 142.102 171.829 142.107 171.632 142.208C171.388 142.335 171.359 142.409 171.291 143.097C171.21 143.906 170.773 144.553 170.037 144.949C169.606 145.182 169.51 145.204 168.929 145.204C168.348 145.204 168.252 145.182 167.821 144.949C167.298 144.667 167.072 144.434 166.773 143.867L166.571 143.485L166.551 137.179L166.53 130.873H167.73H168.929V134.232V137.591L168.702 137.685C168.199 137.894 167.732 138.65 167.732 139.256C167.732 140.183 168.601 141.052 169.528 141.052C170.456 141.052 171.325 140.183 171.325 139.256C171.325 138.65 170.857 137.894 170.354 137.685L170.127 137.591V134.232V130.873H172.522H174.917V132.136V133.399L174.69 133.494C174.187 133.702 173.72 134.458 173.72 135.064C173.72 135.992 174.589 136.861 175.516 136.861C176.444 136.861 177.313 135.992 177.313 135.064C177.313 134.458 176.845 133.702 176.342 133.494L176.115 133.399V131.721V130.043L175.931 129.859L175.748 129.675H171.141H166.534V128.178V126.681H170.193H173.851L173.945 126.908C174.154 127.411 174.91 127.879 175.516 127.879C176.444 127.879 177.313 127.01 177.313 126.082C177.313 125.155 176.444 124.286 175.516 124.286C174.91 124.286 174.154 124.753 173.945 125.257L173.851 125.484H170.193H166.534V123.987V122.49H169.344H172.155L172.338 122.306C172.52 122.124 172.522 122.108 172.522 120.743V119.364L172.749 119.27C173.252 119.062 173.72 118.305 173.72 117.699C173.72 116.772 172.851 115.903 171.923 115.903C170.996 115.903 170.127 116.772 170.127 117.699C170.127 118.305 170.594 119.062 171.097 119.27L171.325 119.364V120.328V121.292H168.926H166.528L166.549 117.381L166.571 113.47L166.757 113.096C167.076 112.452 167.68 111.957 168.368 111.776C168.831 111.655 169.573 111.762 170.058 112.02ZM159.763 117.284C160.134 117.655 159.871 118.298 159.348 118.298C159.202 118.298 159.049 118.23 158.933 118.114C158.817 117.999 158.749 117.845 158.749 117.699C158.749 117.553 158.817 117.4 158.933 117.284C159.049 117.168 159.202 117.1 159.348 117.1C159.494 117.1 159.647 117.168 159.763 117.284ZM172.338 117.284C172.71 117.655 172.447 118.298 171.923 118.298C171.616 118.298 171.325 118.007 171.325 117.699C171.325 117.392 171.616 117.1 171.923 117.1C172.069 117.1 172.223 117.168 172.338 117.284ZM154.374 121.476C154.49 121.592 154.557 121.745 154.557 121.891C154.557 122.037 154.49 122.19 154.374 122.306C154.258 122.422 154.104 122.49 153.959 122.49C153.813 122.49 153.659 122.422 153.544 122.306C153.428 122.19 153.36 122.037 153.36 121.891C153.36 121.745 153.428 121.592 153.544 121.476C153.659 121.36 153.813 121.292 153.959 121.292C154.104 121.292 154.258 121.36 154.374 121.476ZM173.72 121.891V122.49H174.319H174.917V121.891V121.292H174.319H173.72V121.891ZM175.931 125.667C176.303 126.039 176.04 126.681 175.516 126.681C175.209 126.681 174.917 126.39 174.917 126.082C174.917 125.775 175.209 125.484 175.516 125.484C175.662 125.484 175.816 125.552 175.931 125.667ZM149.168 128.478V129.076H149.767H150.366V128.478V127.879H149.767H149.168V128.478ZM178.51 128.478V129.076H179.109H179.708V128.478V127.879H179.109H178.51V128.478ZM154.973 131.057C155.344 131.428 155.081 132.07 154.557 132.07C154.25 132.07 153.959 131.779 153.959 131.472C153.959 131.164 154.25 130.873 154.557 130.873C154.703 130.873 154.857 130.941 154.973 131.057ZM162.941 135.064V139.256H160.845H158.749V138.591V137.927L158.976 137.833C159.479 137.624 159.947 136.868 159.947 136.262C159.947 135.656 159.479 134.9 158.976 134.691L158.749 134.597V132.735V130.873H160.845H162.941V135.064ZM175.931 134.649C176.047 134.765 176.115 134.919 176.115 135.064C176.115 135.21 176.047 135.364 175.931 135.479C175.816 135.595 175.662 135.663 175.516 135.663C175.37 135.663 175.217 135.595 175.101 135.479C174.985 135.364 174.917 135.21 174.917 135.064C174.917 134.919 174.985 134.765 175.101 134.649C175.217 134.533 175.37 134.466 175.516 134.466C175.662 134.466 175.816 134.533 175.931 134.649ZM152.761 135.663V136.262H153.36H153.959V135.663V135.064H153.36H152.761V135.663ZM158.565 135.847C158.937 136.218 158.674 136.861 158.15 136.861C157.843 136.861 157.552 136.57 157.552 136.262C157.552 135.954 157.843 135.663 158.15 135.663C158.296 135.663 158.45 135.731 158.565 135.847ZM169.943 138.841C170.059 138.957 170.127 139.11 170.127 139.256C170.127 139.402 170.059 139.555 169.943 139.671C169.827 139.787 169.674 139.855 169.528 139.855C169.382 139.855 169.229 139.787 169.113 139.671C168.997 139.555 168.929 139.402 168.929 139.256C168.929 139.11 168.997 138.957 169.113 138.841C169.229 138.725 169.382 138.657 169.528 138.657C169.674 138.657 169.827 138.725 169.943 138.841Z" fill="#005174"/>
</svg>
