<svg width="479" height="642" viewBox="0 0 479 642" fill="none" xmlns="http://www.w3.org/2000/svg">
<rect width="154" height="134" fill="#F0F8FA"/>
<rect x="29" y="366" width="226" height="196" fill="#F0F8FA"/>
<rect x="261" y="133" width="218" height="128" fill="#F0F8FA"/>
<rect x="-2.12891" y="0.00764322" width="86.8263" height="86.8263" transform="matrix(-0.707107 0.707107 -0.712166 -0.702011 291.288 321.253)" stroke="#005174" stroke-width="3"/>
<rect x="-1.41927" y="0.00509548" width="12.1902" height="12.1902" transform="matrix(-0.707107 0.707107 -0.712166 -0.702011 127.533 135.661)" fill="#005174" stroke="#005174" stroke-width="2" stroke-dasharray="4 4"/>
<rect x="-1.41927" y="0.00509548" width="12.1902" height="12.1902" transform="matrix(-0.707107 0.707107 -0.712166 -0.702011 278.72 549.974)" fill="#005174" stroke="#005174" stroke-width="2" stroke-dasharray="4 4"/>
<circle cx="285.688" cy="292.688" r="5.0625" transform="rotate(-90 285.688 292.688)" stroke="#005174" stroke-width="3"/>
<circle cx="6.5625" cy="6.5625" r="5.0625" transform="matrix(-4.37114e-08 -1 -1 4.37114e-08 178.062 299.25)" stroke="#005174" stroke-width="3"/>
<circle cx="171.5" cy="347.812" r="5.0625" transform="rotate(90 171.5 347.812)" stroke="#005174" stroke-width="3"/>
<circle cx="6.5625" cy="6.5625" r="5.0625" transform="matrix(4.37114e-08 1 1 -4.37114e-08 254.188 366.844)" stroke="#005174" stroke-width="3"/>
<circle cx="6.5625" cy="6.5625" r="5.0625" transform="matrix(4.37114e-08 1 1 -4.37114e-08 279.125 341.906)" stroke="#005174" stroke-width="3"/>
<circle cx="197.75" cy="373.406" r="5.0625" transform="rotate(90 197.75 373.406)" stroke="#005174" stroke-width="3"/>
<circle cx="260.75" cy="265.125" r="5.0625" transform="rotate(-90 260.75 265.125)" stroke="#005174" stroke-width="3"/>
<circle cx="6.5625" cy="6.5625" r="5.0625" transform="matrix(4.37114e-08 1 1 -4.37114e-08 225.312 388.5)" stroke="#005174" stroke-width="3"/>
<circle cx="231.875" cy="244.125" r="5.0625" transform="rotate(-90 231.875 244.125)" stroke="#005174" stroke-width="3"/>
<circle cx="197.75" cy="266.438" r="5.0625" transform="rotate(-90 197.75 266.438)" stroke="#005174" stroke-width="3"/>
<circle cx="385.438" cy="129.938" r="6.5625" transform="rotate(-90 385.438 129.938)" fill="#005174"/>
<circle cx="318.5" cy="11.8125" r="6.5625" transform="rotate(-90 318.5 11.8125)" fill="#005174"/>
<circle cx="161" cy="6.5625" r="6.5625" transform="rotate(-90 161 6.5625)" fill="#005174"/>
<circle cx="310.562" cy="560.562" r="6.5625" transform="rotate(-90 310.562 560.562)" fill="#005174"/>
<rect x="-1.49996" y="1.51077" width="30.7108" height="30.7108" transform="matrix(1.31134e-07 1 -0.999974 0.00718031 390.721 481)" stroke="#005174" stroke-width="3"/>
<circle cx="374.063" cy="494.89" r="6.5625" transform="rotate(-90 374.063 494.89)" fill="#005174"/>
<circle cx="62.5625" cy="493.5" r="6.5625" transform="rotate(-90 62.5625 493.5)" fill="#005174"/>
<circle cx="214.812" cy="635.25" r="6.5625" transform="rotate(-90 214.812 635.25)" fill="#005174"/>
<path d="M285.688 286.125L285.687 238.625C285.687 235.864 287.926 233.625 290.687 233.625L380.437 233.625C383.199 233.625 385.437 231.386 385.437 228.625L385.437 136.5" stroke="#005174" stroke-width="3" stroke-dasharray="3.69 3.69"/>
<path d="M171.5 286.125L171.5 222.219C171.5 219.457 169.261 217.219 166.5 217.219L82 217.219C79.2386 217.219 77 214.98 77 212.219L77 140.187C77 137.426 79.2386 135.188 82 135.188L114.406 135.188" stroke="#005174" stroke-width="3" stroke-dasharray="3.69 3.69"/>
<path d="M171.5 354.375L171.5 438.625C171.5 441.386 169.261 443.625 166.5 443.625L130.563 443.625C127.801 443.625 125.563 445.864 125.563 448.625L125.563 488.5C125.563 491.261 123.324 493.5 120.563 493.5L67.1562 493.5" stroke="#005174" stroke-width="3"/>
<path d="M260.75 379.969L260.75 474C260.75 476.761 262.989 479 265.75 479L305.5 479C308.261 479 310.5 481.239 310.5 484L310.5 540.5L310.5 558" stroke="#005174" stroke-width="3" stroke-dasharray="4 4"/>
<path d="M285.688 355.031L285.688 378.25C285.688 381.011 287.926 383.25 290.688 383.25L326.5 383.25C329.261 383.25 331.5 385.489 331.5 388.25L331.5 441.5C331.5 444.261 333.739 446.5 336.5 446.5L368.5 446.5C371.261 446.5 373.5 448.739 373.5 451.5L373.5 480" stroke="#005174" stroke-width="3" stroke-dasharray="4 4"/>
<path d="M197.75 379.969L197.75 470.781C197.75 473.543 195.511 475.781 192.75 475.781L171.906 475.781C169.145 475.781 166.906 478.02 166.906 480.781L166.906 545.594C166.906 548.355 169.145 550.594 171.906 550.594L210.141 550.594C212.902 550.594 215.141 552.832 215.141 555.594L215.141 630.656" stroke="#005174" stroke-width="3" stroke-dasharray="4 4"/>
<path d="M260.75 258.562L260.75 173C260.75 170.239 262.989 168 265.75 168L312.844 168C315.605 168 317.844 165.761 317.844 163L317.844 18.375" stroke="#005174" stroke-width="3" stroke-dasharray="2 2"/>
<path d="M231.875 401.625L231.875 440.594C231.875 443.355 229.636 445.594 226.875 445.594L221.125 445.594C218.364 445.594 216.125 447.832 216.125 450.594L216.125 506.875C216.125 509.636 218.364 511.875 221.125 511.875L241.063 511.875C243.6 511.875 245.656 513.932 245.656 516.469V516.469L245.656 544.5C245.656 547.261 247.895 549.5 250.656 549.5L265.5 549.5" stroke="#005174" stroke-width="3" stroke-dasharray="2 2"/>
<path d="M231.875 237.562L231.875 130.594L231.875 92.9375C231.875 90.1761 234.114 87.9375 236.875 87.9375L253.531 87.9375" stroke="#005174" stroke-width="3" stroke-dasharray="3.69 3.69"/>
<path d="M197.75 259.875L197.75 177.594C197.75 174.832 199.989 172.594 202.75 172.594L209.812 172.594C212.574 172.594 214.812 170.355 214.812 167.594L214.812 66.6875C214.812 63.9261 212.574 61.6875 209.812 61.6875L165.344 61.6875C162.582 61.6875 160.344 59.4489 160.344 56.6875L160.344 7.21875" stroke="#005174" stroke-width="3"/>
<circle cx="275.188" cy="87.9375" r="22.125" transform="rotate(-90 275.188 87.9375)" stroke="#005174" stroke-width="3" stroke-dasharray="4 4"/>
<circle cx="275.188" cy="87.9375" r="8.1875" transform="rotate(-90 275.188 87.9375)" fill="#005174" stroke="#005174" stroke-width="2" stroke-dasharray="2 2"/>
<path fill-rule="evenodd" clip-rule="evenodd" d="M219.121 286.224C217.193 286.743 215.497 288.105 214.636 289.825C214.359 290.379 214.09 291.057 214.038 291.332C213.946 291.825 213.933 291.833 213.195 291.835C209.184 291.846 205.663 295.378 205.663 299.39V300.077L204.898 300.256C202.176 300.894 199.975 302.979 199.01 305.834C198.603 307.04 198.633 309.394 199.071 310.647C199.253 311.169 199.492 311.757 199.602 311.956C199.797 312.309 199.781 312.327 198.758 312.888C195.937 314.434 194 317.738 194 321.002C194 324.267 195.937 327.571 198.758 329.117C199.781 329.678 199.797 329.695 199.602 330.049C199.492 330.247 199.253 330.836 199.071 331.358C198.633 332.611 198.603 334.965 199.01 336.171C199.97 339.012 202.189 341.114 204.898 341.748L205.663 341.928V342.615C205.663 346.64 209.204 350.172 213.239 350.172C213.927 350.172 213.947 350.184 214.038 350.672C214.22 351.64 215.111 353.159 215.988 353.996C219.92 357.746 226.242 355.929 227.616 350.654C227.944 349.392 227.944 292.613 227.616 291.35C226.634 287.581 222.76 285.243 219.121 286.224ZM235.434 286.229C232.969 286.892 231.035 288.853 230.384 291.35C230.056 292.613 230.056 349.392 230.384 350.654C231.363 354.412 235.18 356.736 238.817 355.788C240.058 355.465 241.062 354.902 242.012 353.996C242.889 353.159 243.78 351.64 243.962 350.672C244.054 350.18 244.067 350.172 244.805 350.17C248.816 350.158 252.337 346.627 252.337 342.615V341.928L253.102 341.748C255.811 341.114 258.03 339.012 258.99 336.171C259.397 334.965 259.367 332.611 258.929 331.358C258.747 330.836 258.508 330.247 258.398 330.049C258.203 329.695 258.219 329.678 259.242 329.117C262.058 327.573 264 324.261 264 321.002C264 317.738 262.063 314.434 259.242 312.888C258.219 312.327 258.203 312.309 258.398 311.956C258.508 311.757 258.747 311.169 258.929 310.647C259.367 309.394 259.397 307.04 258.99 305.834C258.03 302.993 255.811 300.89 253.102 300.256L252.337 300.077V299.39C252.337 295.378 248.816 291.846 244.805 291.835C244.067 291.833 244.054 291.825 243.962 291.332C243.91 291.057 243.641 290.379 243.364 289.825C241.933 286.965 238.495 285.406 235.434 286.229ZM222.839 288.825C223.905 289.365 224.373 289.817 224.928 290.841L225.427 291.76L225.469 299.38L225.512 307.001H222.589H219.665V305.123V303.244L220.108 303.061C221.088 302.655 221.999 301.181 221.999 300C221.999 298.193 220.306 296.5 218.498 296.5C216.691 296.5 214.998 298.193 214.998 300C214.998 301.181 215.909 302.655 216.889 303.061L217.332 303.244V305.123V307.001H214.286H211.241L211.058 306.558C210.652 305.578 209.178 304.667 207.997 304.667C206.19 304.667 204.496 306.36 204.496 308.168C204.496 309.975 206.19 311.668 207.997 311.668C209.178 311.668 210.652 310.757 211.058 309.777L211.241 309.334H218.37H225.499V312.251V315.168H217.106H208.713L208.355 315.526L207.997 315.884V319.738V323.592L207.554 323.775C206.574 324.182 205.663 325.656 205.663 326.836C205.663 328.643 207.356 330.337 209.164 330.337C210.971 330.337 212.664 328.643 212.664 326.836C212.664 325.656 211.754 324.182 210.773 323.775L210.331 323.592V320.547V317.502H217.915H225.499V320.419V323.336H220.607H215.714L215.356 323.694L214.998 324.052V328.489V332.926L214.555 333.11C213.575 333.516 212.664 334.99 212.664 336.171C212.664 337.351 213.575 338.825 214.555 339.231L214.998 339.415V341.518C214.998 343.557 215.009 343.633 215.356 343.98L215.714 344.338H220.62H225.525L225.474 347.291C225.423 350.162 225.411 350.266 225.031 350.99C224.453 352.092 224.013 352.548 222.991 353.098C222.152 353.551 221.964 353.594 220.832 353.594C219.699 353.594 219.513 353.551 218.67 353.096C217.217 352.313 216.348 351.023 216.215 349.452C216.107 348.171 216.043 348.004 215.565 347.757C215.183 347.559 215.006 347.551 214.383 347.7C212.757 348.09 210.771 347.498 209.556 346.26C208.327 345.008 207.739 343.036 208.131 341.479C208.334 340.673 208.166 340.093 207.659 339.848C207.484 339.763 206.888 339.657 206.334 339.613C204.299 339.449 202.553 338.241 201.619 336.351C201.099 335.298 201.069 335.162 201.069 333.845C201.069 332.585 201.112 332.36 201.523 331.503C201.773 330.982 202.183 330.3 202.435 329.988C203.258 328.967 202.965 328.172 201.621 327.781C199.056 327.036 197.201 325.167 196.552 322.673C195.605 319.039 197.837 315.314 201.614 314.223C202.965 313.833 203.26 313.04 202.435 312.016C202.183 311.704 201.773 311.023 201.523 310.501C201.113 309.646 201.069 309.418 201.069 308.168C201.069 306.92 201.114 306.687 201.521 305.827C202.059 304.692 202.662 303.972 203.586 303.36C204.418 302.809 205.899 302.335 206.809 302.329C207.971 302.321 208.417 301.725 208.136 300.554C207.745 298.926 208.337 296.941 209.576 295.725C210.836 294.488 212.768 293.917 214.383 294.305C215.006 294.454 215.183 294.445 215.565 294.248C216.042 294.001 216.097 293.857 216.23 292.52C216.425 290.568 217.809 288.966 219.738 288.459C220.533 288.25 222.06 288.43 222.839 288.825ZM239.367 288.933C240.779 289.686 241.653 290.994 241.785 292.552C241.893 293.834 241.957 294.001 242.435 294.248C242.817 294.445 242.994 294.454 243.617 294.305C245.232 293.917 247.164 294.488 248.424 295.725C249.654 296.932 250.263 298.958 249.869 300.526C249.666 301.331 249.834 301.912 250.341 302.157C250.516 302.242 251.112 302.347 251.666 302.392C253.718 302.557 255.441 303.752 256.386 305.665C256.901 306.705 256.931 306.845 256.931 308.16C256.931 309.419 256.888 309.644 256.477 310.501C256.227 311.023 255.817 311.704 255.565 312.016C254.74 313.04 255.035 313.833 256.386 314.223C257.68 314.597 258.813 315.269 259.68 316.178C263.4 320.078 261.644 326.251 256.379 327.781C255.035 328.172 254.742 328.967 255.565 329.988C255.817 330.3 256.227 330.982 256.477 331.503C256.887 332.359 256.931 332.586 256.931 333.837C256.931 335.093 256.888 335.315 256.465 336.206C255.481 338.283 253.391 339.652 251.17 339.674C250.029 339.685 249.585 340.288 249.864 341.451C250.252 343.068 249.682 344.998 248.444 346.26C247.229 347.498 245.243 348.09 243.617 347.7C242.994 347.551 242.817 347.559 242.435 347.757C241.958 348.003 241.903 348.148 241.769 349.489C241.612 351.066 240.76 352.326 239.327 353.098C238.487 353.551 238.3 353.594 237.168 353.594C236.036 353.594 235.848 353.551 235.009 353.098C233.989 352.548 233.549 352.094 232.967 350.99L232.573 350.245L232.533 337.957L232.492 325.669H234.83H237.168V332.215V338.76L236.725 338.944C235.745 339.35 234.834 340.824 234.834 342.004C234.834 343.812 236.527 345.505 238.335 345.505C240.142 345.505 241.835 343.812 241.835 342.004C241.835 340.824 240.924 339.35 239.944 338.944L239.502 338.76V332.215V325.669H244.169H248.836V328.131V330.593L248.394 330.776C247.413 331.182 246.503 332.656 246.503 333.837C246.503 335.644 248.196 337.337 250.003 337.337C251.81 337.337 253.504 335.644 253.504 333.837C253.504 332.656 252.593 331.182 251.612 330.776L251.17 330.593V327.322V324.052L250.812 323.694L250.454 323.336H241.477H232.501V320.419V317.502H239.63H246.759L246.942 317.944C247.348 318.925 248.822 319.836 250.003 319.836C251.81 319.836 253.504 318.142 253.504 316.335C253.504 314.528 251.81 312.835 250.003 312.835C248.822 312.835 247.348 313.746 246.942 314.726L246.759 315.168H239.63H232.501V312.251V309.334H237.977H243.453L243.811 308.976C244.165 308.622 244.169 308.59 244.169 305.931V303.244L244.611 303.061C245.592 302.655 246.503 301.181 246.503 300C246.503 298.193 244.809 296.5 243.002 296.5C241.195 296.5 239.502 298.193 239.502 300C239.502 301.181 240.412 302.655 241.393 303.061L241.835 303.244V305.123V307.001H237.162H232.488L232.531 299.38L232.573 291.76L232.935 291.031C233.556 289.775 234.733 288.811 236.074 288.459C236.976 288.222 238.423 288.431 239.367 288.933ZM219.307 299.191C220.031 299.915 219.518 301.167 218.498 301.167C218.214 301.167 217.915 301.035 217.69 300.809C217.464 300.583 217.332 300.284 217.332 300C217.332 299.716 217.464 299.417 217.69 299.191C217.915 298.966 218.214 298.833 218.498 298.833C218.783 298.833 219.082 298.966 219.307 299.191ZM243.811 299.191C244.534 299.915 244.022 301.167 243.002 301.167C242.402 301.167 241.835 300.6 241.835 300C241.835 299.401 242.402 298.833 243.002 298.833C243.286 298.833 243.585 298.966 243.811 299.191ZM208.806 307.359C209.031 307.585 209.164 307.884 209.164 308.168C209.164 308.452 209.031 308.751 208.806 308.976C208.58 309.202 208.281 309.334 207.997 309.334C207.713 309.334 207.414 309.202 207.188 308.976C206.962 308.751 206.83 308.452 206.83 308.168C206.83 307.884 206.962 307.585 207.188 307.359C207.414 307.133 207.713 307.001 207.997 307.001C208.281 307.001 208.58 307.133 208.806 307.359ZM246.503 308.168V309.334H247.669H248.836V308.168V307.001H247.669H246.503V308.168ZM250.812 315.526C251.535 316.25 251.023 317.502 250.003 317.502C249.403 317.502 248.836 316.935 248.836 316.335C248.836 315.736 249.403 315.168 250.003 315.168C250.287 315.168 250.586 315.301 250.812 315.526ZM198.662 321.002V322.169H199.829H200.996V321.002V319.836H199.829H198.662V321.002ZM255.837 321.002V322.169H257.004H258.171V321.002V319.836H257.004H255.837V321.002ZM209.973 326.028C210.696 326.751 210.183 328.003 209.164 328.003C208.564 328.003 207.997 327.436 207.997 326.836C207.997 326.237 208.564 325.669 209.164 325.669C209.448 325.669 209.747 325.802 209.973 326.028ZM225.499 333.837V342.004H221.416H217.332V340.709V339.415L217.774 339.231C218.755 338.825 219.665 337.351 219.665 336.171C219.665 334.99 218.755 333.516 217.774 333.11L217.332 332.926V329.298V325.669H221.416H225.499V333.837ZM250.812 333.028C251.038 333.254 251.17 333.553 251.17 333.837C251.17 334.121 251.038 334.42 250.812 334.646C250.586 334.871 250.287 335.004 250.003 335.004C249.719 335.004 249.42 334.871 249.194 334.646C248.969 334.42 248.836 334.121 248.836 333.837C248.836 333.553 248.969 333.254 249.194 333.028C249.42 332.802 249.719 332.67 250.003 332.67C250.287 332.67 250.586 332.802 250.812 333.028ZM205.663 335.004V336.171H206.83H207.997V335.004V333.837H206.83H205.663V335.004ZM216.974 335.362C217.697 336.085 217.184 337.337 216.165 337.337C215.565 337.337 214.998 336.77 214.998 336.171C214.998 335.571 215.565 335.004 216.165 335.004C216.449 335.004 216.748 335.136 216.974 335.362ZM239.143 341.196C239.369 341.421 239.502 341.72 239.502 342.004C239.502 342.289 239.369 342.588 239.143 342.813C238.918 343.039 238.619 343.171 238.335 343.171C238.051 343.171 237.752 343.039 237.526 342.813C237.3 342.588 237.168 342.289 237.168 342.004C237.168 341.72 237.3 341.421 237.526 341.196C237.752 340.97 238.051 340.838 238.335 340.838C238.619 340.838 238.918 340.97 239.143 341.196Z" fill="#005174"/>
</svg>
