<svg width="743" height="482" viewBox="0 0 743 482" fill="none" xmlns="http://www.w3.org/2000/svg">
<rect x="158" y="290" width="245" height="192" fill="#F0F8FA"/>
<rect width="239" height="234" fill="#F0F8FA"/>
<rect x="411" y="90" width="191" height="180" fill="#F0F8FA"/>
<path d="M224 220H239" stroke="#005174" stroke-width="4" stroke-linecap="round" stroke-dasharray="7.39 7.39"/>
<path d="M129 220L155 220" stroke="#005174" stroke-width="4" stroke-linecap="round" stroke-dasharray="7.39 7.39"/>
<path d="M260 220H275" stroke="#005174" stroke-width="4" stroke-linecap="round" stroke-dasharray="7.39 7.39"/>
<path d="M260 220H275" stroke="#005174" stroke-width="4" stroke-linecap="round" stroke-dasharray="7.39 7.39"/>
<path d="M382 220H397" stroke="#005174" stroke-width="4" stroke-linecap="round" stroke-dasharray="7.39 7.39"/>
<path d="M504 220H519" stroke="#005174" stroke-width="4" stroke-linecap="round" stroke-dasharray="7.39 7.39"/>
<path d="M345 220H360" stroke="#005174" stroke-width="4" stroke-linecap="round" stroke-dasharray="7.39 7.39"/>
<path d="M467 220H482" stroke="#005174" stroke-width="4" stroke-linecap="round" stroke-dasharray="7.39 7.39"/>
<path d="M589 220H651" stroke="#005174" stroke-width="4" stroke-linecap="round" stroke-dasharray="7.39 7.39"/>
<path d="M74 131C74 130.448 73.5523 130 73 130C72.4477 130 72 130.448 72 131L74 131ZM72.2929 154.707C72.6834 155.098 73.3166 155.098 73.7071 154.707L80.0711 148.343C80.4616 147.953 80.4616 147.319 80.0711 146.929C79.6805 146.538 79.0474 146.538 78.6569 146.929L73 152.586L67.3431 146.929C66.9526 146.538 66.3195 146.538 65.9289 146.929C65.5384 147.319 65.5384 147.953 65.9289 148.343L72.2929 154.707ZM72 131L72 154L74 154L74 131L72 131Z" fill="#005174"/>
<path d="M293.812 155H291.43V143.578H297.977V145.562H293.812V148.508H297.688V150.484H293.812V155ZM305.57 155L305.109 153.812H305.047C304.646 154.318 304.232 154.669 303.805 154.867C303.383 155.06 302.831 155.156 302.148 155.156C301.31 155.156 300.648 154.917 300.164 154.438C299.685 153.958 299.445 153.276 299.445 152.391C299.445 151.464 299.768 150.781 300.414 150.344C301.065 149.901 302.044 149.656 303.352 149.609L304.867 149.562V149.18C304.867 148.294 304.414 147.852 303.508 147.852C302.81 147.852 301.99 148.062 301.047 148.484L300.258 146.875C301.263 146.349 302.378 146.086 303.602 146.086C304.773 146.086 305.672 146.341 306.297 146.852C306.922 147.362 307.234 148.138 307.234 149.18V155H305.57ZM304.867 150.953L303.945 150.984C303.253 151.005 302.737 151.13 302.398 151.359C302.06 151.589 301.891 151.938 301.891 152.406C301.891 153.078 302.276 153.414 303.047 153.414C303.599 153.414 304.039 153.255 304.367 152.938C304.701 152.62 304.867 152.198 304.867 151.672V150.953ZM315.789 152.406C315.789 153.302 315.477 153.984 314.852 154.453C314.232 154.922 313.302 155.156 312.062 155.156C311.427 155.156 310.885 155.112 310.438 155.023C309.99 154.94 309.57 154.815 309.18 154.648V152.68C309.622 152.888 310.12 153.062 310.672 153.203C311.229 153.344 311.719 153.414 312.141 153.414C313.005 153.414 313.438 153.164 313.438 152.664C313.438 152.477 313.38 152.326 313.266 152.211C313.151 152.091 312.953 151.958 312.672 151.812C312.391 151.661 312.016 151.487 311.547 151.289C310.875 151.008 310.38 150.747 310.062 150.508C309.75 150.268 309.521 149.995 309.375 149.688C309.234 149.375 309.164 148.992 309.164 148.539C309.164 147.763 309.464 147.164 310.062 146.742C310.667 146.315 311.521 146.102 312.625 146.102C313.677 146.102 314.701 146.331 315.695 146.789L314.977 148.508C314.539 148.32 314.13 148.167 313.75 148.047C313.37 147.927 312.982 147.867 312.586 147.867C311.883 147.867 311.531 148.057 311.531 148.438C311.531 148.651 311.643 148.836 311.867 148.992C312.096 149.148 312.594 149.38 313.359 149.688C314.042 149.964 314.542 150.221 314.859 150.461C315.177 150.701 315.411 150.977 315.562 151.289C315.714 151.602 315.789 151.974 315.789 152.406ZM321.266 147.797C320.76 147.797 320.365 147.958 320.078 148.281C319.792 148.599 319.628 149.052 319.586 149.641H322.93C322.919 149.052 322.766 148.599 322.469 148.281C322.172 147.958 321.771 147.797 321.266 147.797ZM321.602 155.156C320.195 155.156 319.096 154.768 318.305 153.992C317.513 153.216 317.117 152.117 317.117 150.695C317.117 149.232 317.482 148.102 318.211 147.305C318.945 146.503 319.958 146.102 321.25 146.102C322.484 146.102 323.445 146.453 324.133 147.156C324.82 147.859 325.164 148.831 325.164 150.07V151.227H319.531C319.557 151.904 319.758 152.432 320.133 152.812C320.508 153.193 321.034 153.383 321.711 153.383C322.237 153.383 322.734 153.328 323.203 153.219C323.672 153.109 324.161 152.935 324.672 152.695V154.539C324.255 154.747 323.81 154.901 323.336 155C322.862 155.104 322.284 155.156 321.602 155.156ZM264.641 173V161.578H267.062V173H264.641ZM277.812 173H275.43V167.898C275.43 167.268 275.318 166.797 275.094 166.484C274.87 166.167 274.513 166.008 274.023 166.008C273.357 166.008 272.875 166.232 272.578 166.68C272.281 167.122 272.133 167.859 272.133 168.891V173H269.75V164.266H271.57L271.891 165.383H272.023C272.289 164.961 272.654 164.643 273.117 164.43C273.586 164.211 274.117 164.102 274.711 164.102C275.727 164.102 276.497 164.378 277.023 164.93C277.549 165.477 277.812 166.268 277.812 167.305V173ZM283.945 171.258C284.362 171.258 284.862 171.167 285.445 170.984V172.758C284.852 173.023 284.122 173.156 283.258 173.156C282.305 173.156 281.609 172.917 281.172 172.438C280.74 171.953 280.523 171.229 280.523 170.266V166.055H279.383V165.047L280.695 164.25L281.383 162.406H282.906V164.266H285.352V166.055H282.906V170.266C282.906 170.604 283 170.854 283.188 171.016C283.38 171.177 283.633 171.258 283.945 171.258ZM290.836 165.797C290.331 165.797 289.935 165.958 289.648 166.281C289.362 166.599 289.198 167.052 289.156 167.641H292.5C292.49 167.052 292.336 166.599 292.039 166.281C291.742 165.958 291.341 165.797 290.836 165.797ZM291.172 173.156C289.766 173.156 288.667 172.768 287.875 171.992C287.083 171.216 286.688 170.117 286.688 168.695C286.688 167.232 287.052 166.102 287.781 165.305C288.516 164.503 289.529 164.102 290.82 164.102C292.055 164.102 293.016 164.453 293.703 165.156C294.391 165.859 294.734 166.831 294.734 168.07V169.227H289.102C289.128 169.904 289.328 170.432 289.703 170.812C290.078 171.193 290.604 171.383 291.281 171.383C291.807 171.383 292.305 171.328 292.773 171.219C293.242 171.109 293.732 170.935 294.242 170.695V172.539C293.826 172.747 293.38 172.901 292.906 173C292.432 173.104 291.854 173.156 291.172 173.156ZM299.055 173H296.672V160.844H299.055V173ZM303.945 173H301.562V160.844H303.945V173ZM306.352 162.008C306.352 161.232 306.784 160.844 307.648 160.844C308.513 160.844 308.945 161.232 308.945 162.008C308.945 162.378 308.836 162.667 308.617 162.875C308.404 163.078 308.081 163.18 307.648 163.18C306.784 163.18 306.352 162.789 306.352 162.008ZM308.836 173H306.453V164.266H308.836V173ZM318.945 164.266V165.477L317.578 165.828C317.828 166.219 317.953 166.656 317.953 167.141C317.953 168.078 317.625 168.81 316.969 169.336C316.318 169.857 315.411 170.117 314.25 170.117L313.82 170.094L313.469 170.055C313.224 170.242 313.102 170.451 313.102 170.68C313.102 171.023 313.539 171.195 314.414 171.195H315.898C316.857 171.195 317.586 171.401 318.086 171.812C318.591 172.224 318.844 172.828 318.844 173.625C318.844 174.646 318.417 175.438 317.562 176C316.714 176.562 315.492 176.844 313.898 176.844C312.68 176.844 311.747 176.63 311.102 176.203C310.461 175.781 310.141 175.188 310.141 174.422C310.141 173.896 310.305 173.456 310.633 173.102C310.961 172.747 311.443 172.495 312.078 172.344C311.833 172.24 311.62 172.07 311.438 171.836C311.255 171.596 311.164 171.344 311.164 171.078C311.164 170.745 311.26 170.469 311.453 170.25C311.646 170.026 311.924 169.807 312.289 169.594C311.831 169.396 311.466 169.078 311.195 168.641C310.93 168.203 310.797 167.688 310.797 167.094C310.797 166.141 311.107 165.404 311.727 164.883C312.346 164.362 313.232 164.102 314.383 164.102C314.628 164.102 314.917 164.125 315.25 164.172C315.589 164.214 315.805 164.245 315.898 164.266H318.945ZM312.203 174.234C312.203 174.562 312.359 174.82 312.672 175.008C312.99 175.195 313.432 175.289 314 175.289C314.854 175.289 315.523 175.172 316.008 174.938C316.492 174.703 316.734 174.383 316.734 173.977C316.734 173.648 316.591 173.422 316.305 173.297C316.018 173.172 315.576 173.109 314.977 173.109H313.742C313.305 173.109 312.938 173.211 312.641 173.414C312.349 173.622 312.203 173.896 312.203 174.234ZM313.07 167.125C313.07 167.599 313.177 167.974 313.391 168.25C313.609 168.526 313.94 168.664 314.383 168.664C314.831 168.664 315.159 168.526 315.367 168.25C315.576 167.974 315.68 167.599 315.68 167.125C315.68 166.073 315.247 165.547 314.383 165.547C313.508 165.547 313.07 166.073 313.07 167.125ZM324.008 165.797C323.503 165.797 323.107 165.958 322.82 166.281C322.534 166.599 322.37 167.052 322.328 167.641H325.672C325.661 167.052 325.508 166.599 325.211 166.281C324.914 165.958 324.513 165.797 324.008 165.797ZM324.344 173.156C322.938 173.156 321.839 172.768 321.047 171.992C320.255 171.216 319.859 170.117 319.859 168.695C319.859 167.232 320.224 166.102 320.953 165.305C321.688 164.503 322.701 164.102 323.992 164.102C325.227 164.102 326.188 164.453 326.875 165.156C327.562 165.859 327.906 166.831 327.906 168.07V169.227H322.273C322.299 169.904 322.5 170.432 322.875 170.812C323.25 171.193 323.776 171.383 324.453 171.383C324.979 171.383 325.477 171.328 325.945 171.219C326.414 171.109 326.904 170.935 327.414 170.695V172.539C326.997 172.747 326.552 172.901 326.078 173C325.604 173.104 325.026 173.156 324.344 173.156ZM337.906 173H335.523V167.898C335.523 167.268 335.411 166.797 335.188 166.484C334.964 166.167 334.607 166.008 334.117 166.008C333.451 166.008 332.969 166.232 332.672 166.68C332.375 167.122 332.227 167.859 332.227 168.891V173H329.844V164.266H331.664L331.984 165.383H332.117C332.383 164.961 332.747 164.643 333.211 164.43C333.68 164.211 334.211 164.102 334.805 164.102C335.82 164.102 336.591 164.378 337.117 164.93C337.643 165.477 337.906 166.268 337.906 167.305V173ZM343.906 173.156C341.188 173.156 339.828 171.664 339.828 168.68C339.828 167.195 340.198 166.062 340.938 165.281C341.677 164.495 342.737 164.102 344.117 164.102C345.128 164.102 346.034 164.299 346.836 164.695L346.133 166.539C345.758 166.388 345.409 166.266 345.086 166.172C344.763 166.073 344.44 166.023 344.117 166.023C342.878 166.023 342.258 166.904 342.258 168.664C342.258 170.372 342.878 171.227 344.117 171.227C344.576 171.227 345 171.167 345.391 171.047C345.781 170.922 346.172 170.729 346.562 170.469V172.508C346.177 172.753 345.786 172.922 345.391 173.016C345 173.109 344.505 173.156 343.906 173.156ZM352.211 165.797C351.706 165.797 351.31 165.958 351.023 166.281C350.737 166.599 350.573 167.052 350.531 167.641H353.875C353.865 167.052 353.711 166.599 353.414 166.281C353.117 165.958 352.716 165.797 352.211 165.797ZM352.547 173.156C351.141 173.156 350.042 172.768 349.25 171.992C348.458 171.216 348.062 170.117 348.062 168.695C348.062 167.232 348.427 166.102 349.156 165.305C349.891 164.503 350.904 164.102 352.195 164.102C353.43 164.102 354.391 164.453 355.078 165.156C355.766 165.859 356.109 166.831 356.109 168.07V169.227H350.477C350.503 169.904 350.703 170.432 351.078 170.812C351.453 171.193 351.979 171.383 352.656 171.383C353.182 171.383 353.68 171.328 354.148 171.219C354.617 171.109 355.107 170.935 355.617 170.695V172.539C355.201 172.747 354.755 172.901 354.281 173C353.807 173.104 353.229 173.156 352.547 173.156Z" fill="#005174"/>
<path d="M172.312 155H169.93V143.578H176.477V145.562H172.312V148.508H176.188V150.484H172.312V155ZM182.102 146.086C183.273 146.086 184.172 146.341 184.797 146.852C185.422 147.362 185.734 148.138 185.734 149.18V155H184.07L183.609 153.812H183.547C183.297 154.125 183.042 154.38 182.781 154.578C182.521 154.776 182.221 154.922 181.883 155.016C181.544 155.109 181.133 155.156 180.648 155.156C180.133 155.156 179.669 155.057 179.258 154.859C178.852 154.661 178.531 154.359 178.297 153.953C178.062 153.542 177.945 153.021 177.945 152.391C177.945 151.464 178.271 150.781 178.922 150.344C179.573 149.901 180.549 149.656 181.852 149.609L183.367 149.562V149.18C183.367 148.721 183.247 148.385 183.008 148.172C182.768 147.958 182.435 147.852 182.008 147.852C181.586 147.852 181.172 147.911 180.766 148.031C180.359 148.151 179.953 148.302 179.547 148.484L178.758 146.875C179.221 146.63 179.74 146.438 180.312 146.297C180.891 146.156 181.487 146.086 182.102 146.086ZM183.367 150.953L182.445 150.984C181.674 151.005 181.138 151.143 180.836 151.398C180.539 151.654 180.391 151.99 180.391 152.406C180.391 152.771 180.497 153.031 180.711 153.188C180.924 153.339 181.203 153.414 181.547 153.414C182.057 153.414 182.487 153.263 182.836 152.961C183.19 152.659 183.367 152.229 183.367 151.672V150.953ZM194.289 152.406C194.289 153 194.148 153.503 193.867 153.914C193.591 154.32 193.177 154.63 192.625 154.844C192.073 155.052 191.385 155.156 190.562 155.156C189.953 155.156 189.43 155.117 188.992 155.039C188.56 154.961 188.122 154.831 187.68 154.648V152.68C188.154 152.893 188.661 153.07 189.203 153.211C189.75 153.346 190.229 153.414 190.641 153.414C191.104 153.414 191.435 153.346 191.633 153.211C191.836 153.07 191.938 152.888 191.938 152.664C191.938 152.518 191.896 152.388 191.812 152.273C191.734 152.154 191.562 152.021 191.297 151.875C191.031 151.724 190.615 151.529 190.047 151.289C189.5 151.06 189.049 150.828 188.695 150.594C188.346 150.359 188.086 150.083 187.914 149.766C187.747 149.443 187.664 149.034 187.664 148.539C187.664 147.732 187.977 147.125 188.602 146.719C189.232 146.307 190.073 146.102 191.125 146.102C191.667 146.102 192.182 146.156 192.672 146.266C193.167 146.375 193.674 146.549 194.195 146.789L193.477 148.508C193.044 148.32 192.635 148.167 192.25 148.047C191.87 147.927 191.482 147.867 191.086 147.867C190.737 147.867 190.474 147.914 190.297 148.008C190.12 148.102 190.031 148.245 190.031 148.438C190.031 148.578 190.076 148.703 190.164 148.812C190.258 148.922 190.435 149.044 190.695 149.18C190.961 149.31 191.349 149.479 191.859 149.688C192.354 149.891 192.784 150.104 193.148 150.328C193.513 150.547 193.794 150.82 193.992 151.148C194.19 151.471 194.289 151.891 194.289 152.406ZM199.75 146.102C200.557 146.102 201.253 146.258 201.836 146.57C202.419 146.878 202.87 147.326 203.188 147.914C203.505 148.503 203.664 149.221 203.664 150.07V151.227H198.031C198.057 151.898 198.258 152.427 198.633 152.812C199.013 153.193 199.539 153.383 200.211 153.383C200.768 153.383 201.279 153.326 201.742 153.211C202.206 153.096 202.682 152.924 203.172 152.695V154.539C202.74 154.753 202.286 154.909 201.812 155.008C201.344 155.107 200.773 155.156 200.102 155.156C199.227 155.156 198.451 154.995 197.773 154.672C197.102 154.349 196.573 153.857 196.188 153.195C195.807 152.534 195.617 151.701 195.617 150.695C195.617 149.674 195.789 148.826 196.133 148.148C196.482 147.466 196.966 146.956 197.586 146.617C198.206 146.273 198.927 146.102 199.75 146.102ZM199.766 147.797C199.302 147.797 198.917 147.945 198.609 148.242C198.307 148.539 198.133 149.005 198.086 149.641H201.43C201.424 149.286 201.359 148.971 201.234 148.695C201.115 148.419 200.932 148.201 200.688 148.039C200.448 147.878 200.141 147.797 199.766 147.797ZM156.531 173V161.578H158.953V173H156.531ZM164.406 173.156C163.432 173.156 162.638 172.776 162.023 172.016C161.414 171.25 161.109 170.128 161.109 168.648C161.109 167.154 161.419 166.023 162.039 165.258C162.659 164.487 163.469 164.102 164.469 164.102C164.885 164.102 165.253 164.159 165.57 164.273C165.888 164.388 166.161 164.542 166.391 164.734C166.625 164.927 166.823 165.143 166.984 165.383H167.062C167.031 165.216 166.992 164.971 166.945 164.648C166.904 164.32 166.883 163.984 166.883 163.641V160.844H169.273V173H167.445L166.984 171.867H166.883C166.732 172.107 166.542 172.326 166.312 172.523C166.089 172.716 165.82 172.87 165.508 172.984C165.195 173.099 164.828 173.156 164.406 173.156ZM165.242 171.258C165.893 171.258 166.352 171.065 166.617 170.68C166.888 170.289 167.031 169.703 167.047 168.922V168.664C167.047 167.815 166.917 167.167 166.656 166.719C166.396 166.266 165.911 166.039 165.203 166.039C164.677 166.039 164.266 166.266 163.969 166.719C163.672 167.172 163.523 167.826 163.523 168.68C163.523 169.534 163.672 170.177 163.969 170.609C164.271 171.042 164.695 171.258 165.242 171.258ZM175.367 164.102C176.174 164.102 176.87 164.258 177.453 164.57C178.036 164.878 178.487 165.326 178.805 165.914C179.122 166.503 179.281 167.221 179.281 168.07V169.227H173.648C173.674 169.898 173.875 170.427 174.25 170.812C174.63 171.193 175.156 171.383 175.828 171.383C176.385 171.383 176.896 171.326 177.359 171.211C177.823 171.096 178.299 170.924 178.789 170.695V172.539C178.357 172.753 177.904 172.909 177.43 173.008C176.961 173.107 176.391 173.156 175.719 173.156C174.844 173.156 174.068 172.995 173.391 172.672C172.719 172.349 172.19 171.857 171.805 171.195C171.424 170.534 171.234 169.701 171.234 168.695C171.234 167.674 171.406 166.826 171.75 166.148C172.099 165.466 172.583 164.956 173.203 164.617C173.823 164.273 174.544 164.102 175.367 164.102ZM175.383 165.797C174.919 165.797 174.534 165.945 174.227 166.242C173.924 166.539 173.75 167.005 173.703 167.641H177.047C177.042 167.286 176.977 166.971 176.852 166.695C176.732 166.419 176.549 166.201 176.305 166.039C176.065 165.878 175.758 165.797 175.383 165.797ZM184.797 164.086C185.969 164.086 186.867 164.341 187.492 164.852C188.117 165.362 188.43 166.138 188.43 167.18V173H186.766L186.305 171.812H186.242C185.992 172.125 185.737 172.38 185.477 172.578C185.216 172.776 184.917 172.922 184.578 173.016C184.24 173.109 183.828 173.156 183.344 173.156C182.828 173.156 182.365 173.057 181.953 172.859C181.547 172.661 181.227 172.359 180.992 171.953C180.758 171.542 180.641 171.021 180.641 170.391C180.641 169.464 180.966 168.781 181.617 168.344C182.268 167.901 183.245 167.656 184.547 167.609L186.062 167.562V167.18C186.062 166.721 185.943 166.385 185.703 166.172C185.464 165.958 185.13 165.852 184.703 165.852C184.281 165.852 183.867 165.911 183.461 166.031C183.055 166.151 182.648 166.302 182.242 166.484L181.453 164.875C181.917 164.63 182.435 164.438 183.008 164.297C183.586 164.156 184.182 164.086 184.797 164.086ZM186.062 168.953L185.141 168.984C184.37 169.005 183.833 169.143 183.531 169.398C183.234 169.654 183.086 169.99 183.086 170.406C183.086 170.771 183.193 171.031 183.406 171.188C183.62 171.339 183.898 171.414 184.242 171.414C184.753 171.414 185.182 171.263 185.531 170.961C185.885 170.659 186.062 170.229 186.062 169.672V168.953ZM194.57 171.258C194.831 171.258 195.083 171.232 195.328 171.18C195.578 171.128 195.826 171.062 196.07 170.984V172.758C195.815 172.872 195.497 172.966 195.117 173.039C194.742 173.117 194.331 173.156 193.883 173.156C193.362 173.156 192.893 173.073 192.477 172.906C192.065 172.734 191.74 172.44 191.5 172.023C191.266 171.602 191.148 171.016 191.148 170.266V166.055H190.008V165.047L191.32 164.25L192.008 162.406H193.531V164.266H195.977V166.055H193.531V170.266C193.531 170.599 193.625 170.849 193.812 171.016C194.005 171.177 194.258 171.258 194.57 171.258ZM200.227 164.266V173H197.844V164.266H200.227ZM199.039 160.844C199.393 160.844 199.698 160.927 199.953 161.094C200.208 161.255 200.336 161.56 200.336 162.008C200.336 162.451 200.208 162.758 199.953 162.93C199.698 163.096 199.393 163.18 199.039 163.18C198.68 163.18 198.372 163.096 198.117 162.93C197.867 162.758 197.742 162.451 197.742 162.008C197.742 161.56 197.867 161.255 198.117 161.094C198.372 160.927 198.68 160.844 199.039 160.844ZM210.672 168.617C210.672 169.346 210.573 169.992 210.375 170.555C210.182 171.117 209.898 171.594 209.523 171.984C209.154 172.37 208.706 172.661 208.18 172.859C207.659 173.057 207.07 173.156 206.414 173.156C205.799 173.156 205.234 173.057 204.719 172.859C204.208 172.661 203.763 172.37 203.383 171.984C203.008 171.594 202.716 171.117 202.508 170.555C202.305 169.992 202.203 169.346 202.203 168.617C202.203 167.648 202.375 166.828 202.719 166.156C203.062 165.484 203.552 164.974 204.188 164.625C204.823 164.276 205.581 164.102 206.461 164.102C207.279 164.102 208.003 164.276 208.633 164.625C209.268 164.974 209.766 165.484 210.125 166.156C210.49 166.828 210.672 167.648 210.672 168.617ZM204.633 168.617C204.633 169.19 204.695 169.672 204.82 170.062C204.945 170.453 205.141 170.747 205.406 170.945C205.672 171.143 206.018 171.242 206.445 171.242C206.867 171.242 207.208 171.143 207.469 170.945C207.734 170.747 207.927 170.453 208.047 170.062C208.172 169.672 208.234 169.19 208.234 168.617C208.234 168.039 208.172 167.56 208.047 167.18C207.927 166.794 207.734 166.505 207.469 166.312C207.203 166.12 206.857 166.023 206.43 166.023C205.799 166.023 205.341 166.24 205.055 166.672C204.773 167.104 204.633 167.753 204.633 168.617ZM217.602 164.102C218.534 164.102 219.284 164.357 219.852 164.867C220.419 165.372 220.703 166.185 220.703 167.305V173H218.32V167.898C218.32 167.273 218.206 166.802 217.977 166.484C217.753 166.167 217.398 166.008 216.914 166.008C216.185 166.008 215.688 166.255 215.422 166.75C215.156 167.245 215.023 167.958 215.023 168.891V173H212.641V164.266H214.461L214.781 165.383H214.914C215.102 165.081 215.333 164.836 215.609 164.648C215.891 164.461 216.201 164.323 216.539 164.234C216.883 164.146 217.237 164.102 217.602 164.102Z" fill="#005174"/>
<path d="M417.812 155H415.43V143.578H421.977V145.562H417.812V148.508H421.688V150.484H417.812V155ZM427.602 146.086C428.773 146.086 429.672 146.341 430.297 146.852C430.922 147.362 431.234 148.138 431.234 149.18V155H429.57L429.109 153.812H429.047C428.797 154.125 428.542 154.38 428.281 154.578C428.021 154.776 427.721 154.922 427.383 155.016C427.044 155.109 426.633 155.156 426.148 155.156C425.633 155.156 425.169 155.057 424.758 154.859C424.352 154.661 424.031 154.359 423.797 153.953C423.562 153.542 423.445 153.021 423.445 152.391C423.445 151.464 423.771 150.781 424.422 150.344C425.073 149.901 426.049 149.656 427.352 149.609L428.867 149.562V149.18C428.867 148.721 428.747 148.385 428.508 148.172C428.268 147.958 427.935 147.852 427.508 147.852C427.086 147.852 426.672 147.911 426.266 148.031C425.859 148.151 425.453 148.302 425.047 148.484L424.258 146.875C424.721 146.63 425.24 146.438 425.812 146.297C426.391 146.156 426.987 146.086 427.602 146.086ZM428.867 150.953L427.945 150.984C427.174 151.005 426.638 151.143 426.336 151.398C426.039 151.654 425.891 151.99 425.891 152.406C425.891 152.771 425.997 153.031 426.211 153.188C426.424 153.339 426.703 153.414 427.047 153.414C427.557 153.414 427.987 153.263 428.336 152.961C428.69 152.659 428.867 152.229 428.867 151.672V150.953ZM439.789 152.406C439.789 153 439.648 153.503 439.367 153.914C439.091 154.32 438.677 154.63 438.125 154.844C437.573 155.052 436.885 155.156 436.062 155.156C435.453 155.156 434.93 155.117 434.492 155.039C434.06 154.961 433.622 154.831 433.18 154.648V152.68C433.654 152.893 434.161 153.07 434.703 153.211C435.25 153.346 435.729 153.414 436.141 153.414C436.604 153.414 436.935 153.346 437.133 153.211C437.336 153.07 437.438 152.888 437.438 152.664C437.438 152.518 437.396 152.388 437.312 152.273C437.234 152.154 437.062 152.021 436.797 151.875C436.531 151.724 436.115 151.529 435.547 151.289C435 151.06 434.549 150.828 434.195 150.594C433.846 150.359 433.586 150.083 433.414 149.766C433.247 149.443 433.164 149.034 433.164 148.539C433.164 147.732 433.477 147.125 434.102 146.719C434.732 146.307 435.573 146.102 436.625 146.102C437.167 146.102 437.682 146.156 438.172 146.266C438.667 146.375 439.174 146.549 439.695 146.789L438.977 148.508C438.544 148.32 438.135 148.167 437.75 148.047C437.37 147.927 436.982 147.867 436.586 147.867C436.237 147.867 435.974 147.914 435.797 148.008C435.62 148.102 435.531 148.245 435.531 148.438C435.531 148.578 435.576 148.703 435.664 148.812C435.758 148.922 435.935 149.044 436.195 149.18C436.461 149.31 436.849 149.479 437.359 149.688C437.854 149.891 438.284 150.104 438.648 150.328C439.013 150.547 439.294 150.82 439.492 151.148C439.69 151.471 439.789 151.891 439.789 152.406ZM445.25 146.102C446.057 146.102 446.753 146.258 447.336 146.57C447.919 146.878 448.37 147.326 448.688 147.914C449.005 148.503 449.164 149.221 449.164 150.07V151.227H443.531C443.557 151.898 443.758 152.427 444.133 152.812C444.513 153.193 445.039 153.383 445.711 153.383C446.268 153.383 446.779 153.326 447.242 153.211C447.706 153.096 448.182 152.924 448.672 152.695V154.539C448.24 154.753 447.786 154.909 447.312 155.008C446.844 155.107 446.273 155.156 445.602 155.156C444.727 155.156 443.951 154.995 443.273 154.672C442.602 154.349 442.073 153.857 441.688 153.195C441.307 152.534 441.117 151.701 441.117 150.695C441.117 149.674 441.289 148.826 441.633 148.148C441.982 147.466 442.466 146.956 443.086 146.617C443.706 146.273 444.427 146.102 445.25 146.102ZM445.266 147.797C444.802 147.797 444.417 147.945 444.109 148.242C443.807 148.539 443.633 149.005 443.586 149.641H446.93C446.924 149.286 446.859 148.971 446.734 148.695C446.615 148.419 446.432 148.201 446.188 148.039C445.948 147.878 445.641 147.797 445.266 147.797ZM397.492 173V161.578H399.914V173H397.492ZM407.562 164.102C408.495 164.102 409.245 164.357 409.812 164.867C410.38 165.372 410.664 166.185 410.664 167.305V173H408.281V167.898C408.281 167.273 408.167 166.802 407.938 166.484C407.714 166.167 407.359 166.008 406.875 166.008C406.146 166.008 405.648 166.255 405.383 166.75C405.117 167.245 404.984 167.958 404.984 168.891V173H402.602V164.266H404.422L404.742 165.383H404.875C405.062 165.081 405.294 164.836 405.57 164.648C405.852 164.461 406.161 164.323 406.5 164.234C406.844 164.146 407.198 164.102 407.562 164.102ZM416.664 173.156C415.799 173.156 415.062 173 414.453 172.688C413.844 172.37 413.38 171.88 413.062 171.219C412.745 170.557 412.586 169.711 412.586 168.68C412.586 167.612 412.766 166.742 413.125 166.07C413.49 165.393 413.992 164.896 414.633 164.578C415.279 164.26 416.026 164.102 416.875 164.102C417.479 164.102 418 164.161 418.438 164.281C418.88 164.396 419.266 164.534 419.594 164.695L418.891 166.539C418.516 166.388 418.167 166.266 417.844 166.172C417.521 166.073 417.198 166.023 416.875 166.023C416.458 166.023 416.112 166.122 415.836 166.32C415.56 166.513 415.354 166.805 415.219 167.195C415.083 167.586 415.016 168.076 415.016 168.664C415.016 169.242 415.089 169.721 415.234 170.102C415.38 170.482 415.591 170.766 415.867 170.953C416.143 171.135 416.479 171.227 416.875 171.227C417.37 171.227 417.81 171.161 418.195 171.031C418.581 170.896 418.956 170.708 419.32 170.469V172.508C418.956 172.737 418.573 172.901 418.172 173C417.776 173.104 417.273 173.156 416.664 173.156ZM424.953 164.102C425.76 164.102 426.456 164.258 427.039 164.57C427.622 164.878 428.073 165.326 428.391 165.914C428.708 166.503 428.867 167.221 428.867 168.07V169.227H423.234C423.26 169.898 423.461 170.427 423.836 170.812C424.216 171.193 424.742 171.383 425.414 171.383C425.971 171.383 426.482 171.326 426.945 171.211C427.409 171.096 427.885 170.924 428.375 170.695V172.539C427.943 172.753 427.49 172.909 427.016 173.008C426.547 173.107 425.977 173.156 425.305 173.156C424.43 173.156 423.654 172.995 422.977 172.672C422.305 172.349 421.776 171.857 421.391 171.195C421.01 170.534 420.82 169.701 420.82 168.695C420.82 167.674 420.992 166.826 421.336 166.148C421.685 165.466 422.169 164.956 422.789 164.617C423.409 164.273 424.13 164.102 424.953 164.102ZM424.969 165.797C424.505 165.797 424.12 165.945 423.812 166.242C423.51 166.539 423.336 167.005 423.289 167.641H426.633C426.628 167.286 426.562 166.971 426.438 166.695C426.318 166.419 426.135 166.201 425.891 166.039C425.651 165.878 425.344 165.797 424.969 165.797ZM435.664 164.102C436.648 164.102 437.443 164.484 438.047 165.25C438.656 166.016 438.961 167.138 438.961 168.617C438.961 169.607 438.818 170.44 438.531 171.117C438.245 171.789 437.849 172.297 437.344 172.641C436.839 172.984 436.258 173.156 435.602 173.156C435.18 173.156 434.818 173.104 434.516 173C434.214 172.891 433.956 172.753 433.742 172.586C433.529 172.414 433.344 172.232 433.188 172.039H433.062C433.104 172.247 433.135 172.461 433.156 172.68C433.177 172.898 433.188 173.112 433.188 173.32V176.844H430.805V164.266H432.742L433.078 165.398H433.188C433.344 165.164 433.534 164.948 433.758 164.75C433.982 164.552 434.25 164.396 434.562 164.281C434.88 164.161 435.247 164.102 435.664 164.102ZM434.898 166.008C434.482 166.008 434.151 166.094 433.906 166.266C433.661 166.438 433.482 166.695 433.367 167.039C433.258 167.383 433.198 167.818 433.188 168.344V168.602C433.188 169.164 433.24 169.641 433.344 170.031C433.453 170.422 433.633 170.719 433.883 170.922C434.138 171.125 434.487 171.227 434.93 171.227C435.294 171.227 435.594 171.125 435.828 170.922C436.062 170.719 436.237 170.422 436.352 170.031C436.471 169.635 436.531 169.154 436.531 168.586C436.531 167.732 436.398 167.089 436.133 166.656C435.867 166.224 435.456 166.008 434.898 166.008ZM444.609 171.258C444.87 171.258 445.122 171.232 445.367 171.18C445.617 171.128 445.865 171.062 446.109 170.984V172.758C445.854 172.872 445.536 172.966 445.156 173.039C444.781 173.117 444.37 173.156 443.922 173.156C443.401 173.156 442.932 173.073 442.516 172.906C442.104 172.734 441.779 172.44 441.539 172.023C441.305 171.602 441.188 171.016 441.188 170.266V166.055H440.047V165.047L441.359 164.25L442.047 162.406H443.57V164.266H446.016V166.055H443.57V170.266C443.57 170.599 443.664 170.849 443.852 171.016C444.044 171.177 444.297 171.258 444.609 171.258ZM450.266 164.266V173H447.883V164.266H450.266ZM449.078 160.844C449.432 160.844 449.737 160.927 449.992 161.094C450.247 161.255 450.375 161.56 450.375 162.008C450.375 162.451 450.247 162.758 449.992 162.93C449.737 163.096 449.432 163.18 449.078 163.18C448.719 163.18 448.411 163.096 448.156 162.93C447.906 162.758 447.781 162.451 447.781 162.008C447.781 161.56 447.906 161.255 448.156 161.094C448.411 160.927 448.719 160.844 449.078 160.844ZM460.711 168.617C460.711 169.346 460.612 169.992 460.414 170.555C460.221 171.117 459.938 171.594 459.562 171.984C459.193 172.37 458.745 172.661 458.219 172.859C457.698 173.057 457.109 173.156 456.453 173.156C455.839 173.156 455.273 173.057 454.758 172.859C454.247 172.661 453.802 172.37 453.422 171.984C453.047 171.594 452.755 171.117 452.547 170.555C452.344 169.992 452.242 169.346 452.242 168.617C452.242 167.648 452.414 166.828 452.758 166.156C453.102 165.484 453.591 164.974 454.227 164.625C454.862 164.276 455.62 164.102 456.5 164.102C457.318 164.102 458.042 164.276 458.672 164.625C459.307 164.974 459.805 165.484 460.164 166.156C460.529 166.828 460.711 167.648 460.711 168.617ZM454.672 168.617C454.672 169.19 454.734 169.672 454.859 170.062C454.984 170.453 455.18 170.747 455.445 170.945C455.711 171.143 456.057 171.242 456.484 171.242C456.906 171.242 457.247 171.143 457.508 170.945C457.773 170.747 457.966 170.453 458.086 170.062C458.211 169.672 458.273 169.19 458.273 168.617C458.273 168.039 458.211 167.56 458.086 167.18C457.966 166.794 457.773 166.505 457.508 166.312C457.242 166.12 456.896 166.023 456.469 166.023C455.839 166.023 455.38 166.24 455.094 166.672C454.812 167.104 454.672 167.753 454.672 168.617ZM467.641 164.102C468.573 164.102 469.323 164.357 469.891 164.867C470.458 165.372 470.742 166.185 470.742 167.305V173H468.359V167.898C468.359 167.273 468.245 166.802 468.016 166.484C467.792 166.167 467.438 166.008 466.953 166.008C466.224 166.008 465.727 166.255 465.461 166.75C465.195 167.245 465.062 167.958 465.062 168.891V173H462.68V164.266H464.5L464.82 165.383H464.953C465.141 165.081 465.372 164.836 465.648 164.648C465.93 164.461 466.24 164.323 466.578 164.234C466.922 164.146 467.276 164.102 467.641 164.102Z" fill="#005174"/>
<path d="M233.125 329.18C233.125 331.06 232.589 332.5 231.516 333.5C230.448 334.5 228.904 335 226.883 335H223.648V323.578H227.234C229.099 323.578 230.547 324.07 231.578 325.055C232.609 326.039 233.125 327.414 233.125 329.18ZM230.609 329.242C230.609 326.789 229.526 325.562 227.359 325.562H226.07V333H227.109C229.443 333 230.609 331.747 230.609 329.242ZM238.922 327.797C238.417 327.797 238.021 327.958 237.734 328.281C237.448 328.599 237.284 329.052 237.242 329.641H240.586C240.576 329.052 240.422 328.599 240.125 328.281C239.828 327.958 239.427 327.797 238.922 327.797ZM239.258 335.156C237.852 335.156 236.753 334.768 235.961 333.992C235.169 333.216 234.773 332.117 234.773 330.695C234.773 329.232 235.138 328.102 235.867 327.305C236.602 326.503 237.615 326.102 238.906 326.102C240.141 326.102 241.102 326.453 241.789 327.156C242.477 327.859 242.82 328.831 242.82 330.07V331.227H237.188C237.214 331.904 237.414 332.432 237.789 332.812C238.164 333.193 238.69 333.383 239.367 333.383C239.893 333.383 240.391 333.328 240.859 333.219C241.328 333.109 241.818 332.935 242.328 332.695V334.539C241.911 334.747 241.466 334.901 240.992 335C240.518 335.104 239.94 335.156 239.258 335.156ZM249.586 328.055H247.523V335H245.141V328.055H243.828V326.906L245.141 326.266V325.625C245.141 324.63 245.385 323.904 245.875 323.445C246.365 322.987 247.148 322.758 248.227 322.758C249.049 322.758 249.781 322.88 250.422 323.125L249.812 324.875C249.333 324.724 248.891 324.648 248.484 324.648C248.146 324.648 247.901 324.75 247.75 324.953C247.599 325.151 247.523 325.406 247.523 325.719V326.266H249.586V328.055ZM254.578 327.797C254.073 327.797 253.677 327.958 253.391 328.281C253.104 328.599 252.94 329.052 252.898 329.641H256.242C256.232 329.052 256.078 328.599 255.781 328.281C255.484 327.958 255.083 327.797 254.578 327.797ZM254.914 335.156C253.508 335.156 252.409 334.768 251.617 333.992C250.826 333.216 250.43 332.117 250.43 330.695C250.43 329.232 250.794 328.102 251.523 327.305C252.258 326.503 253.271 326.102 254.562 326.102C255.797 326.102 256.758 326.453 257.445 327.156C258.133 327.859 258.477 328.831 258.477 330.07V331.227H252.844C252.87 331.904 253.07 332.432 253.445 332.812C253.82 333.193 254.346 333.383 255.023 333.383C255.549 333.383 256.047 333.328 256.516 333.219C256.984 333.109 257.474 332.935 257.984 332.695V334.539C257.568 334.747 257.122 334.901 256.648 335C256.174 335.104 255.596 335.156 254.914 335.156ZM266.508 332.406C266.508 333.302 266.195 333.984 265.57 334.453C264.951 334.922 264.021 335.156 262.781 335.156C262.146 335.156 261.604 335.112 261.156 335.023C260.708 334.94 260.289 334.815 259.898 334.648V332.68C260.341 332.888 260.839 333.062 261.391 333.203C261.948 333.344 262.438 333.414 262.859 333.414C263.724 333.414 264.156 333.164 264.156 332.664C264.156 332.477 264.099 332.326 263.984 332.211C263.87 332.091 263.672 331.958 263.391 331.812C263.109 331.661 262.734 331.487 262.266 331.289C261.594 331.008 261.099 330.747 260.781 330.508C260.469 330.268 260.24 329.995 260.094 329.688C259.953 329.375 259.883 328.992 259.883 328.539C259.883 327.763 260.182 327.164 260.781 326.742C261.385 326.315 262.24 326.102 263.344 326.102C264.396 326.102 265.419 326.331 266.414 326.789L265.695 328.508C265.258 328.32 264.849 328.167 264.469 328.047C264.089 327.927 263.701 327.867 263.305 327.867C262.602 327.867 262.25 328.057 262.25 328.438C262.25 328.651 262.362 328.836 262.586 328.992C262.815 329.148 263.312 329.38 264.078 329.688C264.76 329.964 265.26 330.221 265.578 330.461C265.896 330.701 266.13 330.977 266.281 331.289C266.432 331.602 266.508 331.974 266.508 332.406ZM273.914 335L273.453 333.812H273.391C272.99 334.318 272.576 334.669 272.148 334.867C271.727 335.06 271.174 335.156 270.492 335.156C269.654 335.156 268.992 334.917 268.508 334.438C268.029 333.958 267.789 333.276 267.789 332.391C267.789 331.464 268.112 330.781 268.758 330.344C269.409 329.901 270.388 329.656 271.695 329.609L273.211 329.562V329.18C273.211 328.294 272.758 327.852 271.852 327.852C271.154 327.852 270.333 328.062 269.391 328.484L268.602 326.875C269.607 326.349 270.721 326.086 271.945 326.086C273.117 326.086 274.016 326.341 274.641 326.852C275.266 327.362 275.578 328.138 275.578 329.18V335H273.914ZM273.211 330.953L272.289 330.984C271.596 331.005 271.081 331.13 270.742 331.359C270.404 331.589 270.234 331.938 270.234 332.406C270.234 333.078 270.62 333.414 271.391 333.414C271.943 333.414 272.383 333.255 272.711 332.938C273.044 332.62 273.211 332.198 273.211 331.672V330.953ZM226.461 353.156C225.435 353.156 224.628 352.758 224.039 351.961C223.456 351.164 223.164 350.06 223.164 348.648C223.164 347.216 223.461 346.102 224.055 345.305C224.654 344.503 225.477 344.102 226.523 344.102C227.622 344.102 228.461 344.529 229.039 345.383H229.117C228.997 344.732 228.938 344.151 228.938 343.641V340.844H231.328V353H229.5L229.039 351.867H228.938C228.396 352.727 227.57 353.156 226.461 353.156ZM227.297 351.258C227.906 351.258 228.352 351.081 228.633 350.727C228.919 350.372 229.076 349.771 229.102 348.922V348.664C229.102 347.727 228.956 347.055 228.664 346.648C228.378 346.242 227.909 346.039 227.258 346.039C226.727 346.039 226.312 346.266 226.016 346.719C225.724 347.167 225.578 347.82 225.578 348.68C225.578 349.539 225.727 350.185 226.023 350.617C226.32 351.044 226.745 351.258 227.297 351.258ZM239.367 353L238.906 351.812H238.844C238.443 352.318 238.029 352.669 237.602 352.867C237.18 353.06 236.628 353.156 235.945 353.156C235.107 353.156 234.445 352.917 233.961 352.438C233.482 351.958 233.242 351.276 233.242 350.391C233.242 349.464 233.565 348.781 234.211 348.344C234.862 347.901 235.841 347.656 237.148 347.609L238.664 347.562V347.18C238.664 346.294 238.211 345.852 237.305 345.852C236.607 345.852 235.786 346.062 234.844 346.484L234.055 344.875C235.06 344.349 236.174 344.086 237.398 344.086C238.57 344.086 239.469 344.341 240.094 344.852C240.719 345.362 241.031 346.138 241.031 347.18V353H239.367ZM238.664 348.953L237.742 348.984C237.049 349.005 236.534 349.13 236.195 349.359C235.857 349.589 235.688 349.938 235.688 350.406C235.688 351.078 236.073 351.414 236.844 351.414C237.396 351.414 237.836 351.255 238.164 350.938C238.497 350.62 238.664 350.198 238.664 349.672V348.953ZM250.258 346.953H251.055C251.799 346.953 252.357 346.807 252.727 346.516C253.096 346.219 253.281 345.789 253.281 345.227C253.281 344.659 253.125 344.24 252.812 343.969C252.505 343.698 252.021 343.562 251.359 343.562H250.258V346.953ZM255.727 345.141C255.727 346.37 255.341 347.31 254.57 347.961C253.805 348.612 252.714 348.938 251.297 348.938H250.258V353H247.836V341.578H251.484C252.87 341.578 253.922 341.878 254.641 342.477C255.365 343.07 255.727 343.958 255.727 345.141ZM259.594 348.617C259.594 349.482 259.734 350.135 260.016 350.578C260.302 351.021 260.766 351.242 261.406 351.242C262.042 351.242 262.497 351.023 262.773 350.586C263.055 350.143 263.195 349.487 263.195 348.617C263.195 347.753 263.055 347.104 262.773 346.672C262.492 346.24 262.031 346.023 261.391 346.023C260.755 346.023 260.297 346.24 260.016 346.672C259.734 347.099 259.594 347.747 259.594 348.617ZM265.633 348.617C265.633 350.039 265.258 351.151 264.508 351.953C263.758 352.755 262.714 353.156 261.375 353.156C260.536 353.156 259.797 352.974 259.156 352.609C258.516 352.24 258.023 351.711 257.68 351.023C257.336 350.336 257.164 349.534 257.164 348.617C257.164 347.19 257.536 346.081 258.281 345.289C259.026 344.497 260.073 344.102 261.422 344.102C262.26 344.102 263 344.284 263.641 344.648C264.281 345.013 264.773 345.536 265.117 346.219C265.461 346.901 265.633 347.701 265.633 348.617ZM272.641 343.43C271.729 343.43 271.023 343.773 270.523 344.461C270.023 345.143 269.773 346.096 269.773 347.32C269.773 349.867 270.729 351.141 272.641 351.141C273.443 351.141 274.414 350.94 275.555 350.539V352.57C274.617 352.961 273.57 353.156 272.414 353.156C270.753 353.156 269.482 352.654 268.602 351.648C267.721 350.638 267.281 349.19 267.281 347.305C267.281 346.117 267.497 345.078 267.93 344.188C268.362 343.292 268.982 342.607 269.789 342.133C270.602 341.654 271.552 341.414 272.641 341.414C273.75 341.414 274.865 341.682 275.984 342.219L275.203 344.188C274.776 343.984 274.346 343.807 273.914 343.656C273.482 343.505 273.057 343.43 272.641 343.43Z" fill="#005174"/>
<path d="M354.625 329.18C354.625 331.06 354.089 332.5 353.016 333.5C351.948 334.5 350.404 335 348.383 335H345.148V323.578H348.734C350.599 323.578 352.047 324.07 353.078 325.055C354.109 326.039 354.625 327.414 354.625 329.18ZM352.109 329.242C352.109 326.789 351.026 325.562 348.859 325.562H347.57V333H348.609C350.943 333 352.109 331.747 352.109 329.242ZM360.422 327.797C359.917 327.797 359.521 327.958 359.234 328.281C358.948 328.599 358.784 329.052 358.742 329.641H362.086C362.076 329.052 361.922 328.599 361.625 328.281C361.328 327.958 360.927 327.797 360.422 327.797ZM360.758 335.156C359.352 335.156 358.253 334.768 357.461 333.992C356.669 333.216 356.273 332.117 356.273 330.695C356.273 329.232 356.638 328.102 357.367 327.305C358.102 326.503 359.115 326.102 360.406 326.102C361.641 326.102 362.602 326.453 363.289 327.156C363.977 327.859 364.32 328.831 364.32 330.07V331.227H358.688C358.714 331.904 358.914 332.432 359.289 332.812C359.664 333.193 360.19 333.383 360.867 333.383C361.393 333.383 361.891 333.328 362.359 333.219C362.828 333.109 363.318 332.935 363.828 332.695V334.539C363.411 334.747 362.966 334.901 362.492 335C362.018 335.104 361.44 335.156 360.758 335.156ZM371.086 328.055H369.023V335H366.641V328.055H365.328V326.906L366.641 326.266V325.625C366.641 324.63 366.885 323.904 367.375 323.445C367.865 322.987 368.648 322.758 369.727 322.758C370.549 322.758 371.281 322.88 371.922 323.125L371.312 324.875C370.833 324.724 370.391 324.648 369.984 324.648C369.646 324.648 369.401 324.75 369.25 324.953C369.099 325.151 369.023 325.406 369.023 325.719V326.266H371.086V328.055ZM376.078 327.797C375.573 327.797 375.177 327.958 374.891 328.281C374.604 328.599 374.44 329.052 374.398 329.641H377.742C377.732 329.052 377.578 328.599 377.281 328.281C376.984 327.958 376.583 327.797 376.078 327.797ZM376.414 335.156C375.008 335.156 373.909 334.768 373.117 333.992C372.326 333.216 371.93 332.117 371.93 330.695C371.93 329.232 372.294 328.102 373.023 327.305C373.758 326.503 374.771 326.102 376.062 326.102C377.297 326.102 378.258 326.453 378.945 327.156C379.633 327.859 379.977 328.831 379.977 330.07V331.227H374.344C374.37 331.904 374.57 332.432 374.945 332.812C375.32 333.193 375.846 333.383 376.523 333.383C377.049 333.383 377.547 333.328 378.016 333.219C378.484 333.109 378.974 332.935 379.484 332.695V334.539C379.068 334.747 378.622 334.901 378.148 335C377.674 335.104 377.096 335.156 376.414 335.156ZM388.008 332.406C388.008 333.302 387.695 333.984 387.07 334.453C386.451 334.922 385.521 335.156 384.281 335.156C383.646 335.156 383.104 335.112 382.656 335.023C382.208 334.94 381.789 334.815 381.398 334.648V332.68C381.841 332.888 382.339 333.062 382.891 333.203C383.448 333.344 383.938 333.414 384.359 333.414C385.224 333.414 385.656 333.164 385.656 332.664C385.656 332.477 385.599 332.326 385.484 332.211C385.37 332.091 385.172 331.958 384.891 331.812C384.609 331.661 384.234 331.487 383.766 331.289C383.094 331.008 382.599 330.747 382.281 330.508C381.969 330.268 381.74 329.995 381.594 329.688C381.453 329.375 381.383 328.992 381.383 328.539C381.383 327.763 381.682 327.164 382.281 326.742C382.885 326.315 383.74 326.102 384.844 326.102C385.896 326.102 386.919 326.331 387.914 326.789L387.195 328.508C386.758 328.32 386.349 328.167 385.969 328.047C385.589 327.927 385.201 327.867 384.805 327.867C384.102 327.867 383.75 328.057 383.75 328.438C383.75 328.651 383.862 328.836 384.086 328.992C384.315 329.148 384.812 329.38 385.578 329.688C386.26 329.964 386.76 330.221 387.078 330.461C387.396 330.701 387.63 330.977 387.781 331.289C387.932 331.602 388.008 331.974 388.008 332.406ZM395.414 335L394.953 333.812H394.891C394.49 334.318 394.076 334.669 393.648 334.867C393.227 335.06 392.674 335.156 391.992 335.156C391.154 335.156 390.492 334.917 390.008 334.438C389.529 333.958 389.289 333.276 389.289 332.391C389.289 331.464 389.612 330.781 390.258 330.344C390.909 329.901 391.888 329.656 393.195 329.609L394.711 329.562V329.18C394.711 328.294 394.258 327.852 393.352 327.852C392.654 327.852 391.833 328.062 390.891 328.484L390.102 326.875C391.107 326.349 392.221 326.086 393.445 326.086C394.617 326.086 395.516 326.341 396.141 326.852C396.766 327.362 397.078 328.138 397.078 329.18V335H395.414ZM394.711 330.953L393.789 330.984C393.096 331.005 392.581 331.13 392.242 331.359C391.904 331.589 391.734 331.938 391.734 332.406C391.734 333.078 392.12 333.414 392.891 333.414C393.443 333.414 393.883 333.255 394.211 332.938C394.544 332.62 394.711 332.198 394.711 331.672V330.953ZM345.148 353.156C344.122 353.156 343.315 352.758 342.727 351.961C342.143 351.164 341.852 350.06 341.852 348.648C341.852 347.216 342.148 346.102 342.742 345.305C343.341 344.503 344.164 344.102 345.211 344.102C346.31 344.102 347.148 344.529 347.727 345.383H347.805C347.685 344.732 347.625 344.151 347.625 343.641V340.844H350.016V353H348.188L347.727 351.867H347.625C347.083 352.727 346.258 353.156 345.148 353.156ZM345.984 351.258C346.594 351.258 347.039 351.081 347.32 350.727C347.607 350.372 347.763 349.771 347.789 348.922V348.664C347.789 347.727 347.643 347.055 347.352 346.648C347.065 346.242 346.596 346.039 345.945 346.039C345.414 346.039 345 346.266 344.703 346.719C344.411 347.167 344.266 347.82 344.266 348.68C344.266 349.539 344.414 350.185 344.711 350.617C345.008 351.044 345.432 351.258 345.984 351.258ZM354.406 348.617C354.406 349.482 354.547 350.135 354.828 350.578C355.115 351.021 355.578 351.242 356.219 351.242C356.854 351.242 357.31 351.023 357.586 350.586C357.867 350.143 358.008 349.487 358.008 348.617C358.008 347.753 357.867 347.104 357.586 346.672C357.305 346.24 356.844 346.023 356.203 346.023C355.568 346.023 355.109 346.24 354.828 346.672C354.547 347.099 354.406 347.747 354.406 348.617ZM360.445 348.617C360.445 350.039 360.07 351.151 359.32 351.953C358.57 352.755 357.526 353.156 356.188 353.156C355.349 353.156 354.609 352.974 353.969 352.609C353.328 352.24 352.836 351.711 352.492 351.023C352.148 350.336 351.977 349.534 351.977 348.617C351.977 347.19 352.349 346.081 353.094 345.289C353.839 344.497 354.885 344.102 356.234 344.102C357.073 344.102 357.812 344.284 358.453 344.648C359.094 345.013 359.586 345.536 359.93 346.219C360.273 346.901 360.445 347.701 360.445 348.617ZM371.594 353L368.844 344.039H368.773C368.872 345.862 368.922 347.078 368.922 347.688V353H366.758V341.578H370.055L372.758 350.312H372.805L375.672 341.578H378.969V353H376.711V347.594C376.711 347.339 376.714 347.044 376.719 346.711C376.729 346.378 376.766 345.492 376.828 344.055H376.758L373.812 353H371.594ZM388.367 341.578H390.812L386.93 353H384.289L380.414 341.578H382.859L385.008 348.375C385.128 348.776 385.25 349.245 385.375 349.781C385.505 350.312 385.586 350.682 385.617 350.891C385.674 350.411 385.87 349.573 386.203 348.375L388.367 341.578ZM394.68 346.953H395.477C396.221 346.953 396.779 346.807 397.148 346.516C397.518 346.219 397.703 345.789 397.703 345.227C397.703 344.659 397.547 344.24 397.234 343.969C396.927 343.698 396.443 343.562 395.781 343.562H394.68V346.953ZM400.148 345.141C400.148 346.37 399.763 347.31 398.992 347.961C398.227 348.612 397.135 348.938 395.719 348.938H394.68V353H392.258V341.578H395.906C397.292 341.578 398.344 341.878 399.062 342.477C399.786 343.07 400.148 343.958 400.148 345.141Z" fill="#005174"/>
<path d="M449.766 329.18C449.766 330.466 449.518 331.542 449.023 332.406C448.534 333.266 447.823 333.914 446.891 334.352C445.958 334.784 444.836 335 443.523 335H440.289V323.578H443.875C445.073 323.578 446.112 323.792 446.992 324.219C447.872 324.641 448.555 325.268 449.039 326.102C449.523 326.93 449.766 327.956 449.766 329.18ZM447.25 329.242C447.25 328.398 447.125 327.706 446.875 327.164C446.63 326.617 446.266 326.214 445.781 325.953C445.302 325.693 444.708 325.562 444 325.562H442.711V333H443.75C444.932 333 445.81 332.685 446.383 332.055C446.961 331.424 447.25 330.487 447.25 329.242ZM455.547 326.102C456.354 326.102 457.049 326.258 457.633 326.57C458.216 326.878 458.667 327.326 458.984 327.914C459.302 328.503 459.461 329.221 459.461 330.07V331.227H453.828C453.854 331.898 454.055 332.427 454.43 332.812C454.81 333.193 455.336 333.383 456.008 333.383C456.565 333.383 457.076 333.326 457.539 333.211C458.003 333.096 458.479 332.924 458.969 332.695V334.539C458.536 334.753 458.083 334.909 457.609 335.008C457.141 335.107 456.57 335.156 455.898 335.156C455.023 335.156 454.247 334.995 453.57 334.672C452.898 334.349 452.37 333.857 451.984 333.195C451.604 332.534 451.414 331.701 451.414 330.695C451.414 329.674 451.586 328.826 451.93 328.148C452.279 327.466 452.763 326.956 453.383 326.617C454.003 326.273 454.724 326.102 455.547 326.102ZM455.562 327.797C455.099 327.797 454.714 327.945 454.406 328.242C454.104 328.539 453.93 329.005 453.883 329.641H457.227C457.221 329.286 457.156 328.971 457.031 328.695C456.911 328.419 456.729 328.201 456.484 328.039C456.245 327.878 455.938 327.797 455.562 327.797ZM466.227 328.055H464.164V335H461.781V328.055H460.469V326.906L461.781 326.266V325.625C461.781 324.88 461.906 324.302 462.156 323.891C462.411 323.474 462.768 323.182 463.227 323.016C463.69 322.844 464.237 322.758 464.867 322.758C465.331 322.758 465.753 322.797 466.133 322.875C466.513 322.948 466.823 323.031 467.062 323.125L466.453 324.875C466.271 324.818 466.073 324.766 465.859 324.719C465.646 324.672 465.401 324.648 465.125 324.648C464.792 324.648 464.547 324.75 464.391 324.953C464.24 325.151 464.164 325.406 464.164 325.719V326.266H466.227V328.055ZM471.203 326.102C472.01 326.102 472.706 326.258 473.289 326.57C473.872 326.878 474.323 327.326 474.641 327.914C474.958 328.503 475.117 329.221 475.117 330.07V331.227H469.484C469.51 331.898 469.711 332.427 470.086 332.812C470.466 333.193 470.992 333.383 471.664 333.383C472.221 333.383 472.732 333.326 473.195 333.211C473.659 333.096 474.135 332.924 474.625 332.695V334.539C474.193 334.753 473.74 334.909 473.266 335.008C472.797 335.107 472.227 335.156 471.555 335.156C470.68 335.156 469.904 334.995 469.227 334.672C468.555 334.349 468.026 333.857 467.641 333.195C467.26 332.534 467.07 331.701 467.07 330.695C467.07 329.674 467.242 328.826 467.586 328.148C467.935 327.466 468.419 326.956 469.039 326.617C469.659 326.273 470.38 326.102 471.203 326.102ZM471.219 327.797C470.755 327.797 470.37 327.945 470.062 328.242C469.76 328.539 469.586 329.005 469.539 329.641H472.883C472.878 329.286 472.812 328.971 472.688 328.695C472.568 328.419 472.385 328.201 472.141 328.039C471.901 327.878 471.594 327.797 471.219 327.797ZM483.148 332.406C483.148 333 483.008 333.503 482.727 333.914C482.451 334.32 482.036 334.63 481.484 334.844C480.932 335.052 480.245 335.156 479.422 335.156C478.812 335.156 478.289 335.117 477.852 335.039C477.419 334.961 476.982 334.831 476.539 334.648V332.68C477.013 332.893 477.521 333.07 478.062 333.211C478.609 333.346 479.089 333.414 479.5 333.414C479.964 333.414 480.294 333.346 480.492 333.211C480.695 333.07 480.797 332.888 480.797 332.664C480.797 332.518 480.755 332.388 480.672 332.273C480.594 332.154 480.422 332.021 480.156 331.875C479.891 331.724 479.474 331.529 478.906 331.289C478.359 331.06 477.909 330.828 477.555 330.594C477.206 330.359 476.945 330.083 476.773 329.766C476.607 329.443 476.523 329.034 476.523 328.539C476.523 327.732 476.836 327.125 477.461 326.719C478.091 326.307 478.932 326.102 479.984 326.102C480.526 326.102 481.042 326.156 481.531 326.266C482.026 326.375 482.534 326.549 483.055 326.789L482.336 328.508C481.904 328.32 481.495 328.167 481.109 328.047C480.729 327.927 480.341 327.867 479.945 327.867C479.596 327.867 479.333 327.914 479.156 328.008C478.979 328.102 478.891 328.245 478.891 328.438C478.891 328.578 478.935 328.703 479.023 328.812C479.117 328.922 479.294 329.044 479.555 329.18C479.82 329.31 480.208 329.479 480.719 329.688C481.214 329.891 481.643 330.104 482.008 330.328C482.372 330.547 482.654 330.82 482.852 331.148C483.049 331.471 483.148 331.891 483.148 332.406ZM488.586 326.086C489.758 326.086 490.656 326.341 491.281 326.852C491.906 327.362 492.219 328.138 492.219 329.18V335H490.555L490.094 333.812H490.031C489.781 334.125 489.526 334.38 489.266 334.578C489.005 334.776 488.706 334.922 488.367 335.016C488.029 335.109 487.617 335.156 487.133 335.156C486.617 335.156 486.154 335.057 485.742 334.859C485.336 334.661 485.016 334.359 484.781 333.953C484.547 333.542 484.43 333.021 484.43 332.391C484.43 331.464 484.755 330.781 485.406 330.344C486.057 329.901 487.034 329.656 488.336 329.609L489.852 329.562V329.18C489.852 328.721 489.732 328.385 489.492 328.172C489.253 327.958 488.919 327.852 488.492 327.852C488.07 327.852 487.656 327.911 487.25 328.031C486.844 328.151 486.438 328.302 486.031 328.484L485.242 326.875C485.706 326.63 486.224 326.438 486.797 326.297C487.375 326.156 487.971 326.086 488.586 326.086ZM489.852 330.953L488.93 330.984C488.159 331.005 487.622 331.143 487.32 331.398C487.023 331.654 486.875 331.99 486.875 332.406C486.875 332.771 486.982 333.031 487.195 333.188C487.409 333.339 487.688 333.414 488.031 333.414C488.542 333.414 488.971 333.263 489.32 332.961C489.674 332.659 489.852 332.229 489.852 331.672V330.953ZM503.695 326.102C504.68 326.102 505.474 326.484 506.078 327.25C506.688 328.016 506.992 329.138 506.992 330.617C506.992 331.607 506.849 332.44 506.562 333.117C506.276 333.789 505.88 334.297 505.375 334.641C504.87 334.984 504.289 335.156 503.633 335.156C503.211 335.156 502.849 335.104 502.547 335C502.245 334.891 501.987 334.753 501.773 334.586C501.56 334.414 501.375 334.232 501.219 334.039H501.094C501.135 334.247 501.167 334.461 501.188 334.68C501.208 334.898 501.219 335.112 501.219 335.32V338.844H498.836V326.266H500.773L501.109 327.398H501.219C501.375 327.164 501.565 326.948 501.789 326.75C502.013 326.552 502.281 326.396 502.594 326.281C502.911 326.161 503.279 326.102 503.695 326.102ZM502.93 328.008C502.513 328.008 502.182 328.094 501.938 328.266C501.693 328.438 501.513 328.695 501.398 329.039C501.289 329.383 501.229 329.818 501.219 330.344V330.602C501.219 331.164 501.271 331.641 501.375 332.031C501.484 332.422 501.664 332.719 501.914 332.922C502.169 333.125 502.518 333.227 502.961 333.227C503.326 333.227 503.625 333.125 503.859 332.922C504.094 332.719 504.268 332.422 504.383 332.031C504.503 331.635 504.562 331.154 504.562 330.586C504.562 329.732 504.43 329.089 504.164 328.656C503.898 328.224 503.487 328.008 502.93 328.008ZM512.539 326.086C513.711 326.086 514.609 326.341 515.234 326.852C515.859 327.362 516.172 328.138 516.172 329.18V335H514.508L514.047 333.812H513.984C513.734 334.125 513.479 334.38 513.219 334.578C512.958 334.776 512.659 334.922 512.32 335.016C511.982 335.109 511.57 335.156 511.086 335.156C510.57 335.156 510.107 335.057 509.695 334.859C509.289 334.661 508.969 334.359 508.734 333.953C508.5 333.542 508.383 333.021 508.383 332.391C508.383 331.464 508.708 330.781 509.359 330.344C510.01 329.901 510.987 329.656 512.289 329.609L513.805 329.562V329.18C513.805 328.721 513.685 328.385 513.445 328.172C513.206 327.958 512.872 327.852 512.445 327.852C512.023 327.852 511.609 327.911 511.203 328.031C510.797 328.151 510.391 328.302 509.984 328.484L509.195 326.875C509.659 326.63 510.177 326.438 510.75 326.297C511.328 326.156 511.924 326.086 512.539 326.086ZM513.805 330.953L512.883 330.984C512.112 331.005 511.576 331.143 511.273 331.398C510.977 331.654 510.828 331.99 510.828 332.406C510.828 332.771 510.935 333.031 511.148 333.188C511.362 333.339 511.641 333.414 511.984 333.414C512.495 333.414 512.924 333.263 513.273 332.961C513.628 332.659 513.805 332.229 513.805 331.672V330.953ZM523.508 326.102C523.628 326.102 523.766 326.109 523.922 326.125C524.083 326.135 524.214 326.151 524.312 326.172L524.133 328.406C524.055 328.38 523.943 328.362 523.797 328.352C523.656 328.336 523.534 328.328 523.43 328.328C523.122 328.328 522.823 328.367 522.531 328.445C522.245 328.523 521.987 328.651 521.758 328.828C521.529 329 521.346 329.229 521.211 329.516C521.081 329.797 521.016 330.143 521.016 330.555V335H518.633V326.266H520.438L520.789 327.734H520.906C521.078 327.438 521.292 327.167 521.547 326.922C521.807 326.672 522.102 326.474 522.43 326.328C522.763 326.177 523.122 326.102 523.508 326.102ZM529.477 326.086C530.648 326.086 531.547 326.341 532.172 326.852C532.797 327.362 533.109 328.138 533.109 329.18V335H531.445L530.984 333.812H530.922C530.672 334.125 530.417 334.38 530.156 334.578C529.896 334.776 529.596 334.922 529.258 335.016C528.919 335.109 528.508 335.156 528.023 335.156C527.508 335.156 527.044 335.057 526.633 334.859C526.227 334.661 525.906 334.359 525.672 333.953C525.438 333.542 525.32 333.021 525.32 332.391C525.32 331.464 525.646 330.781 526.297 330.344C526.948 329.901 527.924 329.656 529.227 329.609L530.742 329.562V329.18C530.742 328.721 530.622 328.385 530.383 328.172C530.143 327.958 529.81 327.852 529.383 327.852C528.961 327.852 528.547 327.911 528.141 328.031C527.734 328.151 527.328 328.302 526.922 328.484L526.133 326.875C526.596 326.63 527.115 326.438 527.688 326.297C528.266 326.156 528.862 326.086 529.477 326.086ZM530.742 330.953L529.82 330.984C529.049 331.005 528.513 331.143 528.211 331.398C527.914 331.654 527.766 331.99 527.766 332.406C527.766 332.771 527.872 333.031 528.086 333.188C528.299 333.339 528.578 333.414 528.922 333.414C529.432 333.414 529.862 333.263 530.211 332.961C530.565 332.659 530.742 332.229 530.742 331.672V330.953ZM543.305 326.086C544.477 326.086 545.375 326.341 546 326.852C546.625 327.362 546.938 328.138 546.938 329.18V335H545.273L544.812 333.812H544.75C544.5 334.125 544.245 334.38 543.984 334.578C543.724 334.776 543.424 334.922 543.086 335.016C542.747 335.109 542.336 335.156 541.852 335.156C541.336 335.156 540.872 335.057 540.461 334.859C540.055 334.661 539.734 334.359 539.5 333.953C539.266 333.542 539.148 333.021 539.148 332.391C539.148 331.464 539.474 330.781 540.125 330.344C540.776 329.901 541.753 329.656 543.055 329.609L544.57 329.562V329.18C544.57 328.721 544.451 328.385 544.211 328.172C543.971 327.958 543.638 327.852 543.211 327.852C542.789 327.852 542.375 327.911 541.969 328.031C541.562 328.151 541.156 328.302 540.75 328.484L539.961 326.875C540.424 326.63 540.943 326.438 541.516 326.297C542.094 326.156 542.69 326.086 543.305 326.086ZM544.57 330.953L543.648 330.984C542.878 331.005 542.341 331.143 542.039 331.398C541.742 331.654 541.594 331.99 541.594 332.406C541.594 332.771 541.701 333.031 541.914 333.188C542.128 333.339 542.406 333.414 542.75 333.414C543.26 333.414 543.69 333.263 544.039 332.961C544.393 332.659 544.57 332.229 544.57 331.672V330.953ZM433.203 344.266V353H430.82V344.266H433.203ZM432.016 340.844C432.37 340.844 432.674 340.927 432.93 341.094C433.185 341.255 433.312 341.56 433.312 342.008C433.312 342.451 433.185 342.758 432.93 342.93C432.674 343.096 432.37 343.18 432.016 343.18C431.656 343.18 431.349 343.096 431.094 342.93C430.844 342.758 430.719 342.451 430.719 342.008C430.719 341.56 430.844 341.255 431.094 341.094C431.349 340.927 431.656 340.844 432.016 340.844ZM440.672 344.102C441.604 344.102 442.354 344.357 442.922 344.867C443.49 345.372 443.773 346.185 443.773 347.305V353H441.391V347.898C441.391 347.273 441.276 346.802 441.047 346.484C440.823 346.167 440.469 346.008 439.984 346.008C439.255 346.008 438.758 346.255 438.492 346.75C438.227 347.245 438.094 347.958 438.094 348.891V353H435.711V344.266H437.531L437.852 345.383H437.984C438.172 345.081 438.404 344.836 438.68 344.648C438.961 344.461 439.271 344.323 439.609 344.234C439.953 344.146 440.307 344.102 440.672 344.102ZM448.992 353.156C448.018 353.156 447.224 352.776 446.609 352.016C446 351.25 445.695 350.128 445.695 348.648C445.695 347.154 446.005 346.023 446.625 345.258C447.245 344.487 448.055 344.102 449.055 344.102C449.471 344.102 449.839 344.159 450.156 344.273C450.474 344.388 450.747 344.542 450.977 344.734C451.211 344.927 451.409 345.143 451.57 345.383H451.648C451.617 345.216 451.578 344.971 451.531 344.648C451.49 344.32 451.469 343.984 451.469 343.641V340.844H453.859V353H452.031L451.57 351.867H451.469C451.318 352.107 451.128 352.326 450.898 352.523C450.674 352.716 450.406 352.87 450.094 352.984C449.781 353.099 449.414 353.156 448.992 353.156ZM449.828 351.258C450.479 351.258 450.938 351.065 451.203 350.68C451.474 350.289 451.617 349.703 451.633 348.922V348.664C451.633 347.815 451.503 347.167 451.242 346.719C450.982 346.266 450.497 346.039 449.789 346.039C449.263 346.039 448.852 346.266 448.555 346.719C448.258 347.172 448.109 347.826 448.109 348.68C448.109 349.534 448.258 350.177 448.555 350.609C448.857 351.042 449.281 351.258 449.828 351.258ZM464.367 344.266V353H462.539L462.219 351.883H462.094C461.906 352.18 461.672 352.422 461.391 352.609C461.109 352.797 460.799 352.935 460.461 353.023C460.122 353.112 459.771 353.156 459.406 353.156C458.781 353.156 458.237 353.047 457.773 352.828C457.31 352.604 456.948 352.258 456.688 351.789C456.432 351.32 456.305 350.711 456.305 349.961V344.266H458.688V349.367C458.688 349.992 458.799 350.464 459.023 350.781C459.247 351.099 459.604 351.258 460.094 351.258C460.578 351.258 460.958 351.148 461.234 350.93C461.51 350.706 461.703 350.38 461.812 349.953C461.927 349.521 461.984 348.995 461.984 348.375V344.266H464.367ZM472.961 350.406C472.961 351 472.82 351.503 472.539 351.914C472.263 352.32 471.849 352.63 471.297 352.844C470.745 353.052 470.057 353.156 469.234 353.156C468.625 353.156 468.102 353.117 467.664 353.039C467.232 352.961 466.794 352.831 466.352 352.648V350.68C466.826 350.893 467.333 351.07 467.875 351.211C468.422 351.346 468.901 351.414 469.312 351.414C469.776 351.414 470.107 351.346 470.305 351.211C470.508 351.07 470.609 350.888 470.609 350.664C470.609 350.518 470.568 350.388 470.484 350.273C470.406 350.154 470.234 350.021 469.969 349.875C469.703 349.724 469.286 349.529 468.719 349.289C468.172 349.06 467.721 348.828 467.367 348.594C467.018 348.359 466.758 348.083 466.586 347.766C466.419 347.443 466.336 347.034 466.336 346.539C466.336 345.732 466.648 345.125 467.273 344.719C467.904 344.307 468.745 344.102 469.797 344.102C470.339 344.102 470.854 344.156 471.344 344.266C471.839 344.375 472.346 344.549 472.867 344.789L472.148 346.508C471.716 346.32 471.307 346.167 470.922 346.047C470.542 345.927 470.154 345.867 469.758 345.867C469.409 345.867 469.146 345.914 468.969 346.008C468.792 346.102 468.703 346.245 468.703 346.438C468.703 346.578 468.747 346.703 468.836 346.812C468.93 346.922 469.107 347.044 469.367 347.18C469.633 347.31 470.021 347.479 470.531 347.688C471.026 347.891 471.456 348.104 471.82 348.328C472.185 348.547 472.466 348.82 472.664 349.148C472.862 349.471 472.961 349.891 472.961 350.406ZM478.5 351.258C478.76 351.258 479.013 351.232 479.258 351.18C479.508 351.128 479.755 351.062 480 350.984V352.758C479.745 352.872 479.427 352.966 479.047 353.039C478.672 353.117 478.26 353.156 477.812 353.156C477.292 353.156 476.823 353.073 476.406 352.906C475.995 352.734 475.669 352.44 475.43 352.023C475.195 351.602 475.078 351.016 475.078 350.266V346.055H473.938V345.047L475.25 344.25L475.938 342.406H477.461V344.266H479.906V346.055H477.461V350.266C477.461 350.599 477.555 350.849 477.742 351.016C477.935 351.177 478.188 351.258 478.5 351.258ZM486.648 344.102C486.768 344.102 486.906 344.109 487.062 344.125C487.224 344.135 487.354 344.151 487.453 344.172L487.273 346.406C487.195 346.38 487.083 346.362 486.938 346.352C486.797 346.336 486.674 346.328 486.57 346.328C486.263 346.328 485.964 346.367 485.672 346.445C485.385 346.523 485.128 346.651 484.898 346.828C484.669 347 484.487 347.229 484.352 347.516C484.221 347.797 484.156 348.143 484.156 348.555V353H481.773V344.266H483.578L483.93 345.734H484.047C484.219 345.438 484.432 345.167 484.688 344.922C484.948 344.672 485.242 344.474 485.57 344.328C485.904 344.177 486.263 344.102 486.648 344.102ZM491.422 344.266V353H489.039V344.266H491.422ZM490.234 340.844C490.589 340.844 490.893 340.927 491.148 341.094C491.404 341.255 491.531 341.56 491.531 342.008C491.531 342.451 491.404 342.758 491.148 342.93C490.893 343.096 490.589 343.18 490.234 343.18C489.875 343.18 489.568 343.096 489.312 342.93C489.062 342.758 488.938 342.451 488.938 342.008C488.938 341.56 489.062 341.255 489.312 341.094C489.568 340.927 489.875 340.844 490.234 340.844ZM497.508 344.086C498.68 344.086 499.578 344.341 500.203 344.852C500.828 345.362 501.141 346.138 501.141 347.18V353H499.477L499.016 351.812H498.953C498.703 352.125 498.448 352.38 498.188 352.578C497.927 352.776 497.628 352.922 497.289 353.016C496.951 353.109 496.539 353.156 496.055 353.156C495.539 353.156 495.076 353.057 494.664 352.859C494.258 352.661 493.938 352.359 493.703 351.953C493.469 351.542 493.352 351.021 493.352 350.391C493.352 349.464 493.677 348.781 494.328 348.344C494.979 347.901 495.956 347.656 497.258 347.609L498.773 347.562V347.18C498.773 346.721 498.654 346.385 498.414 346.172C498.174 345.958 497.841 345.852 497.414 345.852C496.992 345.852 496.578 345.911 496.172 346.031C495.766 346.151 495.359 346.302 494.953 346.484L494.164 344.875C494.628 344.63 495.146 344.438 495.719 344.297C496.297 344.156 496.893 344.086 497.508 344.086ZM498.773 348.953L497.852 348.984C497.081 349.005 496.544 349.143 496.242 349.398C495.945 349.654 495.797 349.99 495.797 350.406C495.797 350.771 495.904 351.031 496.117 351.188C496.331 351.339 496.609 351.414 496.953 351.414C497.464 351.414 497.893 351.263 498.242 350.961C498.596 350.659 498.773 350.229 498.773 349.672V348.953ZM505.984 353H503.602V340.844H505.984V353ZM510.875 344.266V353H508.492V344.266H510.875ZM509.688 340.844C510.042 340.844 510.346 340.927 510.602 341.094C510.857 341.255 510.984 341.56 510.984 342.008C510.984 342.451 510.857 342.758 510.602 342.93C510.346 343.096 510.042 343.18 509.688 343.18C509.328 343.18 509.021 343.096 508.766 342.93C508.516 342.758 508.391 342.451 508.391 342.008C508.391 341.56 508.516 341.255 508.766 341.094C509.021 340.927 509.328 340.844 509.688 340.844ZM519.461 353H512.562V351.594L516.609 346.086H512.805V344.266H519.32V345.812L515.383 351.18H519.461V353ZM524.773 344.086C525.945 344.086 526.844 344.341 527.469 344.852C528.094 345.362 528.406 346.138 528.406 347.18V353H526.742L526.281 351.812H526.219C525.969 352.125 525.714 352.38 525.453 352.578C525.193 352.776 524.893 352.922 524.555 353.016C524.216 353.109 523.805 353.156 523.32 353.156C522.805 353.156 522.341 353.057 521.93 352.859C521.523 352.661 521.203 352.359 520.969 351.953C520.734 351.542 520.617 351.021 520.617 350.391C520.617 349.464 520.943 348.781 521.594 348.344C522.245 347.901 523.221 347.656 524.523 347.609L526.039 347.562V347.18C526.039 346.721 525.919 346.385 525.68 346.172C525.44 345.958 525.107 345.852 524.68 345.852C524.258 345.852 523.844 345.911 523.438 346.031C523.031 346.151 522.625 346.302 522.219 346.484L521.43 344.875C521.893 344.63 522.411 344.438 522.984 344.297C523.562 344.156 524.159 344.086 524.773 344.086ZM526.039 348.953L525.117 348.984C524.346 349.005 523.81 349.143 523.508 349.398C523.211 349.654 523.062 349.99 523.062 350.406C523.062 350.771 523.169 351.031 523.383 351.188C523.596 351.339 523.875 351.414 524.219 351.414C524.729 351.414 525.159 351.263 525.508 350.961C525.862 350.659 526.039 350.229 526.039 349.672V348.953ZM534.414 353.156C533.549 353.156 532.812 353 532.203 352.688C531.594 352.37 531.13 351.88 530.812 351.219C530.495 350.557 530.336 349.711 530.336 348.68C530.336 347.612 530.516 346.742 530.875 346.07C531.24 345.393 531.742 344.896 532.383 344.578C533.029 344.26 533.776 344.102 534.625 344.102C535.229 344.102 535.75 344.161 536.188 344.281C536.63 344.396 537.016 344.534 537.344 344.695L536.641 346.539C536.266 346.388 535.917 346.266 535.594 346.172C535.271 346.073 534.948 346.023 534.625 346.023C534.208 346.023 533.862 346.122 533.586 346.32C533.31 346.513 533.104 346.805 532.969 347.195C532.833 347.586 532.766 348.076 532.766 348.664C532.766 349.242 532.839 349.721 532.984 350.102C533.13 350.482 533.341 350.766 533.617 350.953C533.893 351.135 534.229 351.227 534.625 351.227C535.12 351.227 535.56 351.161 535.945 351.031C536.331 350.896 536.706 350.708 537.07 350.469V352.508C536.706 352.737 536.323 352.901 535.922 353C535.526 353.104 535.023 353.156 534.414 353.156ZM536.133 354.953C536.133 355.552 535.958 356.016 535.609 356.344C535.26 356.677 534.63 356.844 533.719 356.844C533.484 356.844 533.273 356.828 533.086 356.797C532.898 356.766 532.729 356.727 532.578 356.68V355.367C532.729 355.404 532.914 355.44 533.133 355.477C533.352 355.513 533.539 355.531 533.695 355.531C533.846 355.531 533.977 355.495 534.086 355.422C534.201 355.354 534.258 355.229 534.258 355.047C534.258 354.854 534.161 354.682 533.969 354.531C533.776 354.38 533.44 354.271 532.961 354.203L533.57 353H535.078L534.867 353.477C535.081 353.544 535.284 353.643 535.477 353.773C535.669 353.909 535.826 354.073 535.945 354.266C536.07 354.464 536.133 354.693 536.133 354.953ZM542.68 344.086C543.852 344.086 544.75 344.341 545.375 344.852C546 345.362 546.312 346.138 546.312 347.18V353H544.648L544.188 351.812H544.125C543.875 352.125 543.62 352.38 543.359 352.578C543.099 352.776 542.799 352.922 542.461 353.016C542.122 353.109 541.711 353.156 541.227 353.156C540.711 353.156 540.247 353.057 539.836 352.859C539.43 352.661 539.109 352.359 538.875 351.953C538.641 351.542 538.523 351.021 538.523 350.391C538.523 349.464 538.849 348.781 539.5 348.344C540.151 347.901 541.128 347.656 542.43 347.609L543.945 347.562V347.18C543.945 346.721 543.826 346.385 543.586 346.172C543.346 345.958 543.013 345.852 542.586 345.852C542.164 345.852 541.75 345.911 541.344 346.031C540.938 346.151 540.531 346.302 540.125 346.484L539.336 344.875C539.799 344.63 540.318 344.438 540.891 344.297C541.469 344.156 542.065 344.086 542.68 344.086ZM543.945 348.953L543.023 348.984C542.253 349.005 541.716 349.143 541.414 349.398C541.117 349.654 540.969 349.99 540.969 350.406C540.969 350.771 541.076 351.031 541.289 351.188C541.503 351.339 541.781 351.414 542.125 351.414C542.635 351.414 543.065 351.263 543.414 350.961C543.768 350.659 543.945 350.229 543.945 349.672V348.953ZM539.438 343.32C539.469 342.904 539.544 342.544 539.664 342.242C539.784 341.935 539.94 341.685 540.133 341.492C540.326 341.294 540.542 341.148 540.781 341.055C541.026 340.956 541.286 340.906 541.562 340.906C541.776 340.906 541.984 340.948 542.188 341.031C542.396 341.109 542.599 341.203 542.797 341.312C543 341.422 543.198 341.518 543.391 341.602C543.589 341.68 543.781 341.719 543.969 341.719C544.125 341.719 544.276 341.651 544.422 341.516C544.573 341.375 544.682 341.167 544.75 340.891H545.914C545.852 341.714 545.617 342.323 545.211 342.719C544.805 343.109 544.331 343.305 543.789 343.305C543.576 343.305 543.365 343.263 543.156 343.18C542.953 343.096 542.75 343.003 542.547 342.898C542.349 342.789 542.154 342.693 541.961 342.609C541.768 342.526 541.578 342.484 541.391 342.484C541.229 342.484 541.073 342.555 540.922 342.695C540.776 342.831 540.669 343.039 540.602 343.32H539.438ZM556.711 348.617C556.711 349.346 556.612 349.992 556.414 350.555C556.221 351.117 555.938 351.594 555.562 351.984C555.193 352.37 554.745 352.661 554.219 352.859C553.698 353.057 553.109 353.156 552.453 353.156C551.839 353.156 551.273 353.057 550.758 352.859C550.247 352.661 549.802 352.37 549.422 351.984C549.047 351.594 548.755 351.117 548.547 350.555C548.344 349.992 548.242 349.346 548.242 348.617C548.242 347.648 548.414 346.828 548.758 346.156C549.102 345.484 549.591 344.974 550.227 344.625C550.862 344.276 551.62 344.102 552.5 344.102C553.318 344.102 554.042 344.276 554.672 344.625C555.307 344.974 555.805 345.484 556.164 346.156C556.529 346.828 556.711 347.648 556.711 348.617ZM550.672 348.617C550.672 349.19 550.734 349.672 550.859 350.062C550.984 350.453 551.18 350.747 551.445 350.945C551.711 351.143 552.057 351.242 552.484 351.242C552.906 351.242 553.247 351.143 553.508 350.945C553.773 350.747 553.966 350.453 554.086 350.062C554.211 349.672 554.273 349.19 554.273 348.617C554.273 348.039 554.211 347.56 554.086 347.18C553.966 346.794 553.773 346.505 553.508 346.312C553.242 346.12 552.896 346.023 552.469 346.023C551.839 346.023 551.38 346.24 551.094 346.672C550.812 347.104 550.672 347.753 550.672 348.617Z" fill="#005174"/>
<path d="M538.312 155H535.93V143.578H542.477V145.562H538.312V148.508H542.188V150.484H538.312V155ZM550.07 155L549.609 153.812H549.547C549.146 154.318 548.732 154.669 548.305 154.867C547.883 155.06 547.331 155.156 546.648 155.156C545.81 155.156 545.148 154.917 544.664 154.438C544.185 153.958 543.945 153.276 543.945 152.391C543.945 151.464 544.268 150.781 544.914 150.344C545.565 149.901 546.544 149.656 547.852 149.609L549.367 149.562V149.18C549.367 148.294 548.914 147.852 548.008 147.852C547.31 147.852 546.49 148.062 545.547 148.484L544.758 146.875C545.763 146.349 546.878 146.086 548.102 146.086C549.273 146.086 550.172 146.341 550.797 146.852C551.422 147.362 551.734 148.138 551.734 149.18V155H550.07ZM549.367 150.953L548.445 150.984C547.753 151.005 547.237 151.13 546.898 151.359C546.56 151.589 546.391 151.938 546.391 152.406C546.391 153.078 546.776 153.414 547.547 153.414C548.099 153.414 548.539 153.255 548.867 152.938C549.201 152.62 549.367 152.198 549.367 151.672V150.953ZM560.289 152.406C560.289 153.302 559.977 153.984 559.352 154.453C558.732 154.922 557.802 155.156 556.562 155.156C555.927 155.156 555.385 155.112 554.938 155.023C554.49 154.94 554.07 154.815 553.68 154.648V152.68C554.122 152.888 554.62 153.062 555.172 153.203C555.729 153.344 556.219 153.414 556.641 153.414C557.505 153.414 557.938 153.164 557.938 152.664C557.938 152.477 557.88 152.326 557.766 152.211C557.651 152.091 557.453 151.958 557.172 151.812C556.891 151.661 556.516 151.487 556.047 151.289C555.375 151.008 554.88 150.747 554.562 150.508C554.25 150.268 554.021 149.995 553.875 149.688C553.734 149.375 553.664 148.992 553.664 148.539C553.664 147.763 553.964 147.164 554.562 146.742C555.167 146.315 556.021 146.102 557.125 146.102C558.177 146.102 559.201 146.331 560.195 146.789L559.477 148.508C559.039 148.32 558.63 148.167 558.25 148.047C557.87 147.927 557.482 147.867 557.086 147.867C556.383 147.867 556.031 148.057 556.031 148.438C556.031 148.651 556.143 148.836 556.367 148.992C556.596 149.148 557.094 149.38 557.859 149.688C558.542 149.964 559.042 150.221 559.359 150.461C559.677 150.701 559.911 150.977 560.062 151.289C560.214 151.602 560.289 151.974 560.289 152.406ZM565.766 147.797C565.26 147.797 564.865 147.958 564.578 148.281C564.292 148.599 564.128 149.052 564.086 149.641H567.43C567.419 149.052 567.266 148.599 566.969 148.281C566.672 147.958 566.271 147.797 565.766 147.797ZM566.102 155.156C564.695 155.156 563.596 154.768 562.805 153.992C562.013 153.216 561.617 152.117 561.617 150.695C561.617 149.232 561.982 148.102 562.711 147.305C563.445 146.503 564.458 146.102 565.75 146.102C566.984 146.102 567.945 146.453 568.633 147.156C569.32 147.859 569.664 148.831 569.664 150.07V151.227H564.031C564.057 151.904 564.258 152.432 564.633 152.812C565.008 153.193 565.534 153.383 566.211 153.383C566.737 153.383 567.234 153.328 567.703 153.219C568.172 153.109 568.661 152.935 569.172 152.695V154.539C568.755 154.747 568.31 154.901 567.836 155C567.362 155.104 566.784 155.156 566.102 155.156ZM505.523 173V161.578H507.945V173H505.523ZM518.695 173H516.312V167.898C516.312 167.268 516.201 166.797 515.977 166.484C515.753 166.167 515.396 166.008 514.906 166.008C514.24 166.008 513.758 166.232 513.461 166.68C513.164 167.122 513.016 167.859 513.016 168.891V173H510.633V164.266H512.453L512.773 165.383H512.906C513.172 164.961 513.536 164.643 514 164.43C514.469 164.211 515 164.102 515.594 164.102C516.609 164.102 517.38 164.378 517.906 164.93C518.432 165.477 518.695 166.268 518.695 167.305V173ZM524.828 171.258C525.245 171.258 525.745 171.167 526.328 170.984V172.758C525.734 173.023 525.005 173.156 524.141 173.156C523.188 173.156 522.492 172.917 522.055 172.438C521.622 171.953 521.406 171.229 521.406 170.266V166.055H520.266V165.047L521.578 164.25L522.266 162.406H523.789V164.266H526.234V166.055H523.789V170.266C523.789 170.604 523.883 170.854 524.07 171.016C524.263 171.177 524.516 171.258 524.828 171.258ZM531.719 165.797C531.214 165.797 530.818 165.958 530.531 166.281C530.245 166.599 530.081 167.052 530.039 167.641H533.383C533.372 167.052 533.219 166.599 532.922 166.281C532.625 165.958 532.224 165.797 531.719 165.797ZM532.055 173.156C530.648 173.156 529.549 172.768 528.758 171.992C527.966 171.216 527.57 170.117 527.57 168.695C527.57 167.232 527.935 166.102 528.664 165.305C529.398 164.503 530.411 164.102 531.703 164.102C532.938 164.102 533.898 164.453 534.586 165.156C535.273 165.859 535.617 166.831 535.617 168.07V169.227H529.984C530.01 169.904 530.211 170.432 530.586 170.812C530.961 171.193 531.487 171.383 532.164 171.383C532.69 171.383 533.188 171.328 533.656 171.219C534.125 171.109 534.615 170.935 535.125 170.695V172.539C534.708 172.747 534.263 172.901 533.789 173C533.315 173.104 532.737 173.156 532.055 173.156ZM542.43 164.102C542.753 164.102 543.021 164.125 543.234 164.172L543.055 166.406C542.862 166.354 542.628 166.328 542.352 166.328C541.591 166.328 540.997 166.523 540.57 166.914C540.148 167.305 539.938 167.852 539.938 168.555V173H537.555V164.266H539.359L539.711 165.734H539.828C540.099 165.245 540.464 164.852 540.922 164.555C541.385 164.253 541.888 164.102 542.43 164.102ZM546.898 173L543.57 164.266H546.062L547.75 169.242C547.938 169.872 548.055 170.469 548.102 171.031H548.148C548.174 170.531 548.292 169.935 548.5 169.242L550.18 164.266H552.672L549.344 173H546.898ZM557.547 165.797C557.042 165.797 556.646 165.958 556.359 166.281C556.073 166.599 555.909 167.052 555.867 167.641H559.211C559.201 167.052 559.047 166.599 558.75 166.281C558.453 165.958 558.052 165.797 557.547 165.797ZM557.883 173.156C556.477 173.156 555.378 172.768 554.586 171.992C553.794 171.216 553.398 170.117 553.398 168.695C553.398 167.232 553.763 166.102 554.492 165.305C555.227 164.503 556.24 164.102 557.531 164.102C558.766 164.102 559.727 164.453 560.414 165.156C561.102 165.859 561.445 166.831 561.445 168.07V169.227H555.812C555.839 169.904 556.039 170.432 556.414 170.812C556.789 171.193 557.315 171.383 557.992 171.383C558.518 171.383 559.016 171.328 559.484 171.219C559.953 171.109 560.443 170.935 560.953 170.695V172.539C560.536 172.747 560.091 172.901 559.617 173C559.143 173.104 558.565 173.156 557.883 173.156ZM571.445 173H569.062V167.898C569.062 167.268 568.951 166.797 568.727 166.484C568.503 166.167 568.146 166.008 567.656 166.008C566.99 166.008 566.508 166.232 566.211 166.68C565.914 167.122 565.766 167.859 565.766 168.891V173H563.383V164.266H565.203L565.523 165.383H565.656C565.922 164.961 566.286 164.643 566.75 164.43C567.219 164.211 567.75 164.102 568.344 164.102C569.359 164.102 570.13 164.378 570.656 164.93C571.182 165.477 571.445 166.268 571.445 167.305V173ZM577.578 171.258C577.995 171.258 578.495 171.167 579.078 170.984V172.758C578.484 173.023 577.755 173.156 576.891 173.156C575.938 173.156 575.242 172.917 574.805 172.438C574.372 171.953 574.156 171.229 574.156 170.266V166.055H573.016V165.047L574.328 164.25L575.016 162.406H576.539V164.266H578.984V166.055H576.539V170.266C576.539 170.604 576.633 170.854 576.82 171.016C577.013 171.177 577.266 171.258 577.578 171.258ZM580.75 162.008C580.75 161.232 581.182 160.844 582.047 160.844C582.911 160.844 583.344 161.232 583.344 162.008C583.344 162.378 583.234 162.667 583.016 162.875C582.802 163.078 582.479 163.18 582.047 163.18C581.182 163.18 580.75 162.789 580.75 162.008ZM583.234 173H580.852V164.266H583.234V173ZM587.641 168.617C587.641 169.482 587.781 170.135 588.062 170.578C588.349 171.021 588.812 171.242 589.453 171.242C590.089 171.242 590.544 171.023 590.82 170.586C591.102 170.143 591.242 169.487 591.242 168.617C591.242 167.753 591.102 167.104 590.82 166.672C590.539 166.24 590.078 166.023 589.438 166.023C588.802 166.023 588.344 166.24 588.062 166.672C587.781 167.099 587.641 167.747 587.641 168.617ZM593.68 168.617C593.68 170.039 593.305 171.151 592.555 171.953C591.805 172.755 590.76 173.156 589.422 173.156C588.583 173.156 587.844 172.974 587.203 172.609C586.562 172.24 586.07 171.711 585.727 171.023C585.383 170.336 585.211 169.534 585.211 168.617C585.211 167.19 585.583 166.081 586.328 165.289C587.073 164.497 588.12 164.102 589.469 164.102C590.307 164.102 591.047 164.284 591.688 164.648C592.328 165.013 592.82 165.536 593.164 166.219C593.508 166.901 593.68 167.701 593.68 168.617ZM603.711 173H601.328V167.898C601.328 167.268 601.216 166.797 600.992 166.484C600.768 166.167 600.411 166.008 599.922 166.008C599.255 166.008 598.773 166.232 598.477 166.68C598.18 167.122 598.031 167.859 598.031 168.891V173H595.648V164.266H597.469L597.789 165.383H597.922C598.188 164.961 598.552 164.643 599.016 164.43C599.484 164.211 600.016 164.102 600.609 164.102C601.625 164.102 602.396 164.378 602.922 164.93C603.448 165.477 603.711 166.268 603.711 167.305V173Z" fill="#005174"/>
<path d="M669.812 155H667.43V143.578H673.977V145.562H669.812V148.508H673.688V150.484H669.812V155ZM681.57 155L681.109 153.812H681.047C680.646 154.318 680.232 154.669 679.805 154.867C679.383 155.06 678.831 155.156 678.148 155.156C677.31 155.156 676.648 154.917 676.164 154.438C675.685 153.958 675.445 153.276 675.445 152.391C675.445 151.464 675.768 150.781 676.414 150.344C677.065 149.901 678.044 149.656 679.352 149.609L680.867 149.562V149.18C680.867 148.294 680.414 147.852 679.508 147.852C678.81 147.852 677.99 148.062 677.047 148.484L676.258 146.875C677.263 146.349 678.378 146.086 679.602 146.086C680.773 146.086 681.672 146.341 682.297 146.852C682.922 147.362 683.234 148.138 683.234 149.18V155H681.57ZM680.867 150.953L679.945 150.984C679.253 151.005 678.737 151.13 678.398 151.359C678.06 151.589 677.891 151.938 677.891 152.406C677.891 153.078 678.276 153.414 679.047 153.414C679.599 153.414 680.039 153.255 680.367 152.938C680.701 152.62 680.867 152.198 680.867 151.672V150.953ZM691.789 152.406C691.789 153.302 691.477 153.984 690.852 154.453C690.232 154.922 689.302 155.156 688.062 155.156C687.427 155.156 686.885 155.112 686.438 155.023C685.99 154.94 685.57 154.815 685.18 154.648V152.68C685.622 152.888 686.12 153.062 686.672 153.203C687.229 153.344 687.719 153.414 688.141 153.414C689.005 153.414 689.438 153.164 689.438 152.664C689.438 152.477 689.38 152.326 689.266 152.211C689.151 152.091 688.953 151.958 688.672 151.812C688.391 151.661 688.016 151.487 687.547 151.289C686.875 151.008 686.38 150.747 686.062 150.508C685.75 150.268 685.521 149.995 685.375 149.688C685.234 149.375 685.164 148.992 685.164 148.539C685.164 147.763 685.464 147.164 686.062 146.742C686.667 146.315 687.521 146.102 688.625 146.102C689.677 146.102 690.701 146.331 691.695 146.789L690.977 148.508C690.539 148.32 690.13 148.167 689.75 148.047C689.37 147.927 688.982 147.867 688.586 147.867C687.883 147.867 687.531 148.057 687.531 148.438C687.531 148.651 687.643 148.836 687.867 148.992C688.096 149.148 688.594 149.38 689.359 149.688C690.042 149.964 690.542 150.221 690.859 150.461C691.177 150.701 691.411 150.977 691.562 151.289C691.714 151.602 691.789 151.974 691.789 152.406ZM697.266 147.797C696.76 147.797 696.365 147.958 696.078 148.281C695.792 148.599 695.628 149.052 695.586 149.641H698.93C698.919 149.052 698.766 148.599 698.469 148.281C698.172 147.958 697.771 147.797 697.266 147.797ZM697.602 155.156C696.195 155.156 695.096 154.768 694.305 153.992C693.513 153.216 693.117 152.117 693.117 150.695C693.117 149.232 693.482 148.102 694.211 147.305C694.945 146.503 695.958 146.102 697.25 146.102C698.484 146.102 699.445 146.453 700.133 147.156C700.82 147.859 701.164 148.831 701.164 150.07V151.227H695.531C695.557 151.904 695.758 152.432 696.133 152.812C696.508 153.193 697.034 153.383 697.711 153.383C698.237 153.383 698.734 153.328 699.203 153.219C699.672 153.109 700.161 152.935 700.672 152.695V154.539C700.255 154.747 699.81 154.901 699.336 155C698.862 155.104 698.284 155.156 697.602 155.156ZM630.805 173V161.578H633.227V173H630.805ZM643.977 173H641.594V167.898C641.594 167.268 641.482 166.797 641.258 166.484C641.034 166.167 640.677 166.008 640.188 166.008C639.521 166.008 639.039 166.232 638.742 166.68C638.445 167.122 638.297 167.859 638.297 168.891V173H635.914V164.266H637.734L638.055 165.383H638.188C638.453 164.961 638.818 164.643 639.281 164.43C639.75 164.211 640.281 164.102 640.875 164.102C641.891 164.102 642.661 164.378 643.188 164.93C643.714 165.477 643.977 166.268 643.977 167.305V173ZM649.195 173.156C648.169 173.156 647.362 172.758 646.773 171.961C646.19 171.164 645.898 170.06 645.898 168.648C645.898 167.216 646.195 166.102 646.789 165.305C647.388 164.503 648.211 164.102 649.258 164.102C650.357 164.102 651.195 164.529 651.773 165.383H651.852C651.732 164.732 651.672 164.151 651.672 163.641V160.844H654.062V173H652.234L651.773 171.867H651.672C651.13 172.727 650.305 173.156 649.195 173.156ZM650.031 171.258C650.641 171.258 651.086 171.081 651.367 170.727C651.654 170.372 651.81 169.771 651.836 168.922V168.664C651.836 167.727 651.69 167.055 651.398 166.648C651.112 166.242 650.643 166.039 649.992 166.039C649.461 166.039 649.047 166.266 648.75 166.719C648.458 167.167 648.312 167.82 648.312 168.68C648.312 169.539 648.461 170.185 648.758 170.617C649.055 171.044 649.479 171.258 650.031 171.258ZM660.172 165.797C659.667 165.797 659.271 165.958 658.984 166.281C658.698 166.599 658.534 167.052 658.492 167.641H661.836C661.826 167.052 661.672 166.599 661.375 166.281C661.078 165.958 660.677 165.797 660.172 165.797ZM660.508 173.156C659.102 173.156 658.003 172.768 657.211 171.992C656.419 171.216 656.023 170.117 656.023 168.695C656.023 167.232 656.388 166.102 657.117 165.305C657.852 164.503 658.865 164.102 660.156 164.102C661.391 164.102 662.352 164.453 663.039 165.156C663.727 165.859 664.07 166.831 664.07 168.07V169.227H658.438C658.464 169.904 658.664 170.432 659.039 170.812C659.414 171.193 659.94 171.383 660.617 171.383C661.143 171.383 661.641 171.328 662.109 171.219C662.578 171.109 663.068 170.935 663.578 170.695V172.539C663.161 172.747 662.716 172.901 662.242 173C661.768 173.104 661.19 173.156 660.508 173.156ZM670.805 173.156C669.779 173.156 668.974 172.784 668.391 172.039H668.266C668.349 172.768 668.391 173.19 668.391 173.305V176.844H666.008V164.266H667.945L668.281 165.398H668.391C668.948 164.534 669.773 164.102 670.867 164.102C671.898 164.102 672.706 164.5 673.289 165.297C673.872 166.094 674.164 167.201 674.164 168.617C674.164 169.549 674.026 170.359 673.75 171.047C673.479 171.734 673.091 172.258 672.586 172.617C672.081 172.977 671.487 173.156 670.805 173.156ZM670.102 166.008C669.513 166.008 669.083 166.19 668.812 166.555C668.542 166.914 668.401 167.51 668.391 168.344V168.602C668.391 169.539 668.529 170.211 668.805 170.617C669.086 171.023 669.529 171.227 670.133 171.227C671.201 171.227 671.734 170.346 671.734 168.586C671.734 167.727 671.602 167.083 671.336 166.656C671.076 166.224 670.664 166.008 670.102 166.008ZM679.75 165.797C679.245 165.797 678.849 165.958 678.562 166.281C678.276 166.599 678.112 167.052 678.07 167.641H681.414C681.404 167.052 681.25 166.599 680.953 166.281C680.656 165.958 680.255 165.797 679.75 165.797ZM680.086 173.156C678.68 173.156 677.581 172.768 676.789 171.992C675.997 171.216 675.602 170.117 675.602 168.695C675.602 167.232 675.966 166.102 676.695 165.305C677.43 164.503 678.443 164.102 679.734 164.102C680.969 164.102 681.93 164.453 682.617 165.156C683.305 165.859 683.648 166.831 683.648 168.07V169.227H678.016C678.042 169.904 678.242 170.432 678.617 170.812C678.992 171.193 679.518 171.383 680.195 171.383C680.721 171.383 681.219 171.328 681.688 171.219C682.156 171.109 682.646 170.935 683.156 170.695V172.539C682.74 172.747 682.294 172.901 681.82 173C681.346 173.104 680.768 173.156 680.086 173.156ZM693.648 173H691.266V167.898C691.266 167.268 691.154 166.797 690.93 166.484C690.706 166.167 690.349 166.008 689.859 166.008C689.193 166.008 688.711 166.232 688.414 166.68C688.117 167.122 687.969 167.859 687.969 168.891V173H685.586V164.266H687.406L687.727 165.383H687.859C688.125 164.961 688.49 164.643 688.953 164.43C689.422 164.211 689.953 164.102 690.547 164.102C691.562 164.102 692.333 164.378 692.859 164.93C693.385 165.477 693.648 166.268 693.648 167.305V173ZM698.867 173.156C697.841 173.156 697.034 172.758 696.445 171.961C695.862 171.164 695.57 170.06 695.57 168.648C695.57 167.216 695.867 166.102 696.461 165.305C697.06 164.503 697.883 164.102 698.93 164.102C700.029 164.102 700.867 164.529 701.445 165.383H701.523C701.404 164.732 701.344 164.151 701.344 163.641V160.844H703.734V173H701.906L701.445 171.867H701.344C700.802 172.727 699.977 173.156 698.867 173.156ZM699.703 171.258C700.312 171.258 700.758 171.081 701.039 170.727C701.326 170.372 701.482 169.771 701.508 168.922V168.664C701.508 167.727 701.362 167.055 701.07 166.648C700.784 166.242 700.315 166.039 699.664 166.039C699.133 166.039 698.719 166.266 698.422 166.719C698.13 167.167 697.984 167.82 697.984 168.68C697.984 169.539 698.133 170.185 698.43 170.617C698.727 171.044 699.151 171.258 699.703 171.258ZM709.844 165.797C709.339 165.797 708.943 165.958 708.656 166.281C708.37 166.599 708.206 167.052 708.164 167.641H711.508C711.497 167.052 711.344 166.599 711.047 166.281C710.75 165.958 710.349 165.797 709.844 165.797ZM710.18 173.156C708.773 173.156 707.674 172.768 706.883 171.992C706.091 171.216 705.695 170.117 705.695 168.695C705.695 167.232 706.06 166.102 706.789 165.305C707.523 164.503 708.536 164.102 709.828 164.102C711.062 164.102 712.023 164.453 712.711 165.156C713.398 165.859 713.742 166.831 713.742 168.07V169.227H708.109C708.135 169.904 708.336 170.432 708.711 170.812C709.086 171.193 709.612 171.383 710.289 171.383C710.815 171.383 711.312 171.328 711.781 171.219C712.25 171.109 712.74 170.935 713.25 170.695V172.539C712.833 172.747 712.388 172.901 711.914 173C711.44 173.104 710.862 173.156 710.18 173.156ZM723.742 173H721.359V167.898C721.359 167.268 721.247 166.797 721.023 166.484C720.799 166.167 720.443 166.008 719.953 166.008C719.286 166.008 718.805 166.232 718.508 166.68C718.211 167.122 718.062 167.859 718.062 168.891V173H715.68V164.266H717.5L717.82 165.383H717.953C718.219 164.961 718.583 164.643 719.047 164.43C719.516 164.211 720.047 164.102 720.641 164.102C721.656 164.102 722.427 164.378 722.953 164.93C723.479 165.477 723.742 166.268 723.742 167.305V173ZM729.742 173.156C727.023 173.156 725.664 171.664 725.664 168.68C725.664 167.195 726.034 166.062 726.773 165.281C727.513 164.495 728.573 164.102 729.953 164.102C730.964 164.102 731.87 164.299 732.672 164.695L731.969 166.539C731.594 166.388 731.245 166.266 730.922 166.172C730.599 166.073 730.276 166.023 729.953 166.023C728.714 166.023 728.094 166.904 728.094 168.664C728.094 170.372 728.714 171.227 729.953 171.227C730.411 171.227 730.836 171.167 731.227 171.047C731.617 170.922 732.008 170.729 732.398 170.469V172.508C732.013 172.753 731.622 172.922 731.227 173.016C730.836 173.109 730.341 173.156 729.742 173.156ZM738.047 165.797C737.542 165.797 737.146 165.958 736.859 166.281C736.573 166.599 736.409 167.052 736.367 167.641H739.711C739.701 167.052 739.547 166.599 739.25 166.281C738.953 165.958 738.552 165.797 738.047 165.797ZM738.383 173.156C736.977 173.156 735.878 172.768 735.086 171.992C734.294 171.216 733.898 170.117 733.898 168.695C733.898 167.232 734.263 166.102 734.992 165.305C735.727 164.503 736.74 164.102 738.031 164.102C739.266 164.102 740.227 164.453 740.914 165.156C741.602 165.859 741.945 166.831 741.945 168.07V169.227H736.312C736.339 169.904 736.539 170.432 736.914 170.812C737.289 171.193 737.815 171.383 738.492 171.383C739.018 171.383 739.516 171.328 739.984 171.219C740.453 171.109 740.943 170.935 741.453 170.695V172.539C741.036 172.747 740.591 172.901 740.117 173C739.643 173.104 739.065 173.156 738.383 173.156Z" fill="#005174"/>
<ellipse cx="72.9593" cy="217.7" rx="55.9593" ry="55.5589" stroke="#005174" stroke-width="4" stroke-linecap="round" stroke-dasharray="7.39 7.39"/>
<path d="M48.002 223.161H40.6016V210.311H48.002V212.543H43.3262V215.365H47.6768V217.597H43.3262V220.911H48.002V223.161ZM49.6104 219.434V217.237H54.3301V219.434H49.6104ZM67.8916 223.161H64.4287L58.8389 213.44H58.7598C58.7832 213.844 58.8037 214.251 58.8213 214.662C58.8389 215.072 58.8564 215.482 58.874 215.892C58.8916 216.296 58.9092 216.704 58.9268 217.114V223.161H56.4922V210.311H59.9287L65.5098 219.935H65.5713C65.5596 219.537 65.5449 219.141 65.5273 218.749C65.5098 218.356 65.4922 217.963 65.4746 217.571C65.4629 217.178 65.4512 216.786 65.4395 216.393V210.311H67.8916V223.161ZM82.7979 216.718C82.7979 217.708 82.6748 218.611 82.4287 219.425C82.1826 220.234 81.8076 220.931 81.3037 221.517C80.8057 222.103 80.1729 222.554 79.4053 222.871C78.6377 223.181 77.7295 223.336 76.6807 223.336C75.6318 223.336 74.7236 223.181 73.9561 222.871C73.1885 222.554 72.5527 222.103 72.0488 221.517C71.5508 220.931 71.1787 220.231 70.9326 219.417C70.6865 218.602 70.5635 217.697 70.5635 216.701C70.5635 215.371 70.7803 214.213 71.2139 213.229C71.6533 212.239 72.3271 211.471 73.2354 210.926C74.1436 210.381 75.2979 210.109 76.6982 210.109C78.0928 210.109 79.2383 210.381 80.1348 210.926C81.0371 211.471 81.7051 212.239 82.1387 213.229C82.5781 214.219 82.7979 215.382 82.7979 216.718ZM73.4199 216.718C73.4199 217.615 73.5312 218.388 73.7539 219.039C73.9824 219.683 74.3369 220.181 74.8174 220.533C75.2979 220.878 75.9189 221.051 76.6807 221.051C77.4541 221.051 78.0811 220.878 78.5615 220.533C79.042 220.181 79.3906 219.683 79.6074 219.039C79.8301 218.388 79.9414 217.615 79.9414 216.718C79.9414 215.371 79.6895 214.31 79.1855 213.537C78.6816 212.763 77.8525 212.376 76.6982 212.376C75.9307 212.376 75.3037 212.552 74.8174 212.904C74.3369 213.25 73.9824 213.748 73.7539 214.398C73.5312 215.042 73.4199 215.816 73.4199 216.718ZM95.542 210.311L91.1738 223.161H88.2031L83.8438 210.311H86.5947L89.0117 217.958C89.0527 218.086 89.1201 218.33 89.2139 218.687C89.3076 219.039 89.4014 219.414 89.4951 219.812C89.5947 220.205 89.6621 220.53 89.6973 220.788C89.7324 220.53 89.7939 220.205 89.8818 219.812C89.9756 219.419 90.0664 219.047 90.1543 218.696C90.248 218.338 90.3154 218.092 90.3564 217.958L92.791 210.311H95.542ZM105.034 223.161L104.103 220.102H99.418L98.4863 223.161H95.5508L100.086 210.258H103.417L107.97 223.161H105.034ZM103.452 217.817L102.521 214.829C102.462 214.629 102.383 214.375 102.283 214.064C102.189 213.748 102.093 213.428 101.993 213.106C101.899 212.778 101.823 212.494 101.765 212.253C101.706 212.494 101.624 212.792 101.519 213.15C101.419 213.501 101.322 213.835 101.229 214.152C101.135 214.468 101.067 214.694 101.026 214.829L100.104 217.817H103.452Z" fill="#005174"/>
<rect x="1.41928" width="47.5639" height="47.5639" transform="matrix(0.709641 -0.704564 0.709641 0.704564 275.412 220.447)" stroke="#005174" stroke-width="2"/>
<rect x="1.41928" width="47.5639" height="47.5639" transform="matrix(0.709641 -0.704564 0.709641 0.704564 153.412 220.447)" stroke="#005174" stroke-width="2"/>
<rect x="1.41928" width="47.5639" height="47.5639" transform="matrix(0.709641 -0.704564 0.709641 0.704564 397.412 220.447)" stroke="#005174" stroke-width="2"/>
<rect x="1.41928" width="47.5639" height="47.5639" transform="matrix(0.709641 -0.704564 0.709641 0.704564 519.412 220.447)" stroke="#005174" stroke-width="2"/>
<rect x="1.41928" width="47.5639" height="47.5639" transform="matrix(0.709641 -0.704564 0.709641 0.704564 651.412 220.447)" stroke="#005174" stroke-width="2"/>
<ellipse cx="249.072" cy="219.469" rx="10.0721" ry="10" fill="#005174"/>
<ellipse cx="371.072" cy="219.469" rx="10.0721" ry="10" fill="#005174"/>
<ellipse cx="493.072" cy="219.469" rx="10.0721" ry="10" fill="#005174"/>
<line x1="249" y1="230" x2="249" y2="310" stroke="#005174" stroke-width="2" stroke-dasharray="3.69 3.69"/>
<line x1="372" y1="230" x2="372" y2="310" stroke="#005174" stroke-width="2" stroke-dasharray="3.69 3.69"/>
<line x1="494" y1="230" x2="494" y2="310" stroke="#005174" stroke-width="2" stroke-dasharray="3.69 3.69"/>
<circle cx="73" cy="99" r="31" stroke="#005174" stroke-width="2"/>
<path d="M54.4375 105V93.5781H56.8594V105H54.4375ZM62.3125 105.156C61.2865 105.156 60.4792 104.758 59.8906 103.961C59.3073 103.164 59.0156 102.06 59.0156 100.648C59.0156 99.2161 59.3125 98.1016 59.9062 97.3047C60.5052 96.5026 61.3281 96.1016 62.375 96.1016C63.474 96.1016 64.3125 96.5286 64.8906 97.3828H64.9688C64.849 96.7318 64.7891 96.151 64.7891 95.6406V92.8438H67.1797V105H65.3516L64.8906 103.867H64.7891C64.2474 104.727 63.4219 105.156 62.3125 105.156ZM63.1484 103.258C63.7578 103.258 64.2031 103.081 64.4844 102.727C64.7708 102.372 64.9271 101.771 64.9531 100.922V100.664C64.9531 99.7266 64.8073 99.0547 64.5156 98.6484C64.2292 98.2422 63.7604 98.0391 63.1094 98.0391C62.5781 98.0391 62.1641 98.2656 61.8672 98.7188C61.5755 99.1667 61.4297 99.8203 61.4297 100.68C61.4297 101.539 61.5781 102.185 61.875 102.617C62.1719 103.044 62.5964 103.258 63.1484 103.258ZM73.2891 97.7969C72.7839 97.7969 72.388 97.9583 72.1016 98.2812C71.8151 98.599 71.651 99.0521 71.6094 99.6406H74.9531C74.9427 99.0521 74.7891 98.599 74.4922 98.2812C74.1953 97.9583 73.7943 97.7969 73.2891 97.7969ZM73.625 105.156C72.2188 105.156 71.1198 104.768 70.3281 103.992C69.5365 103.216 69.1406 102.117 69.1406 100.695C69.1406 99.2318 69.5052 98.1016 70.2344 97.3047C70.9688 96.5026 71.9818 96.1016 73.2734 96.1016C74.5078 96.1016 75.4688 96.4531 76.1562 97.1562C76.8438 97.8594 77.1875 98.8307 77.1875 100.07V101.227H71.5547C71.5807 101.904 71.7812 102.432 72.1562 102.812C72.5312 103.193 73.0573 103.383 73.7344 103.383C74.2604 103.383 74.7578 103.328 75.2266 103.219C75.6953 103.109 76.1849 102.935 76.6953 102.695V104.539C76.2786 104.747 75.8333 104.901 75.3594 105C74.8854 105.104 74.3073 105.156 73.625 105.156ZM79.0234 94.0078C79.0234 93.2318 79.4557 92.8438 80.3203 92.8438C81.1849 92.8438 81.6172 93.2318 81.6172 94.0078C81.6172 94.3776 81.5078 94.6667 81.2891 94.875C81.0755 95.0781 80.7526 95.1797 80.3203 95.1797C79.4557 95.1797 79.0234 94.7891 79.0234 94.0078ZM81.5078 105H79.125V96.2656H81.5078V105ZM89.5625 105L89.1016 103.812H89.0391C88.638 104.318 88.224 104.669 87.7969 104.867C87.375 105.06 86.8229 105.156 86.1406 105.156C85.3021 105.156 84.6406 104.917 84.1562 104.438C83.6771 103.958 83.4375 103.276 83.4375 102.391C83.4375 101.464 83.7604 100.781 84.4062 100.344C85.0573 99.901 86.0365 99.6562 87.3438 99.6094L88.8594 99.5625V99.1797C88.8594 98.2943 88.4062 97.8516 87.5 97.8516C86.8021 97.8516 85.9818 98.0625 85.0391 98.4844L84.25 96.875C85.2552 96.349 86.3698 96.0859 87.5938 96.0859C88.7656 96.0859 89.6641 96.3411 90.2891 96.8516C90.9141 97.362 91.2266 98.138 91.2266 99.1797V105H89.5625ZM88.8594 100.953L87.9375 100.984C87.2448 101.005 86.7292 101.13 86.3906 101.359C86.0521 101.589 85.8828 101.938 85.8828 102.406C85.8828 103.078 86.2682 103.414 87.0391 103.414C87.5911 103.414 88.0312 103.255 88.3594 102.938C88.6927 102.62 88.8594 102.198 88.8594 101.672V100.953Z" fill="#005174"/>
</svg>
