<svg width="553" height="369" viewBox="0 0 553 369" fill="none" xmlns="http://www.w3.org/2000/svg">
<rect x="13" y="20" width="154" height="133" fill="#F0F8FA"/>
<rect x="104" y="207" width="140" height="162" fill="#F0F8FA"/>
<rect x="293" width="208" height="256" fill="#F0F8FA"/>
<path d="M225.656 218.052L225.656 272.441" stroke="#005174" stroke-width="2" stroke-linecap="round" stroke-dasharray="7 7"/>
<path d="M74.0625 171.764L134.237 171.764" stroke="#005174" stroke-width="2" stroke-linecap="round" stroke-dasharray="7 7"/>
<path d="M225.656 125.476L225.656 74.559" stroke="#005174" stroke-width="2" stroke-linecap="round" stroke-dasharray="7 7"/>
<path d="M135.582 127.79L108.783 97.1242" stroke="#005174" stroke-width="2" stroke-linecap="round" stroke-dasharray="7 7"/>
<path d="M317.078 128.369L358.159 117.954" stroke="#005174" stroke-width="2" stroke-linecap="round" stroke-dasharray="7 7"/>
<path d="M358.734 245.825L317.834 215.845" stroke="#005174" stroke-width="2" stroke-linecap="round" stroke-dasharray="7 7"/>
<path d="M108.777 245.247L135.577 214.581" stroke="#005174" stroke-width="2" stroke-linecap="round" stroke-dasharray="7 7"/>
<rect x="189.625" y="41" width="70.9039" height="31.559" rx="4.78603" stroke="#005174" stroke-width="2"/>
<path d="M221.922 51.2209V58.7043C221.922 59.5586 221.73 60.3075 221.345 60.9509C220.965 61.5943 220.414 62.0874 219.692 62.4302C218.969 62.7729 218.115 62.9443 217.129 62.9443C215.641 62.9443 214.487 62.5646 213.664 61.8052C212.841 61.0405 212.43 59.9963 212.43 58.6726V51.2209H214.874V58.3008C214.874 59.1921 215.053 59.846 215.412 60.2627C215.771 60.6793 216.364 60.8876 217.192 60.8876C217.994 60.8876 218.574 60.6793 218.932 60.2627C219.296 59.8408 219.478 59.1815 219.478 58.285V51.2209H221.922ZM235.014 62.7861H231.898L226.867 54.037H226.795C226.896 55.5822 226.946 56.6844 226.946 57.3437V62.7861H224.754V51.2209H227.847L232.871 59.8829H232.926C232.847 58.3799 232.807 57.3173 232.807 56.695V51.2209H235.014V62.7861Z" fill="#005174"/>
<rect x="38.0312" y="66.3013" width="70.9039" height="31.559" rx="4.78603" stroke="#005174" stroke-width="2"/>
<path d="M70.3287 76.5221V84.0055C70.3287 84.8599 70.1362 85.6088 69.7512 86.2521C69.3715 86.8955 68.8204 87.3886 68.0979 87.7314C67.3754 88.0742 66.5211 88.2456 65.5349 88.2456C64.0477 88.2456 62.8928 87.8659 62.0701 87.1065C61.2474 86.3418 60.836 85.2976 60.836 83.9739V76.5221H63.2804V83.6021C63.2804 84.4934 63.4597 85.1473 63.8183 85.5639C64.1769 85.9806 64.7702 86.1889 65.5982 86.1889C66.3998 86.1889 66.9799 85.9806 67.3385 85.5639C67.7024 85.142 67.8843 84.4828 67.8843 83.5863V76.5221H70.3287ZM83.4207 88.0874H80.304L75.2728 79.3383H75.2016C75.3018 80.8835 75.3519 81.9857 75.3519 82.6449V88.0874H73.1607V76.5221H76.2537L81.277 85.1842H81.3323C81.2532 83.6812 81.2137 82.6186 81.2137 81.9963V76.5221H83.4207V88.0874Z" fill="#005174"/>
<rect x="1" y="155.406" width="70.9039" height="31.559" rx="4.78603" stroke="#005174" stroke-width="2"/>
<path d="M33.2975 165.627V173.11C33.2975 173.964 33.105 174.713 32.72 175.357C32.3403 176 31.7892 176.493 31.0667 176.836C30.3442 177.179 29.4898 177.35 28.5036 177.35C27.0165 177.35 25.8615 176.97 25.0388 176.211C24.2161 175.446 23.8048 174.402 23.8048 173.078V165.627H26.2491V172.707C26.2491 173.598 26.4284 174.252 26.787 174.668C27.1457 175.085 27.739 175.293 28.5669 175.293C29.3685 175.293 29.9486 175.085 30.3073 174.668C30.6711 174.247 30.8531 173.587 30.8531 172.691V165.627H33.2975ZM46.3895 177.192H43.2727L38.2416 168.443H38.1704C38.2706 169.988 38.3207 171.09 38.3207 171.749V177.192H36.1294V165.627H39.2225L44.2457 174.289H44.3011C44.222 172.786 44.1824 171.723 44.1824 171.101V165.627H46.3895V177.192Z" fill="#005174"/>
<rect x="39.1875" y="245.668" width="70.9039" height="31.559" rx="4.78603" stroke="#005174" stroke-width="2"/>
<path d="M71.485 255.889V263.372C71.485 264.227 71.2925 264.975 70.9075 265.619C70.5278 266.262 69.9767 266.755 69.2542 267.098C68.5317 267.441 67.6773 267.612 66.6911 267.612C65.204 267.612 64.049 267.233 63.2263 266.473C62.4036 265.708 61.9923 264.664 61.9923 263.341V255.889H64.4366V262.969C64.4366 263.86 64.6159 264.514 64.9745 264.931C65.3332 265.347 65.9265 265.556 66.7544 265.556C67.556 265.556 68.1361 265.347 68.4948 264.931C68.8586 264.509 69.0406 263.85 69.0406 262.953V255.889H71.485ZM84.577 267.454H81.4602L76.4291 258.705H76.3579C76.4581 260.25 76.5082 261.352 76.5082 262.012V267.454H74.3169V255.889H77.41L82.4332 264.551H82.4886C82.4095 263.048 82.3699 261.985 82.3699 261.363V255.889H84.577V267.454Z" fill="#005174"/>
<rect x="191.938" y="273.441" width="70.9039" height="31.559" rx="4.78603" stroke="#005174" stroke-width="2"/>
<path d="M224.243 283.662V291.145C224.243 292 224.05 292.748 223.665 293.392C223.286 294.035 222.734 294.528 222.012 294.871C221.289 295.214 220.435 295.385 219.449 295.385C217.962 295.385 216.807 295.006 215.984 294.246C215.161 293.481 214.75 292.437 214.75 291.114V283.662H217.194V290.742C217.194 291.633 217.374 292.287 217.732 292.704C218.091 293.12 218.684 293.329 219.512 293.329C220.314 293.329 220.894 293.12 221.253 292.704C221.616 292.282 221.798 291.622 221.798 290.726V283.662H224.243ZM237.335 295.227H234.218L229.187 286.478H229.116C229.216 288.023 229.266 289.125 229.266 289.785V295.227H227.075V283.662H230.168L235.191 292.324H235.246C235.167 290.821 235.128 289.758 235.128 289.136V283.662H237.335V295.227Z" fill="#005174"/>
<rect x="135.734" y="126.976" width="182.153" height="89.5764" rx="4.28603" stroke="#005174" stroke-width="3" stroke-dasharray="7 7"/>
<path d="M188.365 155.388C187.311 155.388 186.494 155.786 185.915 156.582C185.337 157.371 185.047 158.474 185.047 159.89C185.047 162.838 186.153 164.311 188.365 164.311C189.294 164.311 190.418 164.079 191.738 163.615V165.966C190.653 166.418 189.441 166.644 188.103 166.644C186.181 166.644 184.71 166.062 183.691 164.899C182.673 163.73 182.163 162.054 182.163 159.872C182.163 158.498 182.414 157.296 182.914 156.265C183.414 155.228 184.131 154.436 185.066 153.887C186.006 153.333 187.106 153.056 188.365 153.056C189.649 153.056 190.939 153.366 192.235 153.987L191.331 156.265C190.836 156.03 190.339 155.825 189.839 155.65C189.339 155.476 188.848 155.388 188.365 155.388ZM198.527 158.128C197.942 158.128 197.484 158.314 197.153 158.688C196.821 159.056 196.632 159.58 196.583 160.261H200.453C200.441 159.58 200.263 159.056 199.919 158.688C199.576 158.314 199.112 158.128 198.527 158.128ZM198.916 166.644C197.288 166.644 196.017 166.195 195.101 165.297C194.185 164.399 193.726 163.127 193.726 161.482C193.726 159.788 194.148 158.48 194.992 157.558C195.842 156.63 197.014 156.166 198.509 156.166C199.937 156.166 201.049 156.573 201.845 157.386C202.641 158.2 203.038 159.324 203.038 160.758V162.096H196.52C196.55 162.88 196.782 163.492 197.216 163.932C197.65 164.372 198.259 164.592 199.042 164.592C199.651 164.592 200.227 164.528 200.769 164.402C201.312 164.275 201.878 164.073 202.469 163.796V165.93C201.987 166.171 201.471 166.348 200.923 166.463C200.374 166.584 199.705 166.644 198.916 166.644ZM214.61 166.463H211.853V160.559C211.853 159.83 211.723 159.285 211.464 158.923C211.205 158.555 210.792 158.372 210.226 158.372C209.454 158.372 208.897 158.631 208.553 159.149C208.21 159.661 208.038 160.514 208.038 161.708V166.463H205.28V156.356H207.387L207.758 157.648H207.911C208.219 157.16 208.641 156.793 209.177 156.545C209.719 156.292 210.334 156.166 211.021 156.166C212.197 156.166 213.089 156.485 213.697 157.124C214.306 157.757 214.61 158.673 214.61 159.872V166.463ZM221.707 164.447C222.189 164.447 222.768 164.341 223.443 164.131V166.183C222.756 166.49 221.912 166.644 220.912 166.644C219.809 166.644 219.004 166.367 218.498 165.812C217.998 165.252 217.748 164.414 217.748 163.299V158.426H216.428V157.26L217.946 156.337L218.742 154.204H220.505V156.356H223.335V158.426H220.505V163.299C220.505 163.691 220.613 163.98 220.83 164.167C221.053 164.354 221.346 164.447 221.707 164.447ZM231.137 156.166C231.51 156.166 231.821 156.193 232.068 156.247L231.86 158.833C231.637 158.772 231.366 158.742 231.046 158.742C230.166 158.742 229.479 158.968 228.985 159.42C228.497 159.872 228.253 160.505 228.253 161.319V166.463H225.495V156.356H227.584L227.991 158.055H228.126C228.44 157.489 228.861 157.034 229.392 156.69C229.928 156.34 230.51 156.166 231.137 156.166ZM236.1 161.391C236.1 162.392 236.263 163.148 236.588 163.66C236.92 164.173 237.456 164.429 238.197 164.429C238.933 164.429 239.46 164.176 239.78 163.669C240.105 163.157 240.268 162.398 240.268 161.391C240.268 160.391 240.105 159.64 239.78 159.14C239.454 158.64 238.921 158.39 238.179 158.39C237.444 158.39 236.914 158.64 236.588 159.14C236.263 159.634 236.1 160.385 236.1 161.391ZM243.088 161.391C243.088 163.037 242.655 164.323 241.787 165.252C240.919 166.18 239.71 166.644 238.161 166.644C237.191 166.644 236.335 166.433 235.594 166.011C234.852 165.583 234.283 164.971 233.885 164.176C233.487 163.38 233.288 162.452 233.288 161.391C233.288 159.74 233.719 158.456 234.581 157.54C235.443 156.624 236.655 156.166 238.216 156.166C239.186 156.166 240.042 156.377 240.783 156.799C241.524 157.22 242.094 157.826 242.492 158.616C242.89 159.405 243.088 160.33 243.088 161.391ZM253.377 166.644C252.189 166.644 251.255 166.183 250.574 165.261C249.899 164.338 249.562 163.061 249.562 161.427C249.562 159.77 249.905 158.48 250.592 157.558C251.285 156.63 252.238 156.166 253.449 156.166C254.721 156.166 255.691 156.66 256.36 157.648H256.451C256.312 156.895 256.243 156.223 256.243 155.632V152.396H259.009V166.463H256.894L256.36 165.152H256.243C255.616 166.147 254.661 166.644 253.377 166.644ZM254.344 164.447C255.049 164.447 255.565 164.242 255.89 163.832C256.222 163.422 256.402 162.726 256.433 161.744V161.445C256.433 160.361 256.264 159.583 255.926 159.113C255.595 158.643 255.052 158.408 254.299 158.408C253.684 158.408 253.205 158.67 252.861 159.194C252.524 159.713 252.355 160.469 252.355 161.464C252.355 162.458 252.527 163.205 252.87 163.706C253.214 164.2 253.705 164.447 254.344 164.447ZM266.079 158.128C265.494 158.128 265.036 158.314 264.705 158.688C264.373 159.056 264.183 159.58 264.135 160.261H268.005C267.993 159.58 267.815 159.056 267.471 158.688C267.128 158.314 266.664 158.128 266.079 158.128ZM266.468 166.644C264.84 166.644 263.569 166.195 262.652 165.297C261.736 164.399 261.278 163.127 261.278 161.482C261.278 159.788 261.7 158.48 262.544 157.558C263.394 156.63 264.566 156.166 266.061 156.166C267.489 156.166 268.601 156.573 269.397 157.386C270.192 158.2 270.59 159.324 270.59 160.758V162.096H264.072C264.102 162.88 264.334 163.492 264.768 163.932C265.202 164.372 265.811 164.592 266.594 164.592C267.203 164.592 267.779 164.528 268.321 164.402C268.863 164.275 269.43 164.073 270.021 163.796V165.93C269.538 166.171 269.023 166.348 268.475 166.463C267.926 166.584 267.257 166.644 266.468 166.644ZM187.163 189.463H179.551V176.246H187.163V178.542H182.353V181.444H186.828V183.74H182.353V187.149H187.163V189.463ZM191.783 184.301L188.528 179.356H191.656L193.618 182.574L195.598 179.356H198.726L195.435 184.301L198.88 189.463H195.743L193.618 186L191.484 189.463H188.356L191.783 184.301ZM204.521 189.644C201.375 189.644 199.802 187.917 199.802 184.464C199.802 182.746 200.23 181.435 201.086 180.531C201.941 179.621 203.168 179.166 204.765 179.166C205.934 179.166 206.983 179.395 207.911 179.853L207.098 181.986C206.664 181.812 206.26 181.67 205.886 181.561C205.512 181.447 205.139 181.39 204.765 181.39C203.331 181.39 202.613 182.408 202.613 184.445C202.613 186.422 203.331 187.411 204.765 187.411C205.295 187.411 205.787 187.341 206.239 187.203C206.691 187.058 207.143 186.835 207.595 186.534V188.893C207.149 189.177 206.697 189.373 206.239 189.481C205.787 189.59 205.214 189.644 204.521 189.644ZM214.131 181.128C213.547 181.128 213.089 181.314 212.757 181.688C212.426 182.056 212.236 182.58 212.188 183.261H216.057C216.045 182.58 215.867 182.056 215.524 181.688C215.18 181.314 214.716 181.128 214.131 181.128ZM214.52 189.644C212.893 189.644 211.621 189.195 210.705 188.297C209.789 187.399 209.331 186.127 209.331 184.482C209.331 182.788 209.753 181.48 210.596 180.558C211.446 179.63 212.618 179.166 214.113 179.166C215.542 179.166 216.654 179.573 217.449 180.386C218.245 181.2 218.643 182.324 218.643 183.758V185.096H212.124C212.154 185.88 212.386 186.492 212.82 186.932C213.254 187.372 213.863 187.592 214.647 187.592C215.255 187.592 215.831 187.528 216.373 187.402C216.916 187.275 217.482 187.073 218.073 186.796V188.93C217.591 189.171 217.075 189.348 216.527 189.463C215.979 189.584 215.31 189.644 214.52 189.644ZM223.642 189.463H220.885V175.396H223.642V189.463ZM230.73 181.128C230.145 181.128 229.687 181.314 229.356 181.688C229.024 182.056 228.834 182.58 228.786 183.261H232.656C232.644 182.58 232.466 182.056 232.122 181.688C231.779 181.314 231.315 181.128 230.73 181.128ZM231.119 189.644C229.491 189.644 228.22 189.195 227.303 188.297C226.387 187.399 225.929 186.127 225.929 184.482C225.929 182.788 226.351 181.48 227.195 180.558C228.045 179.63 229.217 179.166 230.712 179.166C232.14 179.166 233.252 179.573 234.048 180.386C234.843 181.2 235.241 182.324 235.241 183.758V185.096H228.723C228.753 185.88 228.985 186.492 229.419 186.932C229.853 187.372 230.462 187.592 231.245 187.592C231.854 187.592 232.43 187.528 232.972 187.402C233.514 187.275 234.081 187.073 234.672 186.796V188.93C234.189 189.171 233.674 189.348 233.126 189.463C232.577 189.584 231.908 189.644 231.119 189.644ZM232.873 178.244C231.926 177.683 231.221 177.153 230.757 176.652C230.287 177.141 229.597 177.671 228.687 178.244H226.851V177.999C227.991 176.86 228.762 175.953 229.166 175.278H232.393C232.58 175.592 232.903 176.02 233.361 176.562C233.825 177.098 234.274 177.578 234.708 177.999V178.244H232.873ZM246.813 189.463H244.056V183.559C244.056 182.83 243.926 182.285 243.667 181.923C243.408 181.555 242.995 181.372 242.429 181.372C241.657 181.372 241.1 181.631 240.756 182.149C240.412 182.661 240.241 183.514 240.241 184.708V189.463H237.483V179.356H239.59L239.96 180.648H240.114C240.421 180.16 240.843 179.793 241.38 179.545C241.922 179.292 242.537 179.166 243.224 179.166C244.399 179.166 245.291 179.485 245.9 180.124C246.509 180.757 246.813 181.673 246.813 182.872V189.463ZM253.756 189.644C250.61 189.644 249.037 187.917 249.037 184.464C249.037 182.746 249.465 181.435 250.321 180.531C251.177 179.621 252.403 179.166 254.001 179.166C255.17 179.166 256.219 179.395 257.147 179.853L256.333 181.986C255.899 181.812 255.495 181.67 255.122 181.561C254.748 181.447 254.374 181.39 254.001 181.39C252.566 181.39 251.849 182.408 251.849 184.445C251.849 186.422 252.566 187.411 254.001 187.411C254.531 187.411 255.022 187.341 255.474 187.203C255.926 187.058 256.378 186.835 256.83 186.534V188.893C256.384 189.177 255.932 189.373 255.474 189.481C255.022 189.59 254.45 189.644 253.756 189.644ZM259.063 176.743C259.063 175.845 259.564 175.396 260.564 175.396C261.565 175.396 262.065 175.845 262.065 176.743C262.065 177.171 261.938 177.505 261.685 177.746C261.438 177.981 261.064 178.099 260.564 178.099C259.564 178.099 259.063 177.647 259.063 176.743ZM261.938 189.463H259.181V179.356H261.938V189.463ZM271.259 189.463L270.726 188.089H270.653C270.189 188.673 269.71 189.08 269.216 189.309C268.728 189.532 268.089 189.644 267.299 189.644C266.329 189.644 265.564 189.367 265.003 188.812C264.449 188.258 264.171 187.468 264.171 186.443C264.171 185.371 264.545 184.581 265.292 184.075C266.046 183.562 267.179 183.279 268.692 183.225L270.446 183.171V182.728C270.446 181.703 269.921 181.191 268.872 181.191C268.065 181.191 267.116 181.435 266.025 181.923L265.112 180.061C266.275 179.452 267.565 179.148 268.981 179.148C270.337 179.148 271.377 179.443 272.1 180.034C272.823 180.624 273.185 181.522 273.185 182.728V189.463H271.259ZM270.446 184.78L269.379 184.816C268.577 184.84 267.98 184.985 267.589 185.25C267.197 185.515 267.001 185.919 267.001 186.462C267.001 187.239 267.447 187.628 268.339 187.628C268.978 187.628 269.487 187.444 269.867 187.076C270.253 186.709 270.446 186.22 270.446 185.612V184.78Z" fill="#005174"/>
<rect x="552" y="41" width="142" height="192" rx="4.78603" transform="rotate(90 552 41)" stroke="#005174" stroke-width="2"/>
<rect x="1" y="1" width="39.6594" height="155.38" rx="19.8297" transform="matrix(4.37114e-08 1 1 -4.37114e-08 377 53.8865)" stroke="#005174" stroke-width="2"/>
<path d="M394.553 82.8167C394.553 82.8167 393.203 82.8167 393.203 81.4666C393.203 80.1165 394.553 76.0663 401.304 76.0663C408.054 76.0663 409.404 80.1165 409.404 81.4666C409.404 82.8167 408.054 82.8167 408.054 82.8167H394.553ZM401.304 74.7162C402.378 74.7162 403.408 74.2895 404.167 73.5299C404.927 72.7704 405.354 71.7402 405.354 70.666C405.354 69.5918 404.927 68.5616 404.167 67.8021C403.408 67.0425 402.378 66.6158 401.304 66.6158C400.229 66.6158 399.199 67.0425 398.44 67.8021C397.68 68.5616 397.253 69.5918 397.253 70.666C397.253 71.7402 397.68 72.7704 398.44 73.5299C399.199 74.2895 400.229 74.7162 401.304 74.7162Z" fill="#009FC2"/>
<path d="M422.327 82.8167C422.327 82.8167 420.977 82.8167 420.977 81.4666C420.977 80.1165 422.327 76.0663 429.077 76.0663C435.827 76.0663 437.177 80.1165 437.177 81.4666C437.177 82.8167 435.827 82.8167 435.827 82.8167H422.327ZM429.077 74.7162C430.151 74.7162 431.181 74.2895 431.941 73.5299C432.7 72.7704 433.127 71.7402 433.127 70.666C433.127 69.5918 432.7 68.5616 431.941 67.8021C431.181 67.0425 430.151 66.6158 429.077 66.6158C428.003 66.6158 426.973 67.0425 426.213 67.8021C425.453 68.5616 425.027 69.5918 425.027 70.666C425.027 71.7402 425.453 72.7704 426.213 73.5299C426.973 74.2895 428.003 74.7162 429.077 74.7162Z" fill="#009FC2"/>
<path d="M450.1 82.8167C450.1 82.8167 448.75 82.8167 448.75 81.4666C448.75 80.1165 450.1 76.0663 456.85 76.0663C463.601 76.0663 464.951 80.1165 464.951 81.4666C464.951 82.8167 463.601 82.8167 463.601 82.8167H450.1ZM456.85 74.7162C457.925 74.7162 458.955 74.2895 459.714 73.5299C460.474 72.7704 460.901 71.7402 460.901 70.666C460.901 69.5918 460.474 68.5616 459.714 67.8021C458.955 67.0425 457.925 66.6158 456.85 66.6158C455.776 66.6158 454.746 67.0425 453.986 67.8021C453.227 68.5616 452.8 69.5918 452.8 70.666C452.8 71.7402 453.227 72.7704 453.986 73.5299C454.746 74.2895 455.776 74.7162 456.85 74.7162Z" fill="#009FC2"/>
<path d="M477.874 82.8167C477.874 82.8167 476.523 82.8167 476.523 81.4666C476.523 80.1165 477.874 76.0663 484.624 76.0663C491.374 76.0663 492.724 80.1165 492.724 81.4666C492.724 82.8167 491.374 82.8167 491.374 82.8167H477.874ZM484.624 74.7162C485.698 74.7162 486.728 74.2895 487.488 73.5299C488.247 72.7704 488.674 71.7402 488.674 70.666C488.674 69.5918 488.247 68.5616 487.488 67.8021C486.728 67.0425 485.698 66.6158 484.624 66.6158C483.55 66.6158 482.52 67.0425 481.76 67.8021C481 68.5616 480.574 69.5918 480.574 70.666C480.574 71.7402 481 72.7704 481.76 73.5299C482.52 74.2895 483.55 74.7162 484.624 74.7162Z" fill="#009FC2"/>
<path d="M505.647 82.8167C505.647 82.8167 504.297 82.8167 504.297 81.4666C504.297 80.1165 505.647 76.0663 512.397 76.0663C519.148 76.0663 520.498 80.1165 520.498 81.4666C520.498 82.8167 519.148 82.8167 519.148 82.8167H505.647ZM512.397 74.7162C513.471 74.7162 514.502 74.2895 515.261 73.5299C516.021 72.7704 516.448 71.7402 516.448 70.666C516.448 69.5918 516.021 68.5616 515.261 67.8021C514.502 67.0425 513.471 66.6158 512.397 66.6158C511.323 66.6158 510.293 67.0425 509.533 67.8021C508.774 68.5616 508.347 69.5918 508.347 70.666C508.347 71.7402 508.774 72.7704 509.533 73.5299C510.293 74.2895 511.323 74.7162 512.397 74.7162Z" fill="#009FC2"/>
<rect x="1" y="1" width="62" height="155" rx="22.1441" transform="matrix(4.37114e-08 1 1 -4.37114e-08 377 105)" stroke="#005174" stroke-width="2"/>
<path d="M394.553 133.734C394.553 133.734 393.203 133.734 393.203 132.384C393.203 131.033 394.553 126.983 401.304 126.983C408.054 126.983 409.404 131.033 409.404 132.384C409.404 133.734 408.054 133.734 408.054 133.734H394.553ZM401.304 125.633C402.378 125.633 403.408 125.206 404.167 124.447C404.927 123.687 405.354 122.657 405.354 121.583C405.354 120.509 404.927 119.479 404.167 118.719C403.408 117.959 402.378 117.533 401.304 117.533C400.229 117.533 399.199 117.959 398.44 118.719C397.68 119.479 397.253 120.509 397.253 121.583C397.253 122.657 397.68 123.687 398.44 124.447C399.199 125.206 400.229 125.633 401.304 125.633Z" fill="#009FC2"/>
<path d="M422.327 133.734C422.327 133.734 420.977 133.734 420.977 132.384C420.977 131.034 422.327 126.983 429.077 126.983C435.827 126.983 437.177 131.034 437.177 132.384C437.177 133.734 435.827 133.734 435.827 133.734H422.327ZM429.077 125.633C430.151 125.633 431.181 125.207 431.941 124.447C432.7 123.687 433.127 122.657 433.127 121.583C433.127 120.509 432.7 119.479 431.941 118.719C431.181 117.96 430.151 117.533 429.077 117.533C428.003 117.533 426.973 117.96 426.213 118.719C425.453 119.479 425.027 120.509 425.027 121.583C425.027 122.657 425.453 123.687 426.213 124.447C426.973 125.207 428.003 125.633 429.077 125.633Z" fill="#009FC2"/>
<path d="M450.1 133.734C450.1 133.734 448.75 133.734 448.75 132.384C448.75 131.033 450.1 126.983 456.85 126.983C463.601 126.983 464.951 131.033 464.951 132.384C464.951 133.734 463.601 133.734 463.601 133.734H450.1ZM456.85 125.633C457.925 125.633 458.955 125.206 459.714 124.447C460.474 123.687 460.901 122.657 460.901 121.583C460.901 120.509 460.474 119.479 459.714 118.719C458.955 117.959 457.925 117.533 456.85 117.533C455.776 117.533 454.746 117.959 453.986 118.719C453.227 119.479 452.8 120.509 452.8 121.583C452.8 122.657 453.227 123.687 453.986 124.447C454.746 125.206 455.776 125.633 456.85 125.633Z" fill="#009FC2"/>
<path d="M477.874 133.734C477.874 133.734 476.523 133.734 476.523 132.384C476.523 131.033 477.874 126.983 484.624 126.983C491.374 126.983 492.724 131.033 492.724 132.384C492.724 133.734 491.374 133.734 491.374 133.734H477.874ZM484.624 125.633C485.698 125.633 486.728 125.206 487.488 124.447C488.247 123.687 488.674 122.657 488.674 121.583C488.674 120.509 488.247 119.479 487.488 118.719C486.728 117.959 485.698 117.533 484.624 117.533C483.55 117.533 482.52 117.959 481.76 118.719C481 119.479 480.574 120.509 480.574 121.583C480.574 122.657 481 123.687 481.76 124.447C482.52 125.206 483.55 125.633 484.624 125.633Z" fill="#009FC2"/>
<path d="M505.647 133.734C505.647 133.734 504.297 133.734 504.297 132.383C504.297 131.033 505.647 126.983 512.397 126.983C519.148 126.983 520.498 131.033 520.498 132.383C520.498 133.734 519.148 133.734 519.148 133.734H505.647ZM512.397 125.633C513.471 125.633 514.502 125.206 515.261 124.447C516.021 123.687 516.448 122.657 516.448 121.583C516.448 120.509 516.021 119.478 515.261 118.719C514.502 117.959 513.471 117.533 512.397 117.533C511.323 117.533 510.293 117.959 509.533 118.719C508.774 119.478 508.347 120.509 508.347 121.583C508.347 122.657 508.774 123.687 509.533 124.447C510.293 125.206 511.323 125.633 512.397 125.633Z" fill="#009FC2"/>
<path d="M441.762 160H438.96V149.115H435.371V146.783H445.352V149.115H441.762V160ZM447.051 147.28C447.051 146.382 447.551 145.933 448.552 145.933C449.552 145.933 450.053 146.382 450.053 147.28C450.053 147.708 449.926 148.042 449.673 148.283C449.426 148.518 449.052 148.636 448.552 148.636C447.551 148.636 447.051 148.184 447.051 147.28ZM449.926 160H447.169V149.893H449.926V160ZM461.878 160H459.121V154.096C459.121 153.367 458.997 152.822 458.75 152.46C458.509 152.092 458.126 151.909 457.602 151.909C456.897 151.909 456.384 152.168 456.065 152.686C455.745 153.204 455.586 154.057 455.586 155.245V160H452.828V149.893H454.935L455.305 151.185H455.459C455.73 150.721 456.122 150.36 456.634 150.1C457.147 149.835 457.734 149.703 458.397 149.703C459.91 149.703 460.935 150.197 461.471 151.185H461.715C461.986 150.715 462.384 150.351 462.909 150.091C463.439 149.832 464.036 149.703 464.699 149.703C465.844 149.703 466.709 149.998 467.293 150.589C467.884 151.173 468.179 152.114 468.179 153.409V160H465.413V154.096C465.413 153.367 465.289 152.822 465.042 152.46C464.801 152.092 464.418 151.909 463.894 151.909C463.219 151.909 462.713 152.15 462.375 152.632C462.044 153.114 461.878 153.879 461.878 154.928V160ZM475.204 151.665C474.619 151.665 474.161 151.851 473.83 152.225C473.498 152.593 473.308 153.117 473.26 153.798H477.13C477.117 153.117 476.94 152.593 476.596 152.225C476.253 151.851 475.788 151.665 475.204 151.665ZM475.593 160.181C473.965 160.181 472.694 159.732 471.777 158.834C470.861 157.936 470.403 156.664 470.403 155.019C470.403 153.325 470.825 152.017 471.669 151.095C472.519 150.167 473.691 149.703 475.186 149.703C476.614 149.703 477.726 150.11 478.522 150.923C479.317 151.737 479.715 152.861 479.715 154.295V155.633H473.197C473.227 156.417 473.459 157.029 473.893 157.469C474.327 157.909 474.936 158.129 475.719 158.129C476.328 158.129 476.903 158.065 477.446 157.939C477.988 157.812 478.555 157.61 479.146 157.333V159.467C478.663 159.708 478.148 159.885 477.6 160C477.051 160.121 476.382 160.181 475.593 160.181Z" fill="#005174"/>
<rect x="552" y="216" width="100" height="192" rx="4.78603" transform="rotate(90 552 216)" stroke="#005174" stroke-width="2"/>
<rect x="1" y="1" width="39.6594" height="155.38" rx="19.8297" transform="matrix(4.37114e-08 1 1 -4.37114e-08 377 230)" stroke="#005174" stroke-width="2"/>
<path d="M394.553 258.93C394.553 258.93 393.203 258.93 393.203 257.58C393.203 256.23 394.553 252.18 401.304 252.18C408.054 252.18 409.404 256.23 409.404 257.58C409.404 258.93 408.054 258.93 408.054 258.93H394.553ZM401.304 250.83C402.378 250.83 403.408 250.403 404.167 249.643C404.927 248.884 405.354 247.854 405.354 246.779C405.354 245.705 404.927 244.675 404.167 243.916C403.408 243.156 402.378 242.729 401.304 242.729C400.229 242.729 399.199 243.156 398.44 243.916C397.68 244.675 397.253 245.705 397.253 246.779C397.253 247.854 397.68 248.884 398.44 249.643C399.199 250.403 400.229 250.83 401.304 250.83Z" fill="#009FC2"/>
<path d="M422.319 258.93C422.319 258.93 420.969 258.93 420.969 257.58C420.969 256.23 422.319 252.18 429.069 252.18C435.82 252.18 437.17 256.23 437.17 257.58C437.17 258.93 435.82 258.93 435.82 258.93H422.319ZM429.069 250.83C430.143 250.83 431.174 250.403 431.933 249.644C432.693 248.884 433.119 247.854 433.119 246.78C433.119 245.706 432.693 244.675 431.933 243.916C431.174 243.156 430.143 242.729 429.069 242.729C427.995 242.729 426.965 243.156 426.205 243.916C425.446 244.675 425.019 245.706 425.019 246.78C425.019 247.854 425.446 248.884 426.205 249.644C426.965 250.403 427.995 250.83 429.069 250.83Z" fill="#009FC2"/>
<path d="M450.1 258.93C450.1 258.93 448.75 258.93 448.75 257.58C448.75 256.23 450.1 252.18 456.85 252.18C463.601 252.18 464.951 256.23 464.951 257.58C464.951 258.93 463.601 258.93 463.601 258.93H450.1ZM456.85 250.83C457.925 250.83 458.955 250.403 459.714 249.643C460.474 248.884 460.901 247.854 460.901 246.779C460.901 245.705 460.474 244.675 459.714 243.916C458.955 243.156 457.925 242.729 456.85 242.729C455.776 242.729 454.746 243.156 453.986 243.916C453.227 244.675 452.8 245.705 452.8 246.779C452.8 247.854 453.227 248.884 453.986 249.643C454.746 250.403 455.776 250.83 456.85 250.83Z" fill="#009FC2"/>
<path d="M477.866 258.93C477.866 258.93 476.516 258.93 476.516 257.58C476.516 256.23 477.866 252.18 484.616 252.18C491.366 252.18 492.716 256.23 492.716 257.58C492.716 258.93 491.366 258.93 491.366 258.93H477.866ZM484.616 250.83C485.69 250.83 486.72 250.403 487.48 249.643C488.24 248.884 488.666 247.854 488.666 246.779C488.666 245.705 488.24 244.675 487.48 243.916C486.72 243.156 485.69 242.729 484.616 242.729C483.542 242.729 482.512 243.156 481.752 243.916C480.993 244.675 480.566 245.705 480.566 246.779C480.566 247.854 480.993 248.884 481.752 249.643C482.512 250.403 483.542 250.83 484.616 250.83Z" fill="#009FC2"/>
<path d="M505.647 258.93C505.647 258.93 504.297 258.93 504.297 257.58C504.297 256.23 505.647 252.18 512.397 252.18C519.148 252.18 520.498 256.23 520.498 257.58C520.498 258.93 519.148 258.93 519.148 258.93H505.647ZM512.397 250.83C513.471 250.83 514.502 250.403 515.261 249.643C516.021 248.884 516.448 247.854 516.448 246.779C516.448 245.705 516.021 244.675 515.261 243.916C514.502 243.156 513.471 242.729 512.397 242.729C511.323 242.729 510.293 243.156 509.533 243.916C508.774 244.675 508.347 245.705 508.347 246.779C508.347 247.854 508.774 248.884 509.533 249.643C510.293 250.403 511.323 250.83 512.397 250.83Z" fill="#009FC2"/>
<path d="M386.26 287.435V294.918C386.26 295.772 386.068 296.521 385.683 297.165C385.303 297.808 384.752 298.301 384.03 298.644C383.307 298.987 382.453 299.158 381.466 299.158C379.979 299.158 378.824 298.779 378.002 298.019C377.179 297.254 376.768 296.21 376.768 294.886V287.435H379.212V294.515C379.212 295.406 379.391 296.06 379.75 296.477C380.109 296.893 380.702 297.101 381.53 297.101C382.331 297.101 382.911 296.893 383.27 296.477C383.634 296.055 383.816 295.395 383.816 294.499V287.435H386.26ZM397.066 299H394.653V293.834C394.653 293.196 394.54 292.719 394.313 292.403C394.087 292.081 393.725 291.92 393.23 291.92C392.554 291.92 392.067 292.147 391.766 292.6C391.465 293.049 391.315 293.795 391.315 294.839V299H388.902V290.156H390.746L391.07 291.287H391.204C391.473 290.86 391.843 290.538 392.312 290.322C392.787 290.101 393.324 289.99 393.926 289.99C394.954 289.99 395.735 290.269 396.267 290.828C396.8 291.382 397.066 292.184 397.066 293.233V299ZM399.447 287.87C399.447 287.084 399.885 286.691 400.76 286.691C401.636 286.691 402.074 287.084 402.074 287.87C402.074 288.244 401.963 288.537 401.741 288.748C401.525 288.954 401.198 289.056 400.76 289.056C399.885 289.056 399.447 288.661 399.447 287.87ZM401.963 299H399.55V290.156H401.963V299ZM407.302 299.158C406.264 299.158 405.446 298.755 404.85 297.948C404.26 297.141 403.964 296.023 403.964 294.594C403.964 293.144 404.265 292.015 404.866 291.208C405.472 290.396 406.306 289.99 407.366 289.99C408.478 289.99 409.328 290.422 409.913 291.287H409.992C409.871 290.628 409.81 290.04 409.81 289.523V286.691H412.231V299H410.38L409.913 297.853H409.81C409.262 298.723 408.426 299.158 407.302 299.158ZM408.149 297.236C408.766 297.236 409.217 297.057 409.502 296.698C409.792 296.339 409.95 295.73 409.976 294.871V294.61C409.976 293.66 409.829 292.98 409.533 292.569C409.243 292.157 408.769 291.952 408.109 291.952C407.571 291.952 407.152 292.181 406.852 292.64C406.556 293.093 406.409 293.755 406.409 294.625C406.409 295.496 406.559 296.15 406.859 296.587C407.16 297.02 407.59 297.236 408.149 297.236ZM420.371 299L419.904 297.798H419.841C419.435 298.309 419.015 298.665 418.583 298.866C418.156 299.061 417.597 299.158 416.906 299.158C416.057 299.158 415.387 298.916 414.897 298.43C414.411 297.945 414.169 297.254 414.169 296.358C414.169 295.419 414.496 294.728 415.15 294.285C415.809 293.837 416.8 293.589 418.124 293.542L419.659 293.494V293.107C419.659 292.21 419.2 291.762 418.282 291.762C417.576 291.762 416.745 291.975 415.791 292.403L414.992 290.773C416.009 290.24 417.138 289.974 418.377 289.974C419.564 289.974 420.474 290.232 421.106 290.749C421.739 291.266 422.056 292.052 422.056 293.107V299H420.371ZM419.659 294.902L418.725 294.934C418.024 294.955 417.502 295.082 417.159 295.314C416.816 295.546 416.645 295.899 416.645 296.374C416.645 297.054 417.035 297.394 417.816 297.394C418.375 297.394 418.82 297.233 419.153 296.912C419.49 296.59 419.659 296.163 419.659 295.63V294.902ZM427.348 299.158C426.309 299.158 425.492 298.755 424.896 297.948C424.305 297.141 424.01 296.023 424.01 294.594C424.01 293.144 424.31 292.015 424.911 291.208C425.518 290.396 426.351 289.99 427.411 289.99C428.524 289.99 429.373 290.422 429.958 291.287H430.037C429.916 290.628 429.856 290.04 429.856 289.523V286.691H432.276V299H430.425L429.958 297.853H429.856C429.307 298.723 428.471 299.158 427.348 299.158ZM428.194 297.236C428.811 297.236 429.262 297.057 429.547 296.698C429.837 296.339 429.995 295.73 430.022 294.871V294.61C430.022 293.66 429.874 292.98 429.579 292.569C429.289 292.157 428.814 291.952 428.155 291.952C427.617 291.952 427.198 292.181 426.897 292.64C426.602 293.093 426.454 293.755 426.454 294.625C426.454 295.496 426.604 296.15 426.905 296.587C427.205 297.02 427.635 297.236 428.194 297.236ZM438.462 291.706C437.951 291.706 437.55 291.87 437.26 292.197C436.97 292.519 436.804 292.977 436.761 293.573H440.147C440.137 292.977 439.981 292.519 439.68 292.197C439.38 291.87 438.974 291.706 438.462 291.706ZM438.802 299.158C437.378 299.158 436.266 298.765 435.464 297.98C434.663 297.194 434.262 296.081 434.262 294.641C434.262 293.159 434.631 292.015 435.369 291.208C436.113 290.396 437.139 289.99 438.446 289.99C439.696 289.99 440.669 290.346 441.365 291.058C442.062 291.77 442.41 292.753 442.41 294.008V295.179H436.706C436.732 295.865 436.935 296.4 437.315 296.785C437.695 297.17 438.228 297.363 438.913 297.363C439.446 297.363 439.949 297.307 440.424 297.196C440.899 297.086 441.394 296.909 441.911 296.666V298.533C441.489 298.744 441.038 298.9 440.559 299C440.079 299.105 439.493 299.158 438.802 299.158ZM451.38 299.158C450.341 299.158 449.524 298.755 448.928 297.948C448.337 297.141 448.042 296.023 448.042 294.594C448.042 293.144 448.343 292.015 448.944 291.208C449.55 290.396 450.383 289.99 451.444 289.99C452.556 289.99 453.405 290.422 453.991 291.287H454.07C453.949 290.628 453.888 290.04 453.888 289.523V286.691H456.309V299H454.457L453.991 297.853H453.888C453.339 298.723 452.504 299.158 451.38 299.158ZM452.227 297.236C452.844 297.236 453.295 297.057 453.579 296.698C453.869 296.339 454.028 295.73 454.054 294.871V294.61C454.054 293.66 453.906 292.98 453.611 292.569C453.321 292.157 452.846 291.952 452.187 291.952C451.649 291.952 451.23 292.181 450.929 292.64C450.634 293.093 450.486 293.755 450.486 294.625C450.486 295.496 450.637 296.15 450.937 296.587C451.238 297.02 451.668 297.236 452.227 297.236ZM462.495 291.706C461.983 291.706 461.582 291.87 461.292 292.197C461.002 292.519 460.836 292.977 460.794 293.573H464.18C464.169 292.977 464.013 292.519 463.713 292.197C463.412 291.87 463.006 291.706 462.495 291.706ZM462.835 299.158C461.411 299.158 460.298 298.765 459.496 297.98C458.695 297.194 458.294 296.081 458.294 294.641C458.294 293.159 458.663 292.015 459.402 291.208C460.145 290.396 461.171 289.99 462.479 289.99C463.729 289.99 464.702 290.346 465.398 291.058C466.094 291.77 466.442 292.753 466.442 294.008V295.179H460.738C460.765 295.865 460.968 296.4 461.348 296.785C461.727 297.17 462.26 297.363 462.945 297.363C463.478 297.363 463.982 297.307 464.456 297.196C464.931 297.086 465.427 296.909 465.944 296.666V298.533C465.522 298.744 465.071 298.9 464.591 299C464.111 299.105 463.526 299.158 462.835 299.158ZM483.062 299H479.945L474.914 290.251H474.843C474.943 291.796 474.993 292.898 474.993 293.558V299H472.802V287.435H475.895L480.918 296.097H480.974C480.895 294.594 480.855 293.531 480.855 292.909V287.435H483.062V299ZM489.454 291.706C488.942 291.706 488.541 291.87 488.251 292.197C487.961 292.519 487.795 292.977 487.753 293.573H491.139C491.128 292.977 490.973 292.519 490.672 292.197C490.371 291.87 489.965 291.706 489.454 291.706ZM489.794 299.158C488.37 299.158 487.257 298.765 486.456 297.98C485.654 297.194 485.253 296.081 485.253 294.641C485.253 293.159 485.622 292.015 486.361 291.208C487.104 290.396 488.13 289.99 489.438 289.99C490.688 289.99 491.661 290.346 492.357 291.058C493.053 291.77 493.401 292.753 493.401 294.008V295.179H487.698C487.724 295.865 487.927 296.4 488.307 296.785C488.687 297.17 489.219 297.363 489.905 297.363C490.437 297.363 490.941 297.307 491.416 297.196C491.89 297.086 492.386 296.909 492.903 296.666V298.533C492.481 298.744 492.03 298.9 491.55 299C491.07 299.105 490.485 299.158 489.794 299.158ZM503.06 290.156V291.382L501.676 291.738C501.929 292.134 502.055 292.577 502.055 293.067C502.055 294.016 501.723 294.757 501.059 295.29C500.399 295.817 499.482 296.081 498.306 296.081L497.871 296.057L497.515 296.018C497.267 296.208 497.143 296.419 497.143 296.651C497.143 296.999 497.586 297.173 498.472 297.173H499.975C500.945 297.173 501.684 297.381 502.19 297.798C502.701 298.214 502.957 298.826 502.957 299.633C502.957 300.666 502.525 301.468 501.66 302.038C500.8 302.607 499.564 302.892 497.95 302.892C496.716 302.892 495.772 302.676 495.118 302.243C494.469 301.816 494.145 301.215 494.145 300.44C494.145 299.907 494.311 299.461 494.643 299.103C494.975 298.744 495.463 298.488 496.107 298.336C495.859 298.23 495.643 298.059 495.458 297.821C495.273 297.579 495.181 297.323 495.181 297.054C495.181 296.716 495.279 296.437 495.474 296.215C495.669 295.989 495.951 295.767 496.32 295.551C495.856 295.351 495.487 295.029 495.213 294.586C494.944 294.143 494.809 293.621 494.809 293.02C494.809 292.055 495.123 291.308 495.751 290.781C496.378 290.254 497.275 289.99 498.44 289.99C498.688 289.99 498.981 290.014 499.318 290.061C499.661 290.103 499.88 290.135 499.975 290.156H503.06ZM496.233 300.25C496.233 300.582 496.391 300.843 496.708 301.033C497.03 301.223 497.478 301.318 498.053 301.318C498.918 301.318 499.595 301.199 500.086 300.962C500.576 300.725 500.821 300.4 500.821 299.989C500.821 299.657 500.676 299.427 500.386 299.301C500.096 299.174 499.648 299.111 499.041 299.111H497.792C497.349 299.111 496.977 299.214 496.676 299.419C496.381 299.63 496.233 299.907 496.233 300.25ZM497.111 293.051C497.111 293.531 497.219 293.911 497.436 294.19C497.657 294.47 497.992 294.61 498.44 294.61C498.894 294.61 499.226 294.47 499.437 294.19C499.648 293.911 499.753 293.531 499.753 293.051C499.753 291.986 499.316 291.453 498.44 291.453C497.554 291.453 497.111 291.986 497.111 293.051ZM506.446 294.562C506.446 295.438 506.588 296.099 506.873 296.548C507.163 296.996 507.632 297.22 508.281 297.22C508.924 297.22 509.386 296.999 509.665 296.556C509.95 296.107 510.093 295.443 510.093 294.562C510.093 293.687 509.95 293.03 509.665 292.592C509.381 292.155 508.914 291.936 508.265 291.936C507.622 291.936 507.158 292.155 506.873 292.592C506.588 293.025 506.446 293.681 506.446 294.562ZM512.561 294.562C512.561 296.002 512.181 297.128 511.422 297.94C510.662 298.752 509.605 299.158 508.249 299.158C507.4 299.158 506.651 298.974 506.003 298.604C505.354 298.23 504.856 297.695 504.508 296.999C504.16 296.302 503.986 295.49 503.986 294.562C503.986 293.117 504.363 291.994 505.117 291.192C505.871 290.391 506.931 289.99 508.297 289.99C509.146 289.99 509.895 290.174 510.543 290.544C511.192 290.913 511.69 291.443 512.039 292.134C512.387 292.824 512.561 293.634 512.561 294.562ZM506.952 289.183V288.969C507.859 287.915 508.479 287.121 508.811 286.588H511.516V286.754C511.242 287.029 510.773 287.437 510.108 287.981C509.449 288.518 508.932 288.919 508.558 289.183H506.952ZM518.146 299.158C515.393 299.158 514.016 297.647 514.016 294.625C514.016 293.122 514.391 291.975 515.139 291.184C515.888 290.388 516.962 289.99 518.359 289.99C519.382 289.99 520.3 290.19 521.112 290.591L520.4 292.458C520.02 292.305 519.667 292.181 519.34 292.086C519.013 291.986 518.686 291.936 518.359 291.936C517.104 291.936 516.476 292.827 516.476 294.61C516.476 296.339 517.104 297.204 518.359 297.204C518.823 297.204 519.253 297.144 519.649 297.022C520.044 296.896 520.44 296.701 520.835 296.437V298.502C520.445 298.749 520.049 298.921 519.649 299.016C519.253 299.111 518.752 299.158 518.146 299.158ZM522.789 287.87C522.789 287.084 523.227 286.691 524.102 286.691C524.978 286.691 525.415 287.084 525.415 287.87C525.415 288.244 525.305 288.537 525.083 288.748C524.867 288.954 524.54 289.056 524.102 289.056C523.227 289.056 522.789 288.661 522.789 287.87ZM525.305 299H522.892V290.156H525.305V299ZM529.766 294.562C529.766 295.438 529.909 296.099 530.193 296.548C530.483 296.996 530.953 297.22 531.601 297.22C532.245 297.22 532.706 296.999 532.986 296.556C533.271 296.107 533.413 295.443 533.413 294.562C533.413 293.687 533.271 293.03 532.986 292.592C532.701 292.155 532.234 291.936 531.586 291.936C530.942 291.936 530.478 292.155 530.193 292.592C529.909 293.025 529.766 293.681 529.766 294.562ZM535.881 294.562C535.881 296.002 535.501 297.128 534.742 297.94C533.983 298.752 532.925 299.158 531.57 299.158C530.721 299.158 529.972 298.974 529.323 298.604C528.675 298.23 528.176 297.695 527.828 296.999C527.48 296.302 527.306 295.49 527.306 294.562C527.306 293.117 527.683 291.994 528.437 291.192C529.191 290.391 530.251 289.99 531.617 289.99C532.466 289.99 533.215 290.174 533.864 290.544C534.513 290.913 535.011 291.443 535.359 292.134C535.707 292.824 535.881 293.634 535.881 294.562Z" fill="#005174"/>
</svg>
