<svg width="24" height="24" viewBox="0 0 24 24" fill="none" xmlns="http://www.w3.org/2000/svg">
<path fill-rule="evenodd" clip-rule="evenodd" d="M2 0C0.895431 0 0 0.89543 0 2V22C0 23.1046 0.89543 24 2 24H22C23.1046 24 24 23.1046 24 22V2C24 0.895431 23.1046 0 22 0H2ZM15.38 3C15.3797 4.03743 15.7564 5.03962 16.44 5.82C17.8 7.39 19.68 7.3 19.68 7.3V10.39C18.1374 10.3926 16.633 9.90985 15.38 9.01V15.3C15.38 18.45 12.83 21 9.69 21C6.76 21 4 18.63 4 15.3C4 11.88 7.02 9.2 10.47 9.66V12.82C8.76 12.29 7.1 13.58 7.1 15.3C7.1 16.74 8.28 17.9 9.7 17.9C10.3714 17.8999 11.0167 17.6393 11.4998 17.1729C11.9829 16.7066 12.2662 16.071 12.29 15.4V3H15.38Z" fill="white"/>
</svg>
