<svg width="24" height="24" viewBox="0 0 24 24" fill="none" xmlns="http://www.w3.org/2000/svg">
<path fill-rule="evenodd" clip-rule="evenodd" d="M2 0C0.895431 0 0 0.89543 0 2V22C0 23.1046 0.89543 24 2 24H22C23.1046 24 24 23.1046 24 22V2C24 0.895431 23.1046 0 22 0H2ZM15.78 3H8.22C6.83557 3 5.50784 3.54996 4.5289 4.5289C3.54996 5.50784 3 6.83557 3 8.22V15.78C3 18.66 5.34 21 8.22 21H15.78C17.1644 21 18.4922 20.45 19.4711 19.4711C20.45 18.4922 21 17.1644 21 15.78V8.22C21 5.34 18.66 3 15.78 3ZM5.74897 5.74897C6.35659 5.14136 7.1807 4.8 8.04 4.8H15.96C17.751 4.8 19.2 6.249 19.2 8.04V15.96C19.2 16.8193 18.8586 17.6434 18.251 18.251C17.6434 18.8586 16.8193 19.2 15.96 19.2H8.04C6.249 19.2 4.8 17.751 4.8 15.96V8.04C4.8 7.1807 5.14136 6.35659 5.74897 5.74897ZM17.5205 6.4795C17.3095 6.26853 17.0234 6.15 16.725 6.15C16.4266 6.15 16.1405 6.26853 15.9295 6.4795C15.7185 6.69048 15.6 6.97663 15.6 7.275C15.6 7.57337 15.7185 7.85952 15.9295 8.07049C16.1405 8.28147 16.4266 8.4 16.725 8.4C17.0234 8.4 17.3095 8.28147 17.5205 8.07049C17.7315 7.85952 17.85 7.57337 17.85 7.275C17.85 6.97663 17.7315 6.69048 17.5205 6.4795ZM15.182 8.81802C14.3381 7.97411 13.1935 7.5 12 7.5C10.8065 7.5 9.66193 7.97411 8.81802 8.81802C7.97411 9.66193 7.5 10.8065 7.5 12C7.5 13.1935 7.97411 14.3381 8.81802 15.182C9.66193 16.0259 10.8065 16.5 12 16.5C13.1935 16.5 14.3381 16.0259 15.182 15.182C16.0259 14.3381 16.5 13.1935 16.5 12C16.5 10.8065 16.0259 9.66193 15.182 8.81802ZM10.0908 10.0908C10.5972 9.58446 11.2839 9.3 12 9.3C12.7161 9.3 13.4028 9.58446 13.9092 10.0908C14.4155 10.5972 14.7 11.2839 14.7 12C14.7 12.7161 14.4155 13.4028 13.9092 13.9092C13.4028 14.4155 12.7161 14.7 12 14.7C11.2839 14.7 10.5972 14.4155 10.0908 13.9092C9.58446 13.4028 9.3 12.7161 9.3 12C9.3 11.2839 9.58446 10.5972 10.0908 10.0908Z" fill="white"/>
</svg>
