<svg width="72" height="72" viewBox="0 0 72 72" fill="none" xmlns="http://www.w3.org/2000/svg">
<g clip-path="url(#clip0_1777_3807)">
<path d="M30.4596 72.0004C27.6684 70.836 26.7077 69.3623 26.704 66.2329C26.7021 64.5229 26.6521 62.811 26.7151 61.1029C26.8487 57.4654 25.3446 54.6154 22.6516 52.3523C20.376 50.4416 18.4713 48.2423 17.1249 45.5704C12.1508 35.6948 15.6672 23.6066 25.1405 17.9985C37.9485 10.416 54.0392 18.1373 56.1238 32.9966C57.1847 40.5585 54.8497 47.0254 48.9335 51.9566C45.9401 54.4523 44.3934 57.5423 44.4991 61.4835C44.5491 63.3566 44.5083 65.2316 44.5065 67.1066C44.5046 69.576 43.288 71.2016 40.9289 71.8991C40.8659 71.9179 40.8102 71.9685 40.7527 72.0023C37.3217 72.0004 33.8906 72.0004 30.4596 72.0004ZM41.5298 59.9723C41.9712 55.6185 44.028 52.2604 47.2458 49.4591C52.409 44.961 54.3211 39.1598 53.0414 32.4641C51.1794 22.7292 42.2605 16.6054 32.6017 18.2929C22.9354 19.9823 15.8471 30.1354 18.3063 40.1591C19.2837 44.1379 21.2514 47.4379 24.4636 49.9823C27.0063 51.996 28.7441 54.5648 29.408 57.8029C29.5527 58.506 29.6139 59.226 29.7177 59.9723C33.644 59.9723 37.5498 59.9723 41.5298 59.9723ZM29.7697 63.0398C29.7697 64.6166 29.714 66.156 29.7919 67.6879C29.8346 68.511 30.3539 68.9835 31.092 68.991C34.1002 69.0191 37.1103 69.0266 40.1203 68.9891C41.0699 68.9779 41.5298 68.3966 41.5484 67.3579C41.5706 66.1185 41.5558 64.8773 41.5521 63.636C41.5521 63.4354 41.5243 63.2348 41.5113 63.0398C37.5387 63.0398 33.6366 63.0398 29.7697 63.0398Z" fill="#009FC2"/>
<path d="M0 35.5781C0.330122 34.7438 0.973675 34.4738 1.81938 34.4831C3.62393 34.5038 5.42847 34.4794 7.23302 34.4944C8.23451 34.5019 8.80573 34.98 8.89105 35.8256C8.98007 36.7088 8.47005 37.4494 7.57983 37.4738C5.49895 37.53 3.41621 37.5075 1.33533 37.485C0.656535 37.4775 0.259647 37.0181 0 36.4238C0 36.1406 0 35.8594 0 35.5781Z" fill="#009FC2"/>
<path d="M71.2066 36.4215C70.8728 37.2521 70.2311 37.5278 69.3854 37.5165C67.6031 37.4959 65.8227 37.5109 64.0404 37.5109C63.4376 37.5109 62.8813 37.3984 62.5307 36.834C61.9335 35.8721 62.4974 34.5728 63.6268 34.5315C65.7058 34.4546 67.7904 34.4959 69.8713 34.5165C70.5538 34.524 70.9451 34.9871 71.2085 35.5778C71.2066 35.859 71.2066 36.1403 71.2066 36.4215Z" fill="#009FC2"/>
<path d="M36.0301 0C36.7831 0.31125 37.115 0.883125 37.1113 1.69875C37.1002 3.57 37.1113 5.44125 37.1058 7.31437C37.1039 7.9275 36.9574 8.48062 36.3787 8.80687C35.4162 9.34875 34.1996 8.78062 34.1606 7.66312C34.0864 5.56125 34.1254 3.45375 34.1458 1.35C34.1532 0.661875 34.6094 0.2625 35.1955 0C35.4737 0 35.7519 0 36.0301 0Z" fill="#009FC2"/>
<path d="M15.2944 17.4261C15.0774 17.3155 14.6823 17.2255 14.4468 16.978C13.0521 15.5136 11.6741 14.0324 10.3314 12.5211C9.6526 11.7561 9.89556 10.6555 10.7839 10.2224C11.3626 9.94112 11.9319 10.0049 12.3882 10.4567C13.8236 11.8799 15.2461 13.3161 16.6538 14.7674C17.0989 15.2267 17.1991 15.8136 16.8856 16.3836C16.5759 16.9442 16.1549 17.4092 15.2944 17.4261Z" fill="#009FC2"/>
<path d="M59.5384 61.9666C59.0599 61.691 58.5072 61.4979 58.1178 61.1266C56.8511 59.9229 55.64 58.661 54.4197 57.4104C53.7427 56.7148 53.676 55.9929 54.1915 55.3404C54.7349 54.656 55.64 54.5191 56.2724 55.1323C57.7431 56.561 59.1786 58.0273 60.603 59.501C61.0295 59.9435 61.0648 60.506 60.8162 61.0704C60.59 61.5841 60.2654 61.9441 59.6089 61.7454C59.5866 61.8223 59.5625 61.8954 59.5384 61.9666Z" fill="#009FC2"/>
<path d="M11.4754 61.9085C10.8207 61.7997 10.3088 61.631 10.0714 61.0179C9.82661 60.3897 9.96756 59.8272 10.4405 59.3491C11.7981 57.9785 13.1445 56.5966 14.5169 55.241C15.1809 54.5847 16.0081 54.5941 16.6145 55.2072C17.2154 55.8166 17.2228 56.6585 16.5737 57.3297C15.2477 58.7004 13.9123 60.0597 12.5455 61.3854C12.2729 61.6516 11.8352 61.7397 11.4754 61.9085Z" fill="#009FC2"/>
<path d="M60.9657 12.0858C60.8675 12.262 60.7395 12.6558 60.4835 12.9239C59.1946 14.2702 57.8797 15.592 56.5592 16.9064C56.0417 17.422 55.1719 17.5514 54.5506 17.2589C53.8626 16.9345 53.5881 15.8189 54.163 15.2039C55.6115 13.657 57.1174 12.1627 58.6271 10.6777C59.0444 10.267 59.6007 10.2652 60.1219 10.5202C60.6727 10.7902 60.9491 11.2514 60.9657 12.0858Z" fill="#009FC2"/>
<path d="M48.9554 35.3534C48.9814 36.9415 48.3267 37.6502 47.2362 37.4721C46.4906 37.3521 46.1123 36.8871 46.0121 36.0846C45.886 35.0665 45.8248 34.0202 45.5411 33.0452C44.2707 28.6727 40.4557 25.7515 35.7932 25.4927C34.5988 25.4271 33.9905 24.7765 34.1556 23.7471C34.2872 22.9315 34.8195 22.4777 35.7376 22.5077C40.7283 22.6634 44.5581 24.8796 47.1564 29.1959C48.3341 31.1534 48.8757 33.319 48.9554 35.3534Z" fill="#009FC2"/>
</g>
<defs>
<clipPath id="clip0_1777_3807">
<rect width="72" height="72" fill="white"/>
</clipPath>
</defs>
</svg>
