<svg width="16" height="16" viewBox="0 0 16 16" fill="none"
    xmlns="http://www.w3.org/2000/svg">
    <path d="M11.7041 8.7741C11.3096 9.16462 10.6701 9.16462 10.2756 8.7741L5.03747 3.58865C4.64298 3.19813 4.64298 2.56496 5.03747 2.17444C5.43196 1.78391 6.07155 1.78391 6.46604 2.17444L11.7041 7.35989C12.0986 7.75041 12.0986 8.38357 11.7041 8.7741Z" fill="#7D8082"/>
    <path d="M5.03747 13.9595C4.64298 13.569 4.64298 12.9359 5.03747 12.5453L10.2756 7.35989C10.6701 6.96936 11.3096 6.96936 11.7041 7.35989C12.0986 7.75041 12.0986 8.38357 11.7041 8.7741L6.46604 13.9595C6.07155 14.3501 5.43196 14.3501 5.03747 13.9595Z" fill="#7D8082"/>
</svg>
