<svg width="32" height="16" viewBox="0 0 32 16" fill="none" xmlns="http://www.w3.org/2000/svg">
<path d="M30.9956 8.17206C30.9157 8.47848 30.716 8.698 30.5074 8.91295C28.4928 10.9801 26.487 13.0565 24.4768 15.1282C24.104 15.5124 23.6381 15.6267 23.2609 15.3386C22.9192 15.0779 22.7905 14.9316 22.5242 14.584C22.2802 14.2593 22.3023 13.7516 22.5642 13.4315C22.613 13.3675 22.6707 13.308 22.7284 13.2531C23.8777 12.0686 25.2977 10.66 26.4515 9.47548C26.4914 9.43432 26.5314 9.38402 26.5979 9.31542C26.4959 9.31542 26.0344 9.31542 25.9678 9.31542C22.1914 9.31542 5.88134 9.31542 2.10939 9.31542C1.38607 9.31542 1.00444 8.9221 1 8.18121C1 7.97998 1 7.96626 1 7.76503C1 7.07444 1.37276 6.6857 2.04283 6.6857C3.97761 6.6857 15.3353 6.6857 17.2701 6.6857C19.125 6.6857 24.0818 6.6857 25.9367 6.6857C25.9988 6.6857 26.5047 6.6857 26.6068 6.6857C26.5402 6.6171 26.5047 6.57137 26.4604 6.53021C25.3022 5.33654 23.8377 3.91421 22.6795 2.71598C22.3157 2.34096 22.2047 1.84246 22.4843 1.45829C22.7417 1.10614 22.9236 0.927773 23.2609 0.657941C23.5848 0.40183 24.0374 0.475005 24.3525 0.74941C24.4146 0.804291 24.4679 0.859172 24.5256 0.918626C26.518 2.96752 28.5061 5.02098 30.4986 7.06987C30.7116 7.28939 30.9201 7.51349 31 7.82448C30.9956 7.93882 30.9956 8.05773 30.9956 8.17206Z" fill="#F5F9FA" stroke="#F5F9FA" stroke-width="0.4"/>
</svg>
