<svg width="16" height="16" viewBox="0 0 16 16" fill="none" xmlns="http://www.w3.org/2000/svg">
<path fill-rule="evenodd" clip-rule="evenodd" d="M7.59136 0.80718C7.8321 0.619937 8.1692 0.619937 8.40994 0.80718L14.4099 5.47385C14.5723 5.60015 14.6673 5.79435 14.6673 6.00008V13.3334C14.6673 13.8638 14.4566 14.3726 14.0815 14.7476C13.7065 15.1227 13.1978 15.3334 12.6673 15.3334H3.33398C2.80355 15.3334 2.29484 15.1227 1.91977 14.7476C1.5447 14.3726 1.33398 13.8638 1.33398 13.3334V6.00008C1.33398 5.79435 1.42897 5.60015 1.59136 5.47385L7.59136 0.80718ZM2.66732 6.32614V13.3334C2.66732 13.5102 2.73756 13.6798 2.86258 13.8048C2.9876 13.9298 3.15717 14.0001 3.33398 14.0001H12.6673C12.8441 14.0001 13.0137 13.9298 13.1387 13.8048C13.2637 13.6798 13.334 13.5102 13.334 13.3334V6.32614L8.00065 2.17799L2.66732 6.32614Z" fill="white"/>
<path fill-rule="evenodd" clip-rule="evenodd" d="M5.33398 7.99992C5.33398 7.63173 5.63246 7.33325 6.00065 7.33325H10.0007C10.3688 7.33325 10.6673 7.63173 10.6673 7.99992V14.6666C10.6673 15.0348 10.3688 15.3333 10.0007 15.3333C9.63246 15.3333 9.33398 15.0348 9.33398 14.6666V8.66659H6.66732V14.6666C6.66732 15.0348 6.36884 15.3333 6.00065 15.3333C5.63246 15.3333 5.33398 15.0348 5.33398 14.6666V7.99992Z" fill="white"/>
</svg>
