<svg width="42" height="22" viewBox="0 0 42 22" fill="none" xmlns="http://www.w3.org/2000/svg">
<path d="M1.00592 10.7706C1.11242 10.362 1.37867 10.0693 1.65676 9.78272C4.34297 7.02648 7.01735 4.25804 9.69765 1.4957C10.1947 0.983478 10.8159 0.831029 11.3188 1.2152C11.7744 1.56278 11.946 1.75791 12.301 2.22135C12.6265 2.6543 12.5969 3.33116 12.2478 3.75802C12.1827 3.84339 12.1058 3.92266 12.0289 3.99583C10.4964 5.57519 8.60306 7.45333 7.06469 9.03268C7.01145 9.08756 6.95819 9.15464 6.86944 9.24611C7.00552 9.24611 7.62087 9.24611 7.70962 9.24611C12.7448 9.24611 34.4916 9.24611 39.5208 9.24611C40.4852 9.24611 40.9941 9.77053 41 10.7584C41 11.0267 41 11.045 41 11.3133C41 12.2341 40.503 12.7524 39.6096 12.7524C37.0298 12.7524 21.8862 12.7524 19.3065 12.7524C16.8333 12.7524 10.2242 12.7524 7.75103 12.7524C7.6682 12.7524 6.99369 12.7524 6.85761 12.7524C6.94636 12.8439 6.99369 12.9048 7.05286 12.9597C8.59713 14.5513 10.5497 16.4477 12.0939 18.0454C12.5791 18.5454 12.727 19.2101 12.3543 19.7223C12.0111 20.1918 11.7685 20.4296 11.3188 20.7894C10.8869 21.1309 10.2834 21.0333 9.86332 20.6675C9.78049 20.5943 9.70949 20.5211 9.63257 20.4418C6.97594 17.71 4.32523 14.972 1.6686 12.2402C1.38459 11.9475 1.1065 11.6487 1 11.234C1.00592 11.0816 1.00592 10.923 1.00592 10.7706Z" fill="#E0DDDC" stroke="#E0DDDC" stroke-width="0.4"/>
</svg>
