<svg width="63" height="72" viewBox="0 0 63 72" fill="none" xmlns="http://www.w3.org/2000/svg">
<g clip-path="url(#clip0_1777_3817)">
<path d="M33.6838 -0.000175782C34.3659 0.314824 35.115 0.537012 35.7157 0.963105C36.91 1.80826 37.4408 3.04295 37.4637 4.48717C37.4694 4.83732 37.4651 5.18748 37.4651 5.63607C37.7676 5.63607 38.0187 5.63607 38.2713 5.63607C41.5531 5.63607 44.8335 5.63467 48.1154 5.63607C50.611 5.63748 52.0336 7.04795 52.045 9.52576C52.0465 9.69029 52.0636 9.85623 52.0422 10.0179C51.978 10.5017 52.1649 10.752 52.6372 10.9686C53.6018 11.4087 54.5164 11.9558 55.6137 12.5478C55.9547 12.1709 56.3385 11.6942 56.7766 11.2709C58.2962 9.80279 60.458 9.78592 61.8706 11.2104C63.2532 12.6026 63.2118 14.7261 61.7379 16.1844C57.5414 20.3342 53.3392 24.477 49.127 28.61C47.5689 30.14 45.4899 30.1287 43.926 28.6015C42.0012 26.7214 40.0849 24.8314 38.1757 22.9358C36.6646 21.4353 36.6118 19.3231 38.0301 17.9126C39.4456 16.505 41.6073 16.5373 43.1298 18.0097C44.2485 19.0911 45.3458 20.195 46.3774 21.2159C48.8374 18.7915 51.2659 16.3981 53.7245 13.9751C52.4417 13.0189 50.8564 12.3762 49.127 12.1048C42.2138 11.0234 36.1395 15.8511 35.7186 22.7361C35.319 29.2878 41.1807 34.9859 47.8357 34.5134C53.8144 34.0887 58.2249 29.7434 58.6444 23.8625C58.7029 23.0342 59.1081 22.5997 59.7859 22.632C60.4537 22.6644 60.8503 23.1509 60.7804 23.9806C60.3352 29.254 57.6984 33.0833 52.874 35.3965C52.1948 35.7214 52.025 36.0645 52.0265 36.7508C52.0479 47.0375 52.0122 57.3242 52.065 67.6095C52.0764 69.7625 51.3687 71.2812 49.2355 72.0026C34.2988 72.0026 19.3622 72.0026 4.4255 72.0026C3.04712 71.5372 1.98267 70.7581 1.66447 69.2633C1.59741 68.9454 1.57458 68.6136 1.57458 68.2887C1.57458 48.6462 1.57315 29.0079 1.576 9.36826C1.576 7.08732 3.04998 5.6417 5.36724 5.63607C7.57892 5.63045 9.7906 5.62904 12.0023 5.63748C12.8256 5.64029 13.3007 6.06217 13.2793 6.73014C13.2608 7.34186 12.8085 7.73701 12.0736 7.73982C9.8862 7.74826 7.69735 7.74123 5.50993 7.74404C4.18007 7.74545 3.71776 8.2067 3.71776 9.53139C3.71633 29.0529 3.71633 48.5745 3.71776 68.0961C3.71776 69.4292 4.17294 69.8876 5.50137 69.8876C19.6989 69.889 33.8979 69.889 48.0954 69.8876C49.4053 69.8876 49.8961 69.4334 49.8976 68.1762C49.9018 57.7939 49.9004 47.4129 49.899 37.0306C49.899 36.8464 49.8762 36.6622 49.8605 36.4245C44.9106 37.1881 40.6356 35.9169 37.2025 32.3183C34.6584 29.6534 33.4598 26.419 33.5868 22.7656C33.8736 14.5531 41.5845 8.42607 49.7891 9.99826C50.1744 8.57373 49.5622 7.74545 48.1111 7.74264C44.805 7.73982 41.5003 7.74123 38.1942 7.74264C37.9845 7.74264 37.7747 7.76232 37.4665 7.77779C37.4665 8.31498 37.4794 8.82264 37.4637 9.32889C37.4137 10.9165 36.4163 11.9122 34.7954 11.9164C29.4688 11.9304 24.1408 11.9304 18.8142 11.9164C17.179 11.9122 16.1517 10.8673 16.1417 9.26139C16.1317 7.76092 16.1374 6.26186 16.1402 4.76139C16.1445 2.33701 17.3017 0.815449 19.6689 0.106699C19.7317 0.0870117 19.7845 0.0335742 19.843 -0.00439453C24.4547 -0.000175782 29.0693 -0.000175782 33.6838 -0.000175782ZM26.8348 9.80842C29.4017 9.80842 31.9673 9.79576 34.5343 9.81826C35.1164 9.82389 35.3405 9.63404 35.329 9.05045C35.3019 7.55279 35.339 6.05373 35.3133 4.55467C35.2862 3.03451 34.3316 2.11623 32.792 2.11342C28.7996 2.10498 24.8086 2.10498 20.8162 2.11342C19.2551 2.11623 18.2948 3.07811 18.2834 4.62357C18.2734 6.07482 18.3105 7.52748 18.2677 8.97873C18.2492 9.63826 18.4932 9.8267 19.1367 9.82107C21.7023 9.79295 24.2692 9.80842 26.8348 9.80842ZM40.6927 18.9448C40.3888 19.0095 40.2461 19.0264 40.112 19.07C39.0646 19.4173 38.8449 20.5972 39.6939 21.4437C41.5331 23.2761 43.3895 25.0929 45.2388 26.9154C46.2133 27.8759 46.8497 27.8731 47.8371 26.9C51.8909 22.9076 55.9433 18.9139 59.9956 14.9201C60.1469 14.7711 60.3067 14.6276 60.4337 14.4589C60.8546 13.9034 60.7947 13.1286 60.3096 12.6617C59.8073 12.1808 59.0625 12.1428 58.4917 12.5872C58.2877 12.7461 58.1093 12.9387 57.9252 13.1201C54.4607 16.5331 50.9977 19.9475 47.5318 23.359C46.7712 24.1072 46.2961 24.1058 45.5341 23.3604C44.2514 22.1061 42.9886 20.8306 41.6901 19.5917C41.3847 19.3006 40.9667 19.1192 40.6927 18.9448Z" fill="#009FC2"/>
<path d="M15.0111 42.8839C14.9897 45.2239 13.0548 47.1096 10.6819 47.1012C8.28616 47.0928 6.36129 45.1564 6.38697 42.7798C6.41123 40.4398 8.35322 38.5456 10.7162 38.5596C13.1176 38.5723 15.0325 40.5017 15.0111 42.8839ZM8.53016 42.8445C8.53587 44.0286 9.52042 44.9961 10.7119 44.9876C11.9033 44.9806 12.8736 44.0046 12.8679 42.8192C12.8622 41.6421 11.8676 40.662 10.6862 40.6718C9.49616 40.6817 8.52445 41.6618 8.53016 42.8445Z" fill="#009FC2"/>
<path d="M6.38676 29.8842C6.37677 27.5372 8.27738 25.6233 10.6446 25.5993C13.0546 25.5754 15.0037 27.4697 15.0123 29.8448C15.0209 32.22 13.076 34.1493 10.6845 34.1381C8.31734 34.1254 6.39675 32.2256 6.38676 29.8842ZM12.8691 29.8884C12.8791 28.7001 11.9188 27.7242 10.7245 27.7101C9.52877 27.6961 8.54279 28.6537 8.53137 29.8392C8.52138 31.0247 9.4831 32.0062 10.6746 32.0245C11.8574 32.0414 12.8591 31.0668 12.8691 29.8884Z" fill="#009FC2"/>
<path d="M6.39906 55.5693C6.43902 53.2307 8.40099 51.3533 10.7625 51.3927C13.1796 51.4335 15.0574 53.3516 15.0217 55.7422C14.9861 58.109 13.0227 59.9539 10.587 59.9104C8.23262 59.8682 6.35911 57.9261 6.39906 55.5693ZM12.8771 55.6832C12.8871 54.4893 11.9368 53.5246 10.7354 53.5091C9.54107 53.4936 8.55224 54.4485 8.54082 55.6325C8.52941 56.8264 9.48114 57.7897 10.6826 57.8024C11.8926 57.8122 12.8671 56.8714 12.8771 55.6832Z" fill="#009FC2"/>
<path d="M26.5568 39.3417C29.3593 39.3403 32.1617 39.3248 34.9626 39.3585C35.3465 39.3628 35.8288 39.516 36.0899 39.7734C36.5921 40.2684 36.2968 41.1332 35.6047 41.354C35.3408 41.4384 35.044 41.4454 34.7629 41.4454C29.2294 41.4496 23.6974 41.4496 18.1639 41.4482C18.0212 41.4482 17.8785 41.4553 17.7373 41.4426C17.0395 41.3807 16.59 40.9223 16.6271 40.319C16.6628 39.7354 17.0952 39.3487 17.7943 39.3459C20.7152 39.336 23.636 39.3417 26.5568 39.3417Z" fill="#009FC2"/>
<path d="M26.4765 57.0592C29.3032 57.0592 32.1284 57.0437 34.9551 57.0775C35.3403 57.0817 35.8212 57.235 36.0866 57.4923C36.5903 57.9803 36.3006 58.8536 35.6114 59.0772C35.3275 59.17 35.005 59.1742 34.6996 59.1756C29.2133 59.1812 23.7283 59.1798 18.2419 59.1798C18.0764 59.1798 17.908 59.1883 17.7439 59.1728C17.0448 59.1123 16.5939 58.6567 16.6267 58.0534C16.6581 57.4698 17.0904 57.0733 17.7853 57.069C20.3494 57.055 22.915 57.062 25.4805 57.0606C25.8116 57.0592 26.144 57.0592 26.4765 57.0592Z" fill="#009FC2"/>
<path d="M24.1937 52.1606C26.2855 52.1606 28.3774 52.1578 30.4706 52.162C31.3125 52.1634 31.8033 52.5417 31.819 53.1815C31.8347 53.8481 31.321 54.2671 30.4521 54.2686C26.2912 54.2728 22.1304 54.2728 17.9711 54.2686C17.1363 54.2671 16.6426 53.8762 16.6255 53.2322C16.607 52.5543 17.0978 52.1648 17.991 52.1634C20.0572 52.1592 22.1247 52.1606 24.1937 52.1606Z" fill="#009FC2"/>
<path d="M24.2246 33.5113C22.0614 33.5113 19.8997 33.5225 17.7365 33.5042C17.0559 33.4986 16.6279 33.0641 16.625 32.4734C16.6236 31.8913 17.0531 31.4736 17.7266 31.4131C17.8921 31.3977 18.059 31.4061 18.226 31.4061C19.2719 31.4061 20.3178 31.4061 21.3637 31.4061C24.2874 31.4061 27.2097 31.4061 30.1333 31.4075C30.3702 31.4075 30.6114 31.3977 30.8439 31.4314C31.4532 31.52 31.8756 31.9883 31.8114 32.5339C31.7415 33.1175 31.3976 33.4775 30.784 33.5014C30.1433 33.5267 29.5012 33.5141 28.8591 33.5155C27.3138 33.5169 25.7699 33.5155 24.2246 33.5155C24.2246 33.5141 24.2246 33.5127 24.2246 33.5113Z" fill="#009FC2"/>
<path d="M24.1486 28.6254C22.1524 28.6254 20.1562 28.6282 18.16 28.6226C17.9003 28.6226 17.5592 28.6774 17.3994 28.5424C17.0884 28.2781 16.7359 27.9251 16.6646 27.5595C16.5676 27.0673 16.9171 26.6721 17.4579 26.5653C17.7105 26.516 17.9773 26.5188 18.2384 26.5188C22.2309 26.516 26.2233 26.5174 30.2157 26.5174C30.2628 26.5174 30.3113 26.5174 30.3584 26.5174C31.3144 26.5287 31.8253 26.8971 31.8224 27.5735C31.8196 28.2584 31.3159 28.6226 30.3513 28.624C28.2823 28.6282 26.2162 28.6254 24.1486 28.6254Z" fill="#009FC2"/>
<path d="M22.0405 46.3447C20.685 46.3447 19.3309 46.3532 17.9753 46.3419C17.1235 46.3349 16.6441 45.9538 16.6255 45.3112C16.607 44.6432 17.1035 44.2255 17.9896 44.2227C20.7235 44.2129 23.4574 44.2129 26.1914 44.2227C27.0432 44.2255 27.5241 44.6137 27.5412 45.2549C27.5597 45.9229 27.0589 46.3349 26.1757 46.3419C24.7987 46.3532 23.4189 46.3447 22.0405 46.3447Z" fill="#009FC2"/>
<path d="M12.0191 17.723C10.9018 17.723 9.78458 17.7301 8.66733 17.7216C7.83831 17.7146 7.36886 17.311 7.38313 16.643C7.39597 16.0074 7.85971 15.6151 8.64735 15.6137C10.9047 15.6066 13.1635 15.6066 15.4208 15.6137C16.2441 15.6165 16.725 16.0313 16.7107 16.6937C16.6964 17.3251 16.2284 17.716 15.4422 17.723C14.3007 17.7315 13.1592 17.723 12.0191 17.723Z" fill="#009FC2"/>
</g>
<defs>
<clipPath id="clip0_1777_3817">
<rect width="63" height="72" fill="white"/>
</clipPath>
</defs>
</svg>
