<svg width="16" height="24" viewBox="0 0 16 24" fill="none" xmlns="http://www.w3.org/2000/svg">
<path d="M2.4438 10.8389C3.03553 10.2531 3.99492 10.2531 4.58666 10.8389L12.4438 18.617C13.0355 19.2028 13.0355 20.1526 12.4438 20.7383C11.8521 21.3241 10.8927 21.3241 10.3009 20.7383L2.4438 12.9602C1.85207 12.3744 1.85207 11.4246 2.4438 10.8389Z" fill="#005174" fill-opacity="0.88"/>
<path d="M12.4438 3.06068C13.0355 3.64646 13.0355 4.59621 12.4438 5.182L4.58666 12.9602C3.99492 13.546 3.03553 13.546 2.4438 12.9602C1.85207 12.3744 1.85207 11.4246 2.4438 10.8389L10.3009 3.06068C10.8927 2.47489 11.8521 2.47489 12.4438 3.06068Z" fill="#005174" fill-opacity="0.88"/>
</svg>
