<svg width="42" height="22" viewBox="0 0 42 22" fill="none" xmlns="http://www.w3.org/2000/svg">
<path d="M40.9941 11.2294C40.8876 11.638 40.6213 11.9307 40.3432 12.2173C37.657 14.9735 34.9826 17.742 32.3023 20.5043C31.8053 21.0165 31.1841 21.169 30.6812 20.7848C30.2256 20.4372 30.054 20.2421 29.699 19.7787C29.3735 19.3457 29.4031 18.6688 29.7522 18.242C29.8173 18.1566 29.8942 18.0773 29.9711 18.0042C31.5036 16.4248 33.3969 14.5467 34.9353 12.9673C34.9886 12.9124 35.0418 12.8454 35.1306 12.7539C34.9945 12.7539 34.3791 12.7539 34.2904 12.7539C29.2552 12.7539 7.50845 12.7539 2.47919 12.7539C1.51476 12.7539 1.00592 12.2295 1 11.2416C1 10.9733 1 10.955 1 10.6867C1 9.76592 1.49701 9.2476 2.39044 9.2476C4.97015 9.2476 20.1138 9.2476 22.6935 9.2476C25.1667 9.2476 31.7758 9.2476 34.249 9.2476C34.3318 9.2476 35.0063 9.2476 35.1424 9.2476C35.0536 9.15613 35.0063 9.09515 34.9471 9.04027C33.4029 7.44873 31.4503 5.55228 29.9061 3.95464C29.4209 3.45461 29.273 2.78994 29.6457 2.27772C29.9889 1.80818 30.2315 1.57036 30.6812 1.21059C31.1131 0.869107 31.7166 0.966673 32.1367 1.33255C32.2195 1.40572 32.2905 1.4789 32.3674 1.55817C35.0241 4.29002 37.6748 7.02797 40.3314 9.75982C40.6154 10.0525 40.8935 10.3513 41 10.766C40.9941 10.9184 40.9941 11.077 40.9941 11.2294Z" fill="#4F4C4B" stroke="#4F4C4B" stroke-width="0.4"/>
</svg>
