<svg width="80" height="26" viewBox="0 0 80 26" fill="none"
    xmlns="http://www.w3.org/2000/svg">
    <path d="M12.2511 0.00324975C6.41185 0.00324975 1.48145 0.00324975 1.48145 0.00324975C1.48145 0.00324975 13.8311 4.09593 8.45651 12.4091C8.45651 12.4091 17.5902 5.97003 12.2511 0" fill="#005174" fill-opacity="0.88"/>
    <path d="M8.74961 7.68164C2.59001 10.1825 -2.65387 16.7321 9.03054 25.9999H18.963C18.963 25.9999 -1.06089 14.3715 8.74961 7.68271" fill="#005174" fill-opacity="0.88"/>
    <path d="M0.578334 16.25C0.578334 16.25 -1.23209 20.9366 1.55343 26H8.2963C4.93239 24.4675 0.439649 20.1882 0.578334 16.2511" fill="#005174" fill-opacity="0.88"/>
    <path d="M20.9571 10.9319C18.358 10.9319 16.8889 12.9777 16.8889 15.7222C16.8889 18.9222 18.4126 20.3861 21.1944 20.3861C22.2493 20.3961 23.296 20.197 24.2765 19.7999L24.0959 18.246C23.2805 18.634 22.3913 18.8338 21.4916 18.8311C19.7158 18.8311 18.8064 17.8806 18.8568 15.7779H24.537C24.5711 15.4741 24.5897 15.1686 24.5926 14.8628C24.5926 12.7044 23.4994 10.9319 20.9529 10.9319H20.9571ZM18.8905 14.4062C19.0543 13.1781 19.8062 12.3701 20.8857 12.3701C22.0146 12.3701 22.7129 13.1556 22.6709 14.4062H18.8905Z" fill="#005174" fill-opacity="0.88"/>
    <path d="M31.342 10.9319C29.7876 10.9319 28.6814 11.7505 28.1466 12.945L28.1272 12.9253C28.2145 12.3265 28.2576 11.7219 28.256 11.1166H26.3704V20.3865H28.3469V15.9056C28.3469 14.0575 29.3644 12.5843 30.7488 12.5843C31.802 12.5843 32.117 13.2565 32.117 14.4127V20.3865H34.0741V13.8947C34.0741 12.2554 33.4246 10.9319 31.342 10.9319Z" fill="#005174" fill-opacity="0.88"/>
    <path d="M40.0729 10.9319C37.3758 10.9319 35.8518 12.9777 35.8518 15.7222C35.8518 18.9222 37.4324 20.3861 40.318 20.3861C41.4127 20.3963 42.4989 20.1972 43.5163 19.7999L43.3311 18.246C42.4864 18.6328 41.5657 18.8326 40.6339 18.8311C38.7952 18.8311 37.8485 17.8805 37.9008 15.7779H43.7963C43.8311 15.4296 43.8518 15.1189 43.8518 14.8627C43.8518 12.7044 42.7167 10.9319 40.0773 10.9319H40.0729ZM37.939 14.4062C38.1056 13.1781 38.8867 12.3701 40.0021 12.3701C41.1732 12.3701 41.8987 13.1556 41.8616 14.4062H37.939Z" fill="#005174" fill-opacity="0.88"/>
    <path d="M47.3507 13.1869H47.3153C47.4311 12.5103 47.4917 11.8251 47.4966 11.1383H45.6296V20.3865H47.5877V16.6263C47.5877 13.8523 48.4681 12.5673 50.2792 12.9022L50.3704 10.9485C48.6675 10.7794 47.7528 11.9302 47.3507 13.1825" fill="#005174" fill-opacity="0.88"/>
    <path d="M57.3289 18.5367C56.8842 18.6513 56.4265 18.7101 55.9667 18.7116C54.2283 18.7116 53.0221 17.6383 53.0221 15.6762C53.0221 13.5981 54.4235 12.5215 56.1609 12.5215C57.0391 12.525 57.9088 12.6922 58.7238 13.0142L59.0652 11.3559C58.1171 11.0752 57.1324 10.9324 56.1423 10.9319C52.8967 10.9319 50.963 13.0861 50.963 15.8361C50.963 18.8362 52.9883 20.3861 55.7835 20.3861C56.9709 20.3964 58.1497 20.1881 59.2593 19.7721V15.4497H57.3289V18.5367Z" fill="#005174" fill-opacity="0.88"/>
    <path d="M63.1111 11.2273H61.037V20.3864H63.1111V11.2273Z" fill="#005174" fill-opacity="0.88"/>
    <path d="M79.9999 20.2014C79.9631 19.4352 79.9462 18.502 79.9462 17.7176V14.001C79.9462 12.1358 79.189 10.9319 76.4579 10.9319C75.3822 10.9385 74.3165 11.1422 73.3119 11.5333L73.491 13.1974C74.2461 12.7212 75.3268 12.4643 76.1525 12.4643C77.5512 12.4643 78.0199 13.2305 78.0199 14.3574C76.1641 14.3574 74.3462 14.8197 73.4025 15.7946C73.15 16.0522 72.949 16.3571 72.8106 16.6924C72.6319 17.1087 72.5612 17.5645 72.6053 18.0164C72.6493 18.4683 72.8067 18.9011 73.0623 19.2736C73.6132 20.1094 74.2261 20.4058 75.252 20.3855C76.6717 20.3545 77.785 19.5807 78.2168 18.502L78.2358 18.5213C78.1674 19.0785 78.1371 19.6399 78.1452 20.2014H79.9999ZM78.023 15.8556C78.023 17.1547 77.1415 18.852 75.8292 18.852C75.5649 18.8654 75.3014 18.8121 75.0624 18.6968C74.5705 18.4325 74.0734 17.1333 75.0234 16.3543C75.3231 16.1335 75.6645 15.9783 76.0261 15.8984C76.6813 15.7387 77.3536 15.6636 78.0272 15.6747L78.023 15.8556Z" fill="#005174" fill-opacity="0.88"/>
    <path d="M67.0226 13.4057C67.0226 12.7113 67.997 12.3955 69.1417 12.3945C69.7818 12.3883 70.4174 12.4987 71.0153 12.7199L71.1061 11.201C70.6318 11.0122 69.8672 10.9308 69.3054 10.9319C66.6885 10.9319 64.8957 12.0169 64.8889 13.5934C64.8777 16.7398 69.5375 16.0357 69.533 17.8617C69.533 18.6114 68.8345 18.7405 67.711 18.7416C66.9744 18.7416 65.8128 18.4617 65.1468 18.1742L65.084 19.9297C65.8897 20.207 66.7352 20.3611 67.59 20.3865C70.1688 20.3865 71.6992 19.3807 71.7037 17.6794C71.716 14.661 67.0181 15.1633 67.0237 13.4078" fill="#005174" fill-opacity="0.88"/>
</svg>
