<svg width="140" height="84" viewBox="0 0 140 84" fill="none" xmlns="http://www.w3.org/2000/svg">
<path d="M23.6875 78V65.1504H25.7969V78H23.6875ZM39.9121 78H37.3193L31.0264 67.7432H30.9473C30.9707 68.0889 30.9912 68.4551 31.0088 68.8418C31.0322 69.2285 31.0498 69.627 31.0615 70.0371C31.0791 70.4473 31.0938 70.8633 31.1055 71.2852V78H29.1895V65.1504H31.7646L38.0488 75.3369H38.1104C38.0986 75.0381 38.084 74.6953 38.0664 74.3086C38.0488 73.9219 38.0312 73.5234 38.0137 73.1133C38.002 72.6973 37.9932 72.2959 37.9873 71.9092V65.1504H39.9121V78ZM54.6953 71.5576C54.6953 72.5479 54.5693 73.4502 54.3174 74.2646C54.0713 75.0732 53.6992 75.7705 53.2012 76.3564C52.7031 76.9365 52.0791 77.3848 51.3291 77.7012C50.5791 78.0176 49.7002 78.1758 48.6924 78.1758C47.667 78.1758 46.7764 78.0176 46.0205 77.7012C45.2705 77.3848 44.6465 76.9336 44.1484 76.3477C43.6562 75.7617 43.2871 75.0615 43.041 74.2471C42.7949 73.4326 42.6719 72.5303 42.6719 71.54C42.6719 70.2158 42.8887 69.0615 43.3223 68.0771C43.7617 67.0869 44.4268 66.3193 45.3174 65.7744C46.2139 65.2236 47.3447 64.9482 48.71 64.9482C50.0459 64.9482 51.1562 65.2207 52.041 65.7656C52.9258 66.3105 53.5879 67.0781 54.0273 68.0684C54.4727 69.0527 54.6953 70.2158 54.6953 71.5576ZM44.8867 71.5576C44.8867 72.5479 45.0215 73.4062 45.291 74.1328C45.5605 74.8535 45.9736 75.4102 46.5303 75.8027C47.0928 76.1895 47.8135 76.3828 48.6924 76.3828C49.5771 76.3828 50.2979 76.1895 50.8545 75.8027C51.4111 75.4102 51.8213 74.8535 52.085 74.1328C52.3486 73.4062 52.4805 72.5479 52.4805 71.5576C52.4805 70.0518 52.1787 68.874 51.5752 68.0244C50.9775 67.1689 50.0225 66.7412 48.71 66.7412C47.8311 66.7412 47.1074 66.9346 46.5391 67.3213C45.9766 67.708 45.5605 68.2617 45.291 68.9824C45.0215 69.6973 44.8867 70.5557 44.8867 71.5576ZM66.9824 65.1504L62.4912 78H60.2588L55.7676 65.1504H57.9297L60.6367 73.2012C60.7188 73.4355 60.8066 73.7197 60.9004 74.0537C61 74.3877 61.0908 74.7246 61.1729 75.0645C61.2607 75.4043 61.3281 75.7061 61.375 75.9697C61.4219 75.7061 61.4863 75.4043 61.5684 75.0645C61.6562 74.7246 61.7471 74.3877 61.8408 74.0537C61.9346 73.7197 62.0225 73.4326 62.1045 73.1924L64.8203 65.1504H66.9824ZM76.6328 78L75.376 74.4316H70.4629L69.2061 78H66.9824L71.7637 65.0977H74.1016L78.874 78H76.6328ZM74.8311 72.6211L73.6094 69.1055C73.5625 68.9531 73.4951 68.7393 73.4072 68.4639C73.3193 68.1826 73.2314 67.8984 73.1436 67.6113C73.0557 67.3184 72.9824 67.0723 72.9238 66.873C72.8652 67.1133 72.792 67.3828 72.7041 67.6816C72.6221 67.9746 72.54 68.25 72.458 68.5078C72.3818 68.7656 72.3232 68.9648 72.2822 69.1055L71.0518 72.6211H74.8311ZM86.0459 66.7588C85.4307 66.7588 84.8799 66.8701 84.3936 67.0928C83.9131 67.3154 83.5059 67.6377 83.1719 68.0596C82.8379 68.4756 82.583 68.9824 82.4072 69.5801C82.2314 70.1719 82.1436 70.8398 82.1436 71.584C82.1436 72.5801 82.2842 73.4385 82.5654 74.1592C82.8467 74.874 83.2744 75.4248 83.8486 75.8115C84.4229 76.1924 85.1494 76.3828 86.0283 76.3828C86.5732 76.3828 87.1035 76.3301 87.6191 76.2246C88.1348 76.1191 88.668 75.9756 89.2188 75.7939V77.5869C88.6973 77.792 88.1699 77.9414 87.6367 78.0352C87.1035 78.1289 86.4883 78.1758 85.791 78.1758C84.4785 78.1758 83.3887 77.9033 82.5215 77.3584C81.6602 76.8135 81.0156 76.0459 80.5879 75.0557C80.166 74.0654 79.9551 72.9053 79.9551 71.5752C79.9551 70.6025 80.0898 69.7119 80.3594 68.9033C80.6289 68.0947 81.0215 67.3975 81.5371 66.8115C82.0527 66.2197 82.6885 65.7656 83.4443 65.4492C84.2061 65.127 85.0762 64.9658 86.0547 64.9658C86.6992 64.9658 87.332 65.0391 87.9531 65.1855C88.5801 65.3262 89.1602 65.5283 89.6934 65.792L88.9551 67.5322C88.5098 67.3213 88.0439 67.1396 87.5576 66.9873C87.0713 66.835 86.5674 66.7588 86.0459 66.7588ZM87.4873 80.3555C87.4873 80.9766 87.2793 81.46 86.8633 81.8057C86.4473 82.1514 85.7705 82.3242 84.833 82.3242C84.6104 82.3242 84.4053 82.3096 84.2178 82.2803C84.0303 82.251 83.8691 82.2188 83.7344 82.1836V80.9795C83.875 81.0146 84.0508 81.0469 84.2617 81.0762C84.4727 81.1055 84.666 81.1201 84.8418 81.1201C85.1465 81.1201 85.3867 81.0674 85.5625 80.9619C85.7441 80.8564 85.835 80.6777 85.835 80.4258C85.835 80.1562 85.7031 79.9424 85.4395 79.7842C85.1758 79.626 84.7861 79.5146 84.2705 79.4502L85.0088 78H86.3447L85.9844 78.7559C86.2539 78.8262 86.5 78.9287 86.7227 79.0635C86.9512 79.1982 87.1357 79.3711 87.2764 79.582C87.417 79.7988 87.4873 80.0566 87.4873 80.3555ZM99.9414 78L98.6846 74.4316H93.7715L92.5146 78H90.291L95.0723 65.0977H97.4102L102.183 78H99.9414ZM98.1396 72.6211L96.918 69.1055C96.8711 68.9531 96.8037 68.7393 96.7158 68.4639C96.6279 68.1826 96.54 67.8984 96.4521 67.6113C96.3643 67.3184 96.291 67.0723 96.2324 66.873C96.1738 67.1133 96.1006 67.3828 96.0127 67.6816C95.9307 67.9746 95.8486 68.25 95.7666 68.5078C95.6904 68.7656 95.6318 68.9648 95.5908 69.1055L94.3604 72.6211H98.1396ZM92.752 63.9551C92.7871 63.5449 92.8633 63.1875 92.9805 62.8828C93.0977 62.5723 93.25 62.3145 93.4375 62.1094C93.6309 61.8984 93.8506 61.7402 94.0967 61.6348C94.3486 61.5293 94.6211 61.4766 94.9141 61.4766C95.1719 61.4766 95.418 61.5264 95.6523 61.626C95.8926 61.7256 96.124 61.8428 96.3467 61.9775C96.5752 62.1064 96.7949 62.2207 97.0059 62.3203C97.2227 62.4199 97.4307 62.4697 97.6299 62.4697C97.8584 62.4697 98.0518 62.3877 98.21 62.2236C98.374 62.0596 98.4971 61.8047 98.5791 61.459H99.6602C99.5898 62.2676 99.3584 62.8857 98.9658 63.3135C98.5732 63.7354 98.084 63.9463 97.498 63.9463C97.252 63.9463 97.0088 63.8965 96.7686 63.7969C96.5342 63.6914 96.3057 63.5742 96.083 63.4453C95.8604 63.3164 95.6406 63.2021 95.4238 63.1025C95.207 63.0029 94.9961 62.9531 94.791 62.9531C94.5566 62.9531 94.3574 63.0352 94.1934 63.1992C94.0352 63.3633 93.918 63.6152 93.8418 63.9551H92.752ZM115.287 71.5576C115.287 72.5479 115.161 73.4502 114.909 74.2646C114.663 75.0732 114.291 75.7705 113.793 76.3564C113.295 76.9365 112.671 77.3848 111.921 77.7012C111.171 78.0176 110.292 78.1758 109.284 78.1758C108.259 78.1758 107.368 78.0176 106.612 77.7012C105.862 77.3848 105.238 76.9336 104.74 76.3477C104.248 75.7617 103.879 75.0615 103.633 74.2471C103.387 73.4326 103.264 72.5303 103.264 71.54C103.264 70.2158 103.48 69.0615 103.914 68.0771C104.354 67.0869 105.019 66.3193 105.909 65.7744C106.806 65.2236 107.937 64.9482 109.302 64.9482C110.638 64.9482 111.748 65.2207 112.633 65.7656C113.518 66.3105 114.18 67.0781 114.619 68.0684C115.064 69.0527 115.287 70.2158 115.287 71.5576ZM105.479 71.5576C105.479 72.5479 105.613 73.4062 105.883 74.1328C106.152 74.8535 106.565 75.4102 107.122 75.8027C107.685 76.1895 108.405 76.3828 109.284 76.3828C110.169 76.3828 110.89 76.1895 111.446 75.8027C112.003 75.4102 112.413 74.8535 112.677 74.1328C112.94 73.4062 113.072 72.5479 113.072 71.5576C113.072 70.0518 112.771 68.874 112.167 68.0244C111.569 67.1689 110.614 66.7412 109.302 66.7412C108.423 66.7412 107.699 66.9346 107.131 67.3213C106.568 67.708 106.152 68.2617 105.883 68.9824C105.613 69.6973 105.479 70.5557 105.479 71.5576Z" fill="white"/>
<path d="M22.827 0.00562457C12.9002 0.00562457 4.51855 0.00562457 4.51855 0.00562457C4.51855 0.00562457 25.513 7.08912 16.3762 21.4773C16.3762 21.4773 31.9035 10.3327 22.827 0" fill="white"/>
<path d="M16.8743 13.2953C6.40293 17.6236 -2.51167 28.9595 17.3518 44.9999H34.237C34.237 44.9999 0.1964 24.8739 16.8743 13.2971" fill="white"/>
<path d="M2.98317 28.125C2.98317 28.125 -0.0945587 36.2364 4.64083 45.0001H16.1037C10.3851 42.3476 2.7474 34.9412 2.98317 28.1269" fill="white"/>
<path d="M37.6271 18.9208C33.2087 18.9208 30.7112 22.4616 30.7112 27.2117C30.7112 32.7502 33.3015 35.2838 38.0305 35.2838C39.8238 35.3011 41.6032 34.9565 43.2701 34.2693L42.9631 31.5798C41.5769 32.2514 40.0652 32.5972 38.5358 32.5925C35.517 32.5925 33.971 30.9473 34.0567 27.3082H43.7129C43.7709 26.7823 43.8025 26.2536 43.8075 25.7242C43.8075 21.9886 41.9491 18.9208 37.6199 18.9208H37.6271ZM34.1138 24.9341C34.3923 22.8084 35.6705 21.4099 37.5057 21.4099C39.4248 21.4099 40.612 22.7695 40.5405 24.9341H34.1138Z" fill="white"/>
<path d="M55.2814 18.9208C52.6389 18.9208 50.7583 20.3375 49.8493 22.405L49.8161 22.3709C49.9646 21.3345 50.0378 20.2881 50.0351 19.2404H46.8296V35.2845H50.1897V27.5292C50.1897 24.3306 51.9194 21.7808 54.273 21.7808C56.0634 21.7808 56.5989 22.9441 56.5989 24.9453V35.2845H59.9259V24.0487C59.9259 21.2114 58.8218 18.9208 55.2814 18.9208Z" fill="white"/>
<path d="M70.1239 18.9208C65.5387 18.9208 62.948 22.4616 62.948 27.2117C62.948 32.7502 65.635 35.2838 70.5406 35.2838C72.4014 35.3016 74.248 34.957 75.9776 34.2692L75.6628 31.5798C74.2268 32.2494 72.6616 32.5951 71.0776 32.5925C67.9517 32.5925 66.3424 30.9473 66.4313 27.3082H76.4536C76.5128 26.7054 76.548 26.1675 76.548 25.7242C76.548 21.9886 74.6184 18.9208 70.1313 18.9208H70.1239ZM66.4961 24.934C66.7795 22.8084 68.1073 21.4099 70.0036 21.4099C71.9943 21.4099 73.2276 22.7695 73.1647 24.934H66.4961Z" fill="white"/>
<path d="M82.4961 22.8237H82.436C82.6328 21.6526 82.7359 20.4666 82.7441 19.278H79.5703V35.2845H82.899V28.7765C82.899 23.9753 84.3957 21.7513 87.4746 22.3309L87.6296 18.9495C84.7347 18.6568 83.1798 20.6487 82.4961 22.8161" fill="white"/>
<path d="M99.4593 32.0829C98.7032 32.2813 97.9251 32.383 97.1436 32.3857C94.1882 32.3857 92.1376 30.528 92.1376 27.132C92.1376 23.5354 94.5201 21.6721 97.4736 21.6721C98.9666 21.6781 100.445 21.9675 101.831 22.5248L102.411 19.6546C100.799 19.1688 99.1252 18.9216 97.4421 18.9208C91.9244 18.9208 88.6372 22.6493 88.6372 27.4088C88.6372 32.6012 92.0802 35.2838 96.8321 35.2838C98.8506 35.3016 100.855 34.9412 102.741 34.2212V26.74H99.4593V32.0829Z" fill="white"/>
<path d="M109.289 19.432H105.763V35.2843H109.289V19.432Z" fill="white"/>
<path d="M138 34.9642C137.937 33.6381 137.909 32.023 137.909 30.6653V24.2328C137.909 21.0045 136.621 18.9208 131.979 18.9208C130.15 18.9322 128.338 19.2848 126.63 19.9617L126.935 22.8418C128.219 22.0176 130.056 21.5731 131.459 21.5731C133.837 21.5731 134.634 22.8992 134.634 24.8496C131.479 24.8496 128.389 25.6497 126.784 27.337C126.355 27.7829 126.013 28.3106 125.778 28.891C125.474 29.6113 125.354 30.4003 125.429 31.1824C125.504 31.9645 125.772 32.7137 126.206 33.3584C127.143 34.8049 128.185 35.318 129.929 35.2828C132.342 35.2291 134.235 33.89 134.969 32.023L135.001 32.0563C134.885 33.0208 134.833 33.9924 134.847 34.9642H138ZM134.639 27.4426C134.639 29.6911 133.141 32.6286 130.91 32.6286C130.46 32.6518 130.013 32.5596 129.606 32.3601C128.77 31.9026 127.925 29.6541 129.54 28.3057C130.049 27.9236 130.63 27.655 131.245 27.5167C132.358 27.2403 133.501 27.1102 134.646 27.1296L134.639 27.4426Z" fill="white"/>
<path d="M115.938 23.2023C115.938 22.0005 117.595 21.454 119.541 21.4521C120.629 21.4415 121.709 21.6326 122.726 22.0155L122.88 19.3865C122.074 19.0598 120.774 18.9189 119.819 18.9208C115.37 18.9208 112.323 20.7987 112.311 23.5272C112.292 28.973 120.214 27.7542 120.206 30.9147C120.206 32.2123 119.019 32.4358 117.109 32.4376C115.856 32.4376 113.882 31.9531 112.749 31.4555L112.643 34.4939C114.012 34.9738 115.45 35.2406 116.903 35.2845C121.287 35.2845 123.889 33.5437 123.896 30.5992C123.917 25.375 115.931 26.2445 115.94 23.2061" fill="white"/>
<line y1="54.5" x2="140" y2="54.5" stroke="white"/>
</svg>
