<svg width="24" height="24" viewBox="0 0 24 24" fill="none" xmlns="http://www.w3.org/2000/svg">
<path d="M4.32959 0C1.93119 0 0 1.93119 0 4.32959V19.382C0 21.7804 1.93119 23.7116 4.32959 23.7116H12.4879V14.4419H10.0367V11.1044H12.4879V8.25313C12.4879 6.01298 13.9362 3.95614 17.2724 3.95614C18.6232 3.95614 19.6221 4.08582 19.6221 4.08582L19.5435 7.20242C19.5435 7.20242 18.5248 7.19279 17.4132 7.19279C16.2101 7.19279 16.0172 7.74712 16.0172 8.66737V11.1045H19.6391L19.4813 14.4419H16.0172V23.7116H19.382C21.7804 23.7116 23.7116 21.7805 23.7116 19.382V4.32962C23.7116 1.93121 21.7804 2.37116e-05 19.382 2.37116e-05H4.32957L4.32959 0Z" fill="white"/>
</svg>
