<svg width="194" height="64" viewBox="0 0 194 64" fill="none" xmlns="http://www.w3.org/2000/svg">
<path d="M29.7102 0.00799938C15.55 0.00799938 3.59375 0.00799938 3.59375 0.00799938C3.59375 0.00799938 33.5417 10.0823 20.5083 30.5456C20.5083 30.5456 42.6576 14.6955 29.7102 0" fill="white"/>
<path d="M21.2194 18.9087C6.28234 25.0645 -6.43407 41.1867 21.9006 63.9997H45.9868C45.9868 63.9997 -2.57109 35.3761 21.2194 18.9113" fill="white"/>
<path d="M1.40246 40C1.40246 40 -2.98783 51.5362 3.76706 64.0001H20.1185C11.961 60.2278 1.06615 49.6941 1.40246 40.0027" fill="white"/>
<path d="M50.8224 26.9097C44.5197 26.9097 40.957 31.9455 40.957 38.7013C40.957 46.5782 44.6521 50.1816 51.3979 50.1816C53.9559 50.2061 56.4942 49.716 58.872 48.7386L58.434 44.9136C56.4566 45.8688 54.3003 46.3605 52.1186 46.3539C47.8123 46.3539 45.607 44.0141 45.7293 38.8384H59.5035C59.5864 38.0905 59.6314 37.3385 59.6385 36.5856C59.6385 31.2728 56.9876 26.9097 50.8122 26.9097H50.8224ZM45.8108 35.4619C46.208 32.4388 48.0313 30.4498 50.6492 30.4498C53.3867 30.4498 55.0802 32.3834 54.9783 35.4619H45.8108Z" fill="white"/>
<path d="M76.0054 26.9097C72.2361 26.9097 69.5534 28.9246 68.2567 31.865L68.2095 31.8166C68.4213 30.3425 68.5257 28.8543 68.5218 27.3643H63.9492V50.1825H68.7423V39.1527C68.7423 34.6036 71.2097 30.9772 74.567 30.9772C77.121 30.9772 77.8849 32.6317 77.8849 35.4779V50.1825H82.6307V34.2028C82.6307 30.1675 81.0558 26.9097 76.0054 26.9097Z" fill="white"/>
<path d="M97.1777 26.9097C90.637 26.9097 86.9414 31.9455 86.9414 38.7012C86.9414 46.5781 90.7744 50.1815 97.772 50.1815C100.426 50.2068 103.061 49.7167 105.528 48.7386L105.079 44.9136C103.03 45.8659 100.798 46.3576 98.5381 46.3539C94.079 46.3539 91.7835 44.014 91.9103 38.8384H106.207C106.291 37.9811 106.341 37.2161 106.341 36.5856C106.341 31.2728 103.589 26.9097 97.1882 26.9097H97.1777ZM92.0027 35.4619C92.4069 32.4388 94.3009 30.4498 97.006 30.4498C99.8457 30.4498 101.605 32.3834 101.515 35.4619H92.0027Z" fill="white"/>
<path d="M114.826 32.4604H114.74C115.021 30.7949 115.168 29.1082 115.18 27.4177H110.652V50.1825H115.401V40.9267C115.401 34.0984 117.536 30.9353 121.928 31.7596L122.149 26.9505C118.019 26.5343 115.801 29.3671 114.826 32.4497" fill="white"/>
<path d="M139.023 45.6292C137.945 45.9113 136.835 46.056 135.72 46.0598C131.504 46.0598 128.579 43.4177 128.579 38.5879C128.579 33.4727 131.978 30.8227 136.191 30.8227C138.321 30.8312 140.429 31.2428 142.406 32.0354L143.234 27.9533C140.935 27.2624 138.547 26.9108 136.146 26.9097C128.275 26.9097 123.586 32.2124 123.586 38.9816C123.586 46.3663 128.497 50.1816 135.276 50.1816C138.155 50.2069 141.014 49.6943 143.704 48.6703V38.0304H139.023V45.6292Z" fill="white"/>
<path d="M153.045 27.6367H148.016V50.1822H153.045V27.6367Z" fill="white"/>
<path d="M193.998 49.727C193.909 47.8409 193.868 45.5439 193.868 43.613V34.4645C193.868 29.8731 192.031 26.9097 185.409 26.9097C182.8 26.9259 180.216 27.4274 177.78 28.3901L178.214 32.4862C180.045 31.314 182.666 30.6818 184.668 30.6818C188.06 30.6818 189.196 32.5679 189.196 35.3417C184.696 35.3417 180.288 36.4797 177.999 38.8794C177.387 39.5136 176.9 40.2641 176.564 41.0895C176.131 42.114 175.959 43.2361 176.066 44.3484C176.173 45.4607 176.555 46.5262 177.174 47.4432C178.51 49.5005 179.997 50.2301 182.484 50.1801C185.927 50.1037 188.627 48.1992 189.674 45.5439L189.72 45.5913C189.554 46.963 189.481 48.3449 189.5 49.727H193.998ZM189.204 39.0296C189.204 42.2275 187.066 46.4053 183.884 46.4053C183.243 46.4383 182.604 46.3071 182.025 46.0233C180.832 45.3727 179.626 42.1748 181.93 40.2571C182.657 39.7137 183.485 39.3316 184.362 39.1349C185.95 38.7418 187.581 38.5568 189.214 38.5844L189.204 39.0296Z" fill="white"/>
<path d="M162.53 32.999C162.53 31.2897 164.892 30.5125 167.669 30.5098C169.221 30.4947 170.762 30.7665 172.212 31.3111L172.432 27.572C171.282 27.1073 169.428 26.907 168.066 26.9097C161.719 26.9097 157.372 29.5804 157.356 33.461C157.328 41.2061 168.628 39.4728 168.617 43.9677C168.617 45.8131 166.924 46.131 164.199 46.1336C162.413 46.1336 159.596 45.4446 157.981 44.7368L157.829 49.0581C159.782 49.7407 161.833 50.12 163.905 50.1825C170.159 50.1825 173.87 47.7067 173.881 43.519C173.911 36.089 162.519 37.3256 162.532 33.0043" fill="white"/>
</svg>
