<svg width="136" height="46" viewBox="0 0 136 46" fill="none" xmlns="http://www.w3.org/2000/svg">
<path d="M20.827 0.505625C10.9002 0.505625 2.51852 0.505625 2.51852 0.505625C2.51852 0.505625 23.513 7.58912 14.3761 21.9773C14.3761 21.9773 29.9035 10.8327 20.827 0.5" fill="white"/>
<path d="M14.8743 13.7952C4.40301 18.1235 -4.51159 29.4594 15.3519 45.4998H32.2371C32.2371 45.4998 -1.80352 25.3738 14.8743 13.797" fill="white"/>
<path d="M0.983167 28.625C0.983167 28.625 -2.09456 36.7364 2.64083 45.5001H14.1037C8.38506 42.8476 0.747403 35.4412 0.983167 28.6269" fill="white"/>
<path d="M35.627 19.4207C31.2086 19.4207 28.7111 22.9615 28.7111 27.7116C28.7111 33.2501 31.3015 35.7837 36.0305 35.7837C37.8237 35.8009 39.6032 35.4564 41.2701 34.7691L40.963 32.0797C39.5768 32.7513 38.0652 33.097 36.5357 33.0924C33.5169 33.0924 31.9709 31.4472 32.0566 27.8081H41.7128C41.7709 27.2821 41.8024 26.7534 41.8074 26.2241C41.8074 22.4885 39.949 19.4207 35.6199 19.4207H35.627ZM32.1137 25.4339C32.3922 23.3083 33.6704 21.9098 35.5056 21.9098C37.4247 21.9098 38.6119 23.2694 38.5405 25.4339H32.1137Z" fill="white"/>
<path d="M53.2814 19.4207C50.6389 19.4207 48.7583 20.8374 47.8493 22.9049L47.8162 22.8708C47.9646 21.8344 48.0378 20.788 48.0351 19.7403H44.8296V35.7843H48.1897V28.029C48.1897 24.8305 49.9194 22.2807 52.273 22.2807C54.0635 22.2807 54.5989 23.444 54.5989 25.4452V35.7843H57.9259V24.5486C57.9259 21.7113 56.8218 19.4207 53.2814 19.4207Z" fill="white"/>
<path d="M68.124 19.4207C63.5388 19.4207 60.9481 22.9615 60.9481 27.7116C60.9481 33.25 63.6351 35.7837 68.5407 35.7837C70.4015 35.8014 72.2481 35.4569 73.9777 34.7691L73.6629 32.0797C72.2269 32.7492 70.6617 33.095 69.0777 33.0924C65.9518 33.0924 64.3425 31.4472 64.4314 27.8081H74.4537C74.5129 27.2052 74.5481 26.6674 74.5481 26.2241C74.5481 22.4885 72.6185 19.4207 68.1314 19.4207H68.124ZM64.4962 25.4339C64.7796 23.3083 66.1074 21.9098 68.0037 21.9098C69.9944 21.9098 71.2277 23.2694 71.1648 25.4339H64.4962Z" fill="white"/>
<path d="M80.4962 23.3235H80.436C80.6329 22.1524 80.7359 20.9665 80.7441 19.7779H77.5704V35.7843H80.8991V29.2764C80.8991 24.4752 82.3957 22.2511 85.4747 22.8308L85.6296 19.4493C82.7348 19.1567 81.1798 21.1485 80.4962 23.316" fill="white"/>
<path d="M97.4592 32.5828C96.7031 32.7812 95.9251 32.8829 95.1435 32.8856C92.1882 32.8856 90.1376 31.0279 90.1376 27.6319C90.1376 24.0353 92.52 22.172 95.4735 22.172C96.9666 22.178 98.4449 22.4674 99.8305 23.0247L100.411 20.1545C98.7991 19.6687 97.1251 19.4215 95.442 19.4207C89.9244 19.4207 86.6372 23.1492 86.6372 27.9087C86.6372 33.1011 90.0801 35.7837 94.832 35.7837C96.8505 35.8015 98.8545 35.4411 100.741 34.7211V27.2399H97.4592V32.5828Z" fill="white"/>
<path d="M107.289 19.9321H103.763V35.7845H107.289V19.9321Z" fill="white"/>
<path d="M136 35.4641C135.937 34.1379 135.909 32.5229 135.909 31.1652V24.7327C135.909 21.5043 134.621 19.4207 129.979 19.4207C128.15 19.4321 126.338 19.7847 124.63 20.4616L124.935 23.3417C126.219 22.5175 128.056 22.073 129.459 22.073C131.837 22.073 132.634 23.3991 132.634 25.3494C129.479 25.3494 126.389 26.1496 124.784 27.8369C124.355 28.2828 124.013 28.8105 123.778 29.3908C123.474 30.1112 123.354 30.9001 123.429 31.6823C123.504 32.4644 123.771 33.2136 124.206 33.8583C125.142 35.3048 126.185 35.8179 127.928 35.7827C130.342 35.7289 132.235 34.3898 132.969 32.5229L133.001 32.5562C132.885 33.5206 132.833 34.4923 132.847 35.4641H136ZM132.639 27.9425C132.639 30.191 131.141 33.1285 128.91 33.1285C128.46 33.1517 128.013 33.0595 127.606 32.8599C126.77 32.4025 125.925 30.1539 127.54 28.8056C128.049 28.4235 128.63 28.1549 129.244 28.0165C130.358 27.7401 131.501 27.6101 132.646 27.6294L132.639 27.9425Z" fill="white"/>
<path d="M113.938 23.7022C113.938 22.5004 115.595 21.9539 117.541 21.952C118.629 21.9414 119.709 22.1325 120.726 22.5154L120.88 19.8864C120.074 19.5596 118.774 19.4188 117.819 19.4207C113.37 19.4207 110.323 21.2985 110.311 24.0271C110.292 29.4729 118.214 28.2541 118.206 31.4146C118.206 32.7122 117.019 32.9356 115.109 32.9375C113.856 32.9375 111.882 32.453 110.75 31.9554L110.643 34.9938C112.013 35.4737 113.45 35.7404 114.903 35.7843C119.287 35.7843 121.889 34.0436 121.896 31.0991C121.917 25.8749 113.931 26.7443 113.94 23.706" fill="white"/>
</svg>
