<svg width="30" height="24" viewBox="0 0 30 24" fill="none" xmlns="http://www.w3.org/2000/svg">
<path d="M29.7056 2.80871C28.8927 4.0178 27.8955 5.04848 26.7138 5.90077C26.7255 6.12935 26.7313 6.38771 26.7313 6.67583C26.7313 8.27673 26.4979 9.87956 26.0311 11.4843C25.5643 13.0891 24.8513 14.6252 23.892 16.0925C22.9327 17.5599 21.79 18.8598 20.4639 19.9923C19.1378 21.1248 17.5438 22.0279 15.6818 22.7014C13.8199 23.3749 11.8243 23.7116 9.69525 23.7116C6.37247 23.7116 3.31251 22.8146 0.515381 21.0205C1.01184 21.0758 1.48798 21.1034 1.94381 21.1034C4.71973 21.1034 7.19907 20.2484 9.38183 18.5383C8.08754 18.5146 6.92841 18.1162 5.90443 17.3431C4.88046 16.57 4.17578 15.5821 3.7904 14.3794C4.17132 14.452 4.54728 14.4882 4.91827 14.4882C5.45229 14.4882 5.97775 14.4186 6.49466 14.2793C5.11342 14.0027 3.96755 13.3147 3.05707 12.2154C2.14663 11.1162 1.6914 9.84743 1.6914 8.40917V8.33505C2.53922 8.80448 3.44355 9.05418 4.40439 9.08415C3.58615 8.53866 2.93741 7.82732 2.45817 6.95013C1.97889 6.07294 1.73925 5.12367 1.73925 4.10232C1.73925 3.02513 2.00918 2.02207 2.54903 1.09313C4.05111 2.93642 5.8712 4.40964 8.00929 5.51278C10.1474 6.61594 12.4412 7.2286 14.8907 7.35076C14.7862 6.91537 14.7339 6.46101 14.7337 5.9877C14.7337 4.33506 15.3185 2.92396 16.4882 1.75437C17.6579 0.584791 19.0691 0 20.7217 0C22.4519 0 23.9094 0.630025 25.0939 1.89007C26.4473 1.62199 27.7146 1.1371 28.8957 0.435392C28.4406 1.86741 27.5638 2.97212 26.2653 3.74951C27.4588 3.60769 28.6055 3.29409 29.7055 2.80871H29.7056Z" fill="white"/>
</svg>
