<?xml version="1.0" standalone="no"?>
<!DOCTYPE svg PUBLIC "-//W3C//DTD SVG 20010904//EN"
 "http://www.w3.org/TR/2001/REC-SVG-20010904/DTD/svg10.dtd">
<svg version="1.0" xmlns="http://www.w3.org/2000/svg"
 width="420.000000pt" height="420.000000pt" viewBox="0 0 420.000000 420.000000"
 preserveAspectRatio="xMidYMid meet">
<metadata>
Created by potrace 1.14, written by Peter Selinger 2001-2017
</metadata>
<g transform="translate(0.000000,420.000000) scale(0.100000,-0.100000)"
fill="#000000" stroke="none">
<path d="M1010 4071 c0 -5 28 -19 63 -31 181 -67 462 -217 628 -338 163 -117
272 -222 368 -352 60 -80 141 -231 141 -261 0 -8 4 -19 8 -24 5 -6 14 -32 20
-60 54 -237 11 -479 -129 -723 -26 -45 -42 -79 -36 -75 82 47 408 360 487 468
25 33 48 62 51 65 17 14 111 166 151 245 92 181 129 321 129 493 0 56 -2 106
-5 110 -2 4 -7 24 -10 45 -9 57 -44 153 -79 220 -50 94 -53 99 -104 162 l-49
60 -817 3 c-468 1 -817 -2 -817 -7z"/>
<path d="M1940 2867 c-404 -204 -676 -475 -797 -796 -13 -35 -21 -66 -18 -69
2 -3 1 -10 -4 -16 -23 -30 -36 -128 -36 -266 0 -204 31 -336 131 -549 31 -67
129 -239 143 -251 3 -3 21 -27 40 -55 39 -56 140 -182 188 -235 17 -19 41 -46
53 -60 12 -14 27 -24 32 -22 5 1 7 -1 4 -6 -6 -10 329 -331 345 -332 4 0 28
-19 53 -42 l47 -43 744 0 c410 0 744 3 742 8 -1 5 -16 16 -32 25 -16 9 -34 20
-40 25 -5 4 -82 55 -170 113 -177 117 -425 295 -445 319 -7 8 -18 15 -25 15
-8 0 -15 3 -17 8 -1 4 -50 46 -108 92 -57 47 -116 95 -130 107 -152 131 -200
176 -314 288 -110 110 -161 165 -257 280 -19 22 -37 42 -40 45 -7 6 -64 87
-129 184 -94 140 -187 355 -206 474 -3 19 -8 44 -10 56 -2 11 -4 50 -5 86 0
57 2 84 16 165 7 47 48 143 87 209 40 68 154 191 248 268 25 21 43 37 40 37
-3 0 -61 -28 -130 -62z"/>
<path d="M826 1472 c-42 -184 -50 -247 -50 -432 0 -145 6 -216 29 -355 21
-131 92 -339 165 -486 l38 -75 505 1 c278 0 508 3 512 6 3 4 -8 12 -25 17 -46
16 -214 117 -309 185 -182 131 -370 306 -496 462 -16 20 -37 45 -45 54 -16 19
-15 18 -96 146 -62 96 -108 192 -143 292 -30 86 -35 108 -47 228 -3 39 -7 71
-9 72 -1 2 -14 -50 -29 -115z"/>
</g>
</svg>
