<svg width="185" height="102" viewBox="0 0 185 102" fill="none" xmlns="http://www.w3.org/2000/svg">
<g clip-path="url(#clip0_1002_11695)">
<path d="M10 73.2158L180 73.2158" stroke="#F1F1F1" stroke-width="0.530234" stroke-miterlimit="10"/>
<path d="M10 57.2153L180 57.2153" stroke="#F1F1F1" stroke-width="0.530234" stroke-miterlimit="10"/>
<path d="M10 39.6792L180 39.6792" stroke="#F1F1F1" stroke-width="0.530234" stroke-miterlimit="10"/>
<path d="M10 22.9585L180 22.9585" stroke="#F1F1F1" stroke-width="0.530234" stroke-miterlimit="10"/>
<path d="M10 6.14258L180 6.14259" stroke="#F1F1F1" stroke-width="0.530234" stroke-miterlimit="10"/>
<path d="M175.539 87.6808L175.539 17.1001L92.3015 34.2001L10.4075 75.6846L10.4075 87.6808L175.539 87.6808Z" fill="#009FC2" fill-opacity="0.2" stroke="#009FC2" stroke-width="0.530234"/>
<ellipse cx="92.0767" cy="34.4248" rx="1.12434" ry="1.125" fill="#009FC2"/>
<ellipse cx="174.948" cy="17.3252" rx="1.12434" ry="1.125" fill="#009FC2"/>
<path d="M92.75 84.7803L92.75 89.8891" stroke="#808080" stroke-width="1.02622" stroke-miterlimit="10"/>
<path d="M10 84.7803L10 89.8891" stroke="#808080" stroke-width="2" stroke-miterlimit="10"/>
<path d="M175.503 84.7803L175.503 89.8891" stroke="#808080" stroke-width="1.02622" stroke-miterlimit="10"/>
<path d="M10.4078 0L10.4075 87.7212L180.026 87.7212" stroke="#808080" stroke-width="1.20925" stroke-miterlimit="10"/>
</g>
<path d="M170.672 99H166.68V98.1602L168.113 96.7109C168.538 96.276 168.815 95.9753 168.945 95.8086C169.076 95.6393 169.169 95.4831 169.227 95.3398C169.284 95.1966 169.312 95.0482 169.312 94.8945C169.312 94.6654 169.249 94.4948 169.121 94.3828C168.996 94.2708 168.828 94.2148 168.617 94.2148C168.396 94.2148 168.181 94.2656 167.973 94.3672C167.764 94.4688 167.547 94.6133 167.32 94.8008L166.664 94.0234C166.945 93.7839 167.178 93.6146 167.363 93.5156C167.548 93.4167 167.75 93.3411 167.969 93.2891C168.188 93.2344 168.432 93.207 168.703 93.207C169.06 93.207 169.375 93.2721 169.648 93.4023C169.922 93.5326 170.134 93.7148 170.285 93.9492C170.436 94.1836 170.512 94.4518 170.512 94.7539C170.512 95.0169 170.465 95.2643 170.371 95.4961C170.28 95.7253 170.137 95.9609 169.941 96.2031C169.749 96.4453 169.408 96.7904 168.918 97.2383L168.184 97.9297V97.9844H170.672V99ZM175.211 96.1445C175.211 97.1419 175.047 97.8802 174.719 98.3594C174.393 98.8385 173.891 99.0781 173.211 99.0781C172.552 99.0781 172.055 98.8307 171.719 98.3359C171.385 97.8411 171.219 97.1107 171.219 96.1445C171.219 95.1367 171.382 94.3945 171.707 93.918C172.033 93.4388 172.534 93.1992 173.211 93.1992C173.87 93.1992 174.367 93.4492 174.703 93.9492C175.042 94.4492 175.211 95.181 175.211 96.1445ZM172.418 96.1445C172.418 96.8451 172.478 97.3477 172.598 97.6523C172.72 97.9544 172.924 98.1055 173.211 98.1055C173.492 98.1055 173.695 97.9518 173.82 97.6445C173.945 97.3372 174.008 96.8372 174.008 96.1445C174.008 95.444 173.944 94.9414 173.816 94.6367C173.691 94.3294 173.49 94.1758 173.211 94.1758C172.927 94.1758 172.724 94.3294 172.602 94.6367C172.479 94.9414 172.418 95.444 172.418 96.1445ZM179.812 99H175.82V98.1602L177.254 96.7109C177.678 96.276 177.956 95.9753 178.086 95.8086C178.216 95.6393 178.31 95.4831 178.367 95.3398C178.424 95.1966 178.453 95.0482 178.453 94.8945C178.453 94.6654 178.389 94.4948 178.262 94.3828C178.137 94.2708 177.969 94.2148 177.758 94.2148C177.536 94.2148 177.322 94.2656 177.113 94.3672C176.905 94.4688 176.688 94.6133 176.461 94.8008L175.805 94.0234C176.086 93.7839 176.319 93.6146 176.504 93.5156C176.689 93.4167 176.891 93.3411 177.109 93.2891C177.328 93.2344 177.573 93.207 177.844 93.207C178.201 93.207 178.516 93.2721 178.789 93.4023C179.062 93.5326 179.275 93.7148 179.426 93.9492C179.577 94.1836 179.652 94.4518 179.652 94.7539C179.652 95.0169 179.605 95.2643 179.512 95.4961C179.421 95.7253 179.277 95.9609 179.082 96.2031C178.889 96.4453 178.548 96.7904 178.059 97.2383L177.324 97.9297V97.9844H179.812V99ZM184.383 99H180.391V98.1602L181.824 96.7109C182.249 96.276 182.526 95.9753 182.656 95.8086C182.786 95.6393 182.88 95.4831 182.938 95.3398C182.995 95.1966 183.023 95.0482 183.023 94.8945C183.023 94.6654 182.96 94.4948 182.832 94.3828C182.707 94.2708 182.539 94.2148 182.328 94.2148C182.107 94.2148 181.892 94.2656 181.684 94.3672C181.475 94.4688 181.258 94.6133 181.031 94.8008L180.375 94.0234C180.656 93.7839 180.889 93.6146 181.074 93.5156C181.259 93.4167 181.461 93.3411 181.68 93.2891C181.898 93.2344 182.143 93.207 182.414 93.207C182.771 93.207 183.086 93.2721 183.359 93.4023C183.633 93.5326 183.845 93.7148 183.996 93.9492C184.147 94.1836 184.223 94.4518 184.223 94.7539C184.223 95.0169 184.176 95.2643 184.082 95.4961C183.991 95.7253 183.848 95.9609 183.652 96.2031C183.46 96.4453 183.118 96.7904 182.629 97.2383L181.895 97.9297V97.9844H184.383V99Z" fill="#7D8082"/>
<path d="M87.6719 99H83.6797V98.1602L85.1133 96.7109C85.5378 96.276 85.8151 95.9753 85.9453 95.8086C86.0755 95.6393 86.1693 95.4831 86.2266 95.3398C86.2839 95.1966 86.3125 95.0482 86.3125 94.8945C86.3125 94.6654 86.2487 94.4948 86.1211 94.3828C85.9961 94.2708 85.8281 94.2148 85.6172 94.2148C85.3958 94.2148 85.181 94.2656 84.9727 94.3672C84.7643 94.4688 84.5469 94.6133 84.3203 94.8008L83.6641 94.0234C83.9453 93.7839 84.1784 93.6146 84.3633 93.5156C84.5482 93.4167 84.75 93.3411 84.9688 93.2891C85.1875 93.2344 85.4323 93.207 85.7031 93.207C86.0599 93.207 86.375 93.2721 86.6484 93.4023C86.9219 93.5326 87.1341 93.7148 87.2852 93.9492C87.4362 94.1836 87.5117 94.4518 87.5117 94.7539C87.5117 95.0169 87.4648 95.2643 87.3711 95.4961C87.2799 95.7253 87.1367 95.9609 86.9414 96.2031C86.7487 96.4453 86.4076 96.7904 85.918 97.2383L85.1836 97.9297V97.9844H87.6719V99ZM92.2109 96.1445C92.2109 97.1419 92.0469 97.8802 91.7188 98.3594C91.3932 98.8385 90.8906 99.0781 90.2109 99.0781C89.5521 99.0781 89.0547 98.8307 88.7188 98.3359C88.3854 97.8411 88.2188 97.1107 88.2188 96.1445C88.2188 95.1367 88.3815 94.3945 88.707 93.918C89.0326 93.4388 89.5339 93.1992 90.2109 93.1992C90.8698 93.1992 91.3672 93.4492 91.7031 93.9492C92.0417 94.4492 92.2109 95.181 92.2109 96.1445ZM89.418 96.1445C89.418 96.8451 89.4779 97.3477 89.5977 97.6523C89.7201 97.9544 89.9245 98.1055 90.2109 98.1055C90.4922 98.1055 90.6953 97.9518 90.8203 97.6445C90.9453 97.3372 91.0078 96.8372 91.0078 96.1445C91.0078 95.444 90.944 94.9414 90.8164 94.6367C90.6914 94.3294 90.4896 94.1758 90.2109 94.1758C89.9271 94.1758 89.724 94.3294 89.6016 94.6367C89.4792 94.9414 89.418 95.444 89.418 96.1445ZM96.8125 99H92.8203V98.1602L94.2539 96.7109C94.6784 96.276 94.9557 95.9753 95.0859 95.8086C95.2161 95.6393 95.3099 95.4831 95.3672 95.3398C95.4245 95.1966 95.4531 95.0482 95.4531 94.8945C95.4531 94.6654 95.3893 94.4948 95.2617 94.3828C95.1367 94.2708 94.9688 94.2148 94.7578 94.2148C94.5365 94.2148 94.3216 94.2656 94.1133 94.3672C93.9049 94.4688 93.6875 94.6133 93.4609 94.8008L92.8047 94.0234C93.0859 93.7839 93.319 93.6146 93.5039 93.5156C93.6888 93.4167 93.8906 93.3411 94.1094 93.2891C94.3281 93.2344 94.5729 93.207 94.8438 93.207C95.2005 93.207 95.5156 93.2721 95.7891 93.4023C96.0625 93.5326 96.2747 93.7148 96.4258 93.9492C96.5768 94.1836 96.6523 94.4518 96.6523 94.7539C96.6523 95.0169 96.6055 95.2643 96.5117 95.4961C96.4206 95.7253 96.2773 95.9609 96.082 96.2031C95.8893 96.4453 95.5482 96.7904 95.0586 97.2383L94.3242 97.9297V97.9844H96.8125V99ZM100.375 99H99.168V95.6953L99.1797 95.1523L99.1992 94.5586C98.9987 94.7591 98.8594 94.8906 98.7812 94.9531L98.125 95.4805L97.543 94.7539L99.3828 93.2891H100.375V99Z" fill="#7D8082"/>
<path d="M4.67188 99H0.679688V98.1602L2.11328 96.7109C2.53776 96.276 2.8151 95.9753 2.94531 95.8086C3.07552 95.6393 3.16927 95.4831 3.22656 95.3398C3.28385 95.1966 3.3125 95.0482 3.3125 94.8945C3.3125 94.6654 3.2487 94.4948 3.12109 94.3828C2.99609 94.2708 2.82812 94.2148 2.61719 94.2148C2.39583 94.2148 2.18099 94.2656 1.97266 94.3672C1.76432 94.4688 1.54688 94.6133 1.32031 94.8008L0.664062 94.0234C0.945312 93.7839 1.17839 93.6146 1.36328 93.5156C1.54818 93.4167 1.75 93.3411 1.96875 93.2891C2.1875 93.2344 2.43229 93.207 2.70312 93.207C3.0599 93.207 3.375 93.2721 3.64844 93.4023C3.92188 93.5326 4.13411 93.7148 4.28516 93.9492C4.4362 94.1836 4.51172 94.4518 4.51172 94.7539C4.51172 95.0169 4.46484 95.2643 4.37109 95.4961C4.27995 95.7253 4.13672 95.9609 3.94141 96.2031C3.7487 96.4453 3.40755 96.7904 2.91797 97.2383L2.18359 97.9297V97.9844H4.67188V99ZM9.21094 96.1445C9.21094 97.1419 9.04688 97.8802 8.71875 98.3594C8.39323 98.8385 7.89062 99.0781 7.21094 99.0781C6.55208 99.0781 6.05469 98.8307 5.71875 98.3359C5.38542 97.8411 5.21875 97.1107 5.21875 96.1445C5.21875 95.1367 5.38151 94.3945 5.70703 93.918C6.03255 93.4388 6.53385 93.1992 7.21094 93.1992C7.86979 93.1992 8.36719 93.4492 8.70312 93.9492C9.04167 94.4492 9.21094 95.181 9.21094 96.1445ZM6.41797 96.1445C6.41797 96.8451 6.47786 97.3477 6.59766 97.6523C6.72005 97.9544 6.92448 98.1055 7.21094 98.1055C7.49219 98.1055 7.69531 97.9518 7.82031 97.6445C7.94531 97.3372 8.00781 96.8372 8.00781 96.1445C8.00781 95.444 7.94401 94.9414 7.81641 94.6367C7.69141 94.3294 7.48958 94.1758 7.21094 94.1758C6.92708 94.1758 6.72396 94.3294 6.60156 94.6367C6.47917 94.9414 6.41797 95.444 6.41797 96.1445ZM13.8125 99H9.82031V98.1602L11.2539 96.7109C11.6784 96.276 11.9557 95.9753 12.0859 95.8086C12.2161 95.6393 12.3099 95.4831 12.3672 95.3398C12.4245 95.1966 12.4531 95.0482 12.4531 94.8945C12.4531 94.6654 12.3893 94.4948 12.2617 94.3828C12.1367 94.2708 11.9688 94.2148 11.7578 94.2148C11.5365 94.2148 11.3216 94.2656 11.1133 94.3672C10.9049 94.4688 10.6875 94.6133 10.4609 94.8008L9.80469 94.0234C10.0859 93.7839 10.319 93.6146 10.5039 93.5156C10.6888 93.4167 10.8906 93.3411 11.1094 93.2891C11.3281 93.2344 11.5729 93.207 11.8438 93.207C12.2005 93.207 12.5156 93.2721 12.7891 93.4023C13.0625 93.5326 13.2747 93.7148 13.4258 93.9492C13.5768 94.1836 13.6523 94.4518 13.6523 94.7539C13.6523 95.0169 13.6055 95.2643 13.5117 95.4961C13.4206 95.7253 13.2773 95.9609 13.082 96.2031C12.8893 96.4453 12.5482 96.7904 12.0586 97.2383L11.3242 97.9297V97.9844H13.8125V99ZM18.3516 96.1445C18.3516 97.1419 18.1875 97.8802 17.8594 98.3594C17.5339 98.8385 17.0312 99.0781 16.3516 99.0781C15.6927 99.0781 15.1953 98.8307 14.8594 98.3359C14.526 97.8411 14.3594 97.1107 14.3594 96.1445C14.3594 95.1367 14.5221 94.3945 14.8477 93.918C15.1732 93.4388 15.6745 93.1992 16.3516 93.1992C17.0104 93.1992 17.5078 93.4492 17.8438 93.9492C18.1823 94.4492 18.3516 95.181 18.3516 96.1445ZM15.5586 96.1445C15.5586 96.8451 15.6185 97.3477 15.7383 97.6523C15.8607 97.9544 16.0651 98.1055 16.3516 98.1055C16.6328 98.1055 16.8359 97.9518 16.9609 97.6445C17.0859 97.3372 17.1484 96.8372 17.1484 96.1445C17.1484 95.444 17.0846 94.9414 16.957 94.6367C16.832 94.3294 16.6302 94.1758 16.3516 94.1758C16.0677 94.1758 15.8646 94.3294 15.7422 94.6367C15.6198 94.9414 15.5586 95.444 15.5586 96.1445Z" fill="#7D8082"/>
<defs>
<clipPath id="clip0_1002_11695">
<rect width="170" height="90" fill="white" transform="translate(10)"/>
</clipPath>
</defs>
</svg>
