<svg width="170" height="90" viewBox="0 0 170 90" fill="none" xmlns="http://www.w3.org/2000/svg">
<g clip-path="url(#clip0_1002_11660)">
<path d="M0 73.2158L170 73.2158" stroke="#F1F1F1" stroke-width="0.47693" stroke-miterlimit="10"/>
<path d="M0 57.2153L170 57.2153" stroke="#F1F1F1" stroke-width="0.47693" stroke-miterlimit="10"/>
<path d="M0 39.6792L170 39.6792" stroke="#F1F1F1" stroke-width="0.47693" stroke-miterlimit="10"/>
<path d="M0 22.9585L170 22.9585" stroke="#F1F1F1" stroke-width="0.47693" stroke-miterlimit="10"/>
<path d="M0 6.14258L170 6.14259" stroke="#F1F1F1" stroke-width="0.47693" stroke-miterlimit="10"/>
<path d="M9.53635 73.4482L0.407471 75.6847L0.407471 87.6809L165.539 87.6809L165.539 16.7207L152.353 29.5301L139.572 33.7999L126.386 52.0991L113.606 41.5263L100.622 33.7999L87.8418 52.0991L74.8585 61.6554L61.4695 47.4227L48.4862 55.149L35.5029 67.7551L22.5196 61.6554L9.53635 73.4482Z" fill="#009FC2" fill-opacity="0.2" stroke="#009FC2" stroke-width="0.47693"/>
<ellipse cx="10.0489" cy="72.9966" rx="1.12434" ry="1.125" fill="#009FC2"/>
<ellipse cx="22.1353" cy="62.0698" rx="1.12434" ry="1.125" fill="#009FC2"/>
<ellipse cx="36.014" cy="67.2871" rx="1.12434" ry="1.125" fill="#009FC2"/>
<ellipse cx="49.0001" cy="55.5444" rx="1.12434" ry="1.125" fill="#009FC2"/>
<ellipse cx="61.0867" cy="47.7959" rx="1.12434" ry="1.125" fill="#009FC2"/>
<ellipse cx="74.9654" cy="61.6621" rx="1.12434" ry="1.125" fill="#009FC2"/>
<ellipse cx="88.359" cy="51.3823" rx="1.12434" ry="1.125" fill="#009FC2"/>
<ellipse cx="100.938" cy="34.3384" rx="1.12434" ry="1.125" fill="#009FC2"/>
<ellipse cx="113.917" cy="42.0864" rx="1.12434" ry="1.125" fill="#009FC2"/>
<ellipse cx="126.903" cy="52.2822" rx="1.12434" ry="1.125" fill="#009FC2"/>
<ellipse cx="139.882" cy="33.4385" rx="1.12434" ry="1.125" fill="#009FC2"/>
<ellipse cx="152.861" cy="28.9521" rx="1.12434" ry="1.125" fill="#009FC2"/>
<ellipse cx="164.948" cy="17.21" rx="1.12434" ry="1.125" fill="#009FC2"/>
<path d="M9.77466 84.7803L9.77466 89.8891" stroke="#808080" stroke-width="0.923053" stroke-miterlimit="10"/>
<path d="M22.7607 84.7803L22.7607 89.8891" stroke="#808080" stroke-width="0.923053" stroke-miterlimit="10"/>
<path d="M35.74 84.7803L35.74 89.8891" stroke="#808080" stroke-width="0.923053" stroke-miterlimit="10"/>
<path d="M48.7261 84.7803L48.7261 89.8891" stroke="#808080" stroke-width="0.923053" stroke-miterlimit="10"/>
<path d="M61.7122 84.7803L61.7122 89.8891" stroke="#808080" stroke-width="0.923053" stroke-miterlimit="10"/>
<path d="M74.6912 84.7803L74.6912 89.8891" stroke="#808080" stroke-width="0.923053" stroke-miterlimit="10"/>
<path d="M87.6772 84.7803L87.6772 89.8891" stroke="#808080" stroke-width="0.923053" stroke-miterlimit="10"/>
<path d="M100.663 84.7803L100.663 89.8891" stroke="#808080" stroke-width="0.923053" stroke-miterlimit="10"/>
<path d="M113.643 84.7803L113.643 89.8891" stroke="#808080" stroke-width="0.923053" stroke-miterlimit="10"/>
<path d="M126.622 84.7803L126.622 89.8891" stroke="#808080" stroke-width="0.923053" stroke-miterlimit="10"/>
<path d="M139.608 84.7803L139.608 89.8891" stroke="#808080" stroke-width="0.923053" stroke-miterlimit="10"/>
<path d="M152.594 84.7803L152.594 89.8891" stroke="#808080" stroke-width="0.923053" stroke-miterlimit="10"/>
<path d="M165.58 84.7803L165.58 89.8891" stroke="#808080" stroke-width="0.923053" stroke-miterlimit="10"/>
<path d="M0.407819 0L0.407463 87.7212L170.026 87.7212" stroke="#808080" stroke-width="1.08768" stroke-miterlimit="10"/>
</g>
<defs>
<clipPath id="clip0_1002_11660">
<rect width="170" height="90" fill="white"/>
</clipPath>
</defs>
</svg>
