<svg width="52" height="46" viewBox="0 0 52 46" fill="none" xmlns="http://www.w3.org/2000/svg">
<g clip-path="url(#clip0_1273_746)">
<path d="M25.4593 46.0001C23.6761 45.2562 23.0623 44.3147 23.0599 42.3153C23.0587 41.2228 23.0267 40.1291 23.067 39.0378C23.1523 36.7139 22.1914 34.893 20.4709 33.4472C19.017 32.2265 17.8002 30.8213 16.9399 29.1143C13.762 22.8049 16.0086 15.0819 22.061 11.4989C30.2439 6.65456 40.5241 11.5876 41.8559 21.0811C42.5337 25.9123 41.0419 30.0439 37.2621 33.1944C35.3496 34.7888 34.3614 36.763 34.429 39.281C34.461 40.4777 34.4349 41.6757 34.4337 42.8736C34.4325 44.4512 33.6552 45.4898 32.1481 45.9354C32.1078 45.9474 32.0722 45.9798 32.0355 46.0013C29.8434 46.0001 27.6514 46.0001 25.4593 46.0001ZM32.532 38.3155C32.814 35.5339 34.128 33.3885 36.1838 31.5988C39.4826 28.725 40.7042 25.0186 39.8866 20.7409C38.697 14.5213 32.9988 10.6089 26.8279 11.687C20.6522 12.7663 16.1235 19.253 17.6947 25.6571C18.3191 28.1991 19.5763 30.3074 21.6286 31.933C23.253 33.2196 24.3633 34.8607 24.7875 36.9295C24.8799 37.3787 24.919 37.8387 24.9854 38.3155C27.4938 38.3155 29.9892 38.3155 32.532 38.3155ZM25.0185 40.2753C25.0185 41.2827 24.983 42.2662 25.0328 43.2449C25.06 43.7708 25.3918 44.0727 25.8634 44.0775C27.7853 44.0954 29.7084 44.1002 31.6314 44.0763C32.2381 44.0691 32.532 43.6977 32.5438 43.0341C32.558 42.2423 32.5486 41.4492 32.5462 40.6562C32.5462 40.5281 32.5284 40.3999 32.5201 40.2753C29.9821 40.2753 27.489 40.2753 25.0185 40.2753Z" fill="#009FC2"/>
<path d="M6 22.7306C6.21091 22.1975 6.62207 22.025 7.16238 22.031C8.31529 22.0442 9.46819 22.0286 10.6211 22.0382C11.2609 22.043 11.6259 22.3485 11.6804 22.8887C11.7373 23.453 11.4114 23.9261 10.8427 23.9417C9.51322 23.9776 8.18258 23.9633 6.85312 23.9489C6.41945 23.9441 6.16589 23.6506 6 23.2709C6 23.09 6 22.9103 6 22.7306Z" fill="#009FC2"/>
<path d="M51.4942 23.2696C51.2809 23.8003 50.871 23.9764 50.3306 23.9692C49.192 23.956 48.0545 23.9656 46.9158 23.9656C46.5307 23.9656 46.1752 23.8937 45.9513 23.5332C45.5697 22.9186 45.9299 22.0885 46.6515 22.0621C47.9798 22.013 49.3116 22.0394 50.6411 22.0525C51.0771 22.0573 51.3271 22.3532 51.4954 22.7306C51.4942 22.9102 51.4942 23.0899 51.4942 23.2696Z" fill="#009FC2"/>
<path d="M29.019 0.00012207C29.5001 0.198976 29.7122 0.564341 29.7098 1.08543C29.7027 2.28096 29.7098 3.47648 29.7062 4.67319C29.7051 5.06491 29.6114 5.4183 29.2418 5.62674C28.6268 5.97293 27.8495 5.60997 27.8246 4.89601C27.7772 3.55314 27.8021 2.20668 27.8151 0.862622C27.8199 0.422987 28.1114 0.16783 28.4858 0.00012207C28.6635 0.00012207 28.8413 0.00012207 29.019 0.00012207Z" fill="#009FC2"/>
<path d="M15.7715 11.1336C15.6329 11.0629 15.3805 11.0054 15.23 10.8473C14.339 9.91168 13.4586 8.96533 12.6007 7.99981C12.167 7.51106 12.3223 6.80788 12.8898 6.53116C13.2595 6.35147 13.6233 6.3922 13.9148 6.6809C14.8319 7.59012 15.7407 8.50772 16.64 9.43491C16.9244 9.7284 16.9884 10.1033 16.7881 10.4675C16.5903 10.8257 16.3213 11.1228 15.7715 11.1336Z" fill="#009FC2"/>
<path d="M44.0395 39.59C43.7338 39.4139 43.3807 39.2905 43.1319 39.0533C42.3226 38.2843 41.5489 37.4781 40.7692 36.6791C40.3367 36.2346 40.2941 35.7734 40.6235 35.3566C40.9706 34.9193 41.5489 34.8319 41.9529 35.2236C42.8925 36.1364 43.8096 37.0732 44.7196 38.0147C44.9922 38.2974 45.0147 38.6568 44.8559 39.0174C44.7113 39.3456 44.504 39.5756 44.0845 39.4486C44.0703 39.4978 44.0549 39.5445 44.0395 39.59Z" fill="#009FC2"/>
<path d="M13.3319 39.553C12.9137 39.4835 12.5866 39.3757 12.435 38.984C12.2785 38.5827 12.3686 38.2233 12.6707 37.9178C13.5381 37.0422 14.3983 36.1593 15.2751 35.2932C15.6993 34.8739 16.2278 34.8799 16.6153 35.2716C16.9992 35.661 17.0039 36.1988 16.5892 36.6277C15.742 37.5034 14.8889 38.3718 14.0156 39.2188C13.8414 39.3889 13.5618 39.4452 13.3319 39.553Z" fill="#009FC2"/>
<path d="M44.9514 7.72183C44.8886 7.83444 44.8069 8.086 44.6433 8.2573C43.8198 9.11741 42.9798 9.96194 42.1361 10.8017C41.8055 11.1311 41.2498 11.2138 40.8529 11.0269C40.4133 10.8196 40.2379 10.1069 40.6052 9.71397C41.5306 8.72569 42.4928 7.77095 43.4573 6.8222C43.7239 6.55986 44.0793 6.55866 44.4123 6.72157C44.7642 6.89407 44.9408 7.18876 44.9514 7.72183Z" fill="#009FC2"/>
<path d="M37.2772 22.5868C37.2938 23.6015 36.8755 24.0543 36.1788 23.9405C35.7025 23.8638 35.4607 23.5667 35.3968 23.054C35.3162 22.4036 35.2771 21.7351 35.0958 21.1122C34.2841 18.3187 31.8468 16.4523 28.868 16.287C28.1049 16.2451 27.7163 15.8294 27.8217 15.1717C27.9058 14.6507 28.2459 14.3608 28.8324 14.3799C32.021 14.4793 34.4678 15.8953 36.1278 18.6529C36.8802 19.9035 37.2262 21.2871 37.2772 22.5868Z" fill="#009FC2"/>
</g>
<defs>
<clipPath id="clip0_1273_746">
<rect width="52" height="46" fill="white"/>
</clipPath>
</defs>
</svg>
