<svg width="53" height="46" viewBox="0 0 53 46" fill="none" xmlns="http://www.w3.org/2000/svg">
<g clip-path="url(#clip0_1273_711)">
<path d="M28.7271 46.0001C25.4808 45.1224 22.2333 44.247 18.9883 43.3643C17.8311 43.0496 16.6776 42.7227 15.524 42.3957C14.6173 42.1391 13.7528 42.2408 12.9232 42.6779C12.586 42.8558 12.2657 43.0713 11.9165 43.2178C11.3024 43.4769 10.8641 43.7796 10.9207 44.586C10.9593 45.126 10.5282 45.4577 9.97791 45.4468C7.46253 45.3972 4.94836 45.3391 2.43418 45.2543C1.71774 45.2301 1.39744 44.8281 1.41791 44.0726C1.53953 39.5529 1.66957 35.0332 1.7948 30.5135C1.82129 29.5751 1.83694 28.6368 1.86584 27.6985C1.89233 26.8534 2.23309 26.524 3.07717 26.5434C5.42037 26.5967 7.76356 26.6548 10.1068 26.719C11.1543 26.748 11.4457 27.0834 11.4048 28.1464C11.3903 28.506 11.4024 28.868 11.4024 29.2361C12.2236 28.9455 13.0279 28.6053 13.8624 28.3741C16.8654 27.5435 19.8167 27.7566 22.5813 29.1949C24.3598 30.12 26.178 30.5837 28.1648 30.5728C29.9167 30.5631 31.6699 30.6709 33.4219 30.6999C35.7567 30.7399 37.558 31.7206 38.8079 33.711C38.8476 33.7752 38.8958 33.8333 38.9656 33.9302C39.4822 33.688 39.9951 33.4507 40.5069 33.2074C42.555 32.2351 44.5924 31.2411 46.6514 30.2955C48.8164 29.3003 51.3571 30.0425 52.6659 32.0039C53.1897 32.7884 53.1006 33.2727 52.3228 33.7788C46.7754 37.3881 41.2317 41.0046 35.6712 44.5933C34.4671 45.3706 33.0763 45.6648 31.6771 45.8839C31.4917 45.913 31.3099 45.9614 31.1257 46.0001C30.3285 46.0001 29.5278 46.0001 28.7271 46.0001ZM37.6411 36.009C37.257 34.1348 35.6892 32.7521 33.8915 32.6613C32.6741 32.5996 31.4544 32.5838 30.2346 32.5439C28.8451 32.4991 27.4519 32.487 26.0648 32.395C24.4718 32.2896 23.0906 31.5402 21.6686 30.8803C18.3284 29.3269 15.0279 29.5025 11.807 31.3004C11.4517 31.499 11.2988 31.729 11.2892 32.1492C11.2218 35.1373 11.1278 38.1242 11.0435 41.1111C11.0411 41.2007 11.0616 41.2903 11.07 41.3739C11.1375 41.3836 11.1808 41.4041 11.2085 41.392C11.3638 41.3218 11.5216 41.2528 11.6685 41.1656C13.164 40.266 14.7365 40.1316 16.397 40.6232C18.2212 41.1632 20.0527 41.6814 21.8877 42.1827C24.1442 42.7989 26.3839 43.523 28.6765 43.9491C30.8126 44.3451 32.974 44.0242 34.8439 42.8292C39.9542 39.565 45.0199 36.2294 50.1024 32.9204C50.2674 32.8127 50.4275 32.6976 50.6045 32.5754C49.6232 31.7133 48.4841 31.5583 47.3053 32.1141C45.1523 33.1287 43.0054 34.159 40.8561 35.1821C40.4322 35.3843 40.0084 35.5865 39.6026 35.779C39.6339 36.1713 39.6772 36.4946 39.6808 36.8178C39.6893 37.5842 39.3232 37.9765 38.5755 37.9571C34.8608 37.8639 31.1473 37.761 27.4327 37.6496C26.7343 37.629 26.3225 37.2271 26.3429 36.6604C26.3634 36.0865 26.7981 35.7282 27.4929 35.7415C28.6934 35.7645 29.8927 35.7996 31.0931 35.8323C33.2629 35.8892 35.4328 35.9485 37.6411 36.009ZM3.77074 28.598C3.63708 33.4822 3.50222 38.4039 3.36496 43.4104C5.30477 43.4104 7.1603 43.4104 9.06159 43.4104C9.19524 38.5129 9.3289 33.6033 9.46617 28.598C7.56368 28.598 5.7226 28.598 3.77074 28.598Z" fill="#009FC2"/>
<path d="M27.8066 27.9793C20.1147 27.9781 13.875 21.7101 13.8774 13.9879C13.8799 6.27423 20.134 -0.00229873 27.8174 0.000122771C35.5092 0.00254427 41.7477 6.27059 41.7453 13.9952C41.7417 21.7185 35.4996 27.9805 27.8066 27.9793ZM27.7873 26.0603C34.3701 26.0857 39.7778 20.7027 39.8163 14.0872C39.8561 7.38933 34.5267 1.9688 27.8656 1.93127C21.2526 1.89373 15.8353 7.28157 15.8052 13.925C15.7763 20.6095 21.1334 26.0349 27.7873 26.0603Z" fill="#009FC2"/>
<path d="M5.55583 13.3716C4.0507 13.3716 2.54556 13.3861 1.04163 13.3656C0.221636 13.3547 -0.26964 12.5834 0.157818 11.9599C0.323985 11.7165 0.704483 11.4865 0.989856 11.4828C4.01819 11.4489 7.04652 11.455 10.0748 11.4671C10.648 11.4695 11.0297 11.8679 11.0442 12.3885C11.0598 12.9321 10.6697 13.3547 10.07 13.3619C8.5661 13.3801 7.06097 13.368 5.55583 13.368C5.55583 13.3692 5.55583 13.3704 5.55583 13.3716Z" fill="#009FC2"/>
<path d="M7.89891 4.21713C8.60331 4.21713 9.30892 4.20502 10.0133 4.22076C10.6298 4.23408 11.026 4.60457 11.0428 5.14336C11.0597 5.70635 10.6563 6.1168 10.0145 6.12406C8.62498 6.1398 7.23424 6.1398 5.8435 6.12406C5.20171 6.1168 4.79713 5.70635 4.81398 5.14336C4.83084 4.60094 5.22097 4.23408 5.84229 4.21955C6.52743 4.20502 7.21257 4.21713 7.89891 4.21713Z" fill="#009FC2"/>
<path d="M7.92851 20.6143C7.24337 20.6143 6.55703 20.6252 5.87189 20.6107C5.21445 20.5973 4.81348 20.2244 4.81348 19.6602C4.81228 19.096 5.21324 18.7122 5.86828 18.7049C7.23976 18.6916 8.61003 18.6916 9.98151 18.7049C10.6317 18.711 11.0399 19.0984 11.0411 19.6566C11.0423 20.2172 10.6353 20.5973 9.98512 20.6107C9.29998 20.6252 8.61485 20.6143 7.92851 20.6143Z" fill="#009FC2"/>
<path d="M31.9183 17.0935C31.9099 18.843 30.8129 20.3855 29.1187 20.9618C28.7443 21.0889 28.5841 21.256 28.6395 21.6483C28.6636 21.8166 28.6491 21.9946 28.6239 22.1641C28.5456 22.6726 28.2133 22.9305 27.7292 22.9789C27.2668 23.0249 26.7442 22.652 26.7876 22.1822C26.8695 21.2814 26.4119 20.9412 25.6919 20.561C24.4673 19.9133 23.8628 18.7607 23.7207 17.3816C23.6485 16.6757 24.0025 16.1757 24.5829 16.1176C25.1633 16.0595 25.5751 16.482 25.6413 17.2012C25.7557 18.441 26.6636 19.2668 27.8918 19.2474C28.9983 19.2304 29.9243 18.3321 29.9869 17.217C30.0531 16.0389 29.2632 15.0449 28.0591 14.9153C27.1789 14.8197 26.3228 14.7228 25.569 14.2022C24.265 13.3026 23.6208 12.0471 23.7316 10.4791C23.846 8.86399 24.6744 7.6593 26.1699 7.01276C26.6419 6.80814 26.8008 6.56962 26.7455 6.08411C26.6949 5.64219 26.8141 5.23901 27.2379 5.00412C27.8183 4.68207 28.5263 5.03803 28.6263 5.70394C28.6516 5.87344 28.6612 6.05021 28.6419 6.21972C28.601 6.58294 28.7383 6.73671 29.0971 6.86384C30.7684 7.45105 31.6811 8.67633 31.9063 10.4307C31.9689 10.9223 31.8617 11.3545 31.3945 11.61C30.7407 11.9671 30.0676 11.5083 29.9905 10.6632C29.8617 9.25628 28.7094 8.35911 27.3716 8.62548C26.3433 8.83009 25.6208 9.74421 25.6413 10.8157C25.6606 11.8533 26.4047 12.7348 27.421 12.9055C27.9086 12.9866 28.4119 12.9939 28.8876 13.1161C30.6757 13.5726 31.9267 15.2362 31.9183 17.0935Z" fill="#009FC2"/>
</g>
<defs>
<clipPath id="clip0_1273_711">
<rect width="53" height="46" fill="white"/>
</clipPath>
</defs>
</svg>
