<svg width="53" height="46" viewBox="0 0 53 46" fill="none" xmlns="http://www.w3.org/2000/svg">
<g clip-path="url(#clip0_1273_729)">
<path d="M33.3871 -0.000234375C33.8201 0.201016 34.2957 0.342969 34.6771 0.615195C35.4354 1.15516 35.7724 1.94398 35.7869 2.86668C35.7906 3.09039 35.7879 3.3141 35.7879 3.6007C35.9799 3.6007 36.1394 3.6007 36.2997 3.6007C38.3834 3.6007 40.4662 3.5998 42.5499 3.6007C44.1345 3.6016 45.0377 4.50273 45.045 6.08578C45.0459 6.1909 45.0567 6.29691 45.0431 6.40023C45.0024 6.7093 45.1211 6.86922 45.4209 7.00758C46.0334 7.28879 46.6141 7.63828 47.3108 8.01652C47.5273 7.77574 47.771 7.47117 48.0491 7.20074C49.014 6.26277 50.3865 6.25199 51.2834 7.16211C52.1613 8.05156 52.135 9.4082 51.1991 10.3399C48.5347 12.9912 45.8667 15.638 43.1923 18.2785C42.203 19.256 40.883 19.2488 39.89 18.2731C38.6679 17.0719 37.4512 15.8644 36.239 14.6533C35.2796 13.6946 35.2461 12.3452 36.1466 11.4441C37.0453 10.5447 38.4179 10.5654 39.3845 11.5061C40.0948 12.197 40.7915 12.9022 41.4465 13.5545C43.0084 12.0056 44.5503 10.4764 46.1113 8.92844C45.2968 8.3175 44.2903 7.90691 43.1923 7.73352C38.8029 7.04262 34.9462 10.127 34.679 14.5257C34.4253 18.7115 38.147 22.352 42.3724 22.0501C46.1683 21.7788 48.9687 19.0026 49.235 15.2454C49.2722 14.7162 49.5295 14.4386 49.9598 14.4592C50.3838 14.4799 50.6356 14.7907 50.5912 15.3208C50.3086 18.69 48.6344 21.1364 45.5713 22.6143C45.1401 22.8219 45.0323 23.0411 45.0332 23.4795C45.0468 30.0516 45.0241 36.6237 45.0576 43.1948C45.0649 44.5703 44.6155 45.5407 43.2611 46.0016C33.7775 46.0016 24.2939 46.0016 14.8103 46.0016C13.9352 45.7042 13.2593 45.2064 13.0573 44.2514C13.0147 44.0484 13.0002 43.8363 13.0002 43.6288C13.0002 31.0794 12.9993 18.5327 13.0011 5.98516C13.0011 4.52789 13.937 3.6043 15.4083 3.6007C16.8125 3.59711 18.2167 3.59621 19.621 3.6016C20.1437 3.6034 20.4454 3.87293 20.4318 4.29969C20.42 4.69051 20.1329 4.94297 19.6663 4.94477C18.2774 4.95016 16.8877 4.94566 15.4989 4.94746C14.6545 4.94836 14.361 5.24305 14.361 6.08937C14.3601 18.5615 14.3601 31.0336 14.361 43.5057C14.361 44.3574 14.65 44.6503 15.4934 44.6503C24.5077 44.6512 33.5229 44.6512 42.5373 44.6503C43.3689 44.6503 43.6806 44.3601 43.6815 43.5569C43.6842 36.9237 43.6833 30.2915 43.6824 23.6583C43.6824 23.5406 43.6679 23.4229 43.6579 23.2711C40.5152 23.7589 37.8009 22.9468 35.6212 20.6477C34.0058 18.9451 33.2448 16.8787 33.3255 14.5446C33.5075 9.29769 38.4034 5.3832 43.6126 6.38766C43.8572 5.47754 43.4686 4.94836 42.5472 4.94656C40.4481 4.94477 38.3499 4.94566 36.2508 4.94656C36.1176 4.94656 35.9844 4.95914 35.7888 4.96902C35.7888 5.31223 35.7969 5.63656 35.7869 5.96C35.7552 6.97433 35.122 7.61043 34.0928 7.61312C30.7108 7.62211 27.328 7.62211 23.946 7.61312C22.9078 7.61043 22.2555 6.94289 22.2492 5.91687C22.2428 4.95824 22.2465 4.00051 22.2483 3.04187C22.251 1.49297 22.9857 0.520859 24.4887 0.0680469C24.5286 0.0554687 24.5621 0.0213281 24.5992 -0.00292969C27.5273 -0.000234375 30.4572 -0.000234375 33.3871 -0.000234375ZM29.0384 6.26637C30.6683 6.26637 32.2972 6.25828 33.927 6.27266C34.2966 6.27625 34.4389 6.15496 34.4316 5.78211C34.4144 4.82527 34.438 3.86754 34.4217 2.9098C34.4044 1.93859 33.7984 1.35191 32.8208 1.35012C30.286 1.34473 27.752 1.34473 25.2171 1.35012C24.226 1.35191 23.6163 1.96645 23.609 2.95383C23.6027 3.88102 23.6262 4.8091 23.5991 5.73629C23.5873 6.15766 23.7422 6.27805 24.1508 6.27445C25.7797 6.25648 27.4095 6.26637 29.0384 6.26637ZM37.8371 12.1035C37.6442 12.1448 37.5536 12.1556 37.4684 12.1835C36.8034 12.4054 36.6639 13.1592 37.203 13.7C38.3707 14.8707 39.5494 16.0315 40.7235 17.1959C41.3423 17.8095 41.7464 17.8077 42.3733 17.186C44.9471 14.6353 47.52 12.0837 50.093 9.53219C50.189 9.43695 50.2905 9.34531 50.3711 9.2375C50.6384 8.88262 50.6003 8.38758 50.2923 8.0893C49.9734 7.78203 49.5005 7.75777 49.1381 8.04168C49.0085 8.1432 48.8953 8.26629 48.7784 8.38219C46.5787 10.5627 44.38 12.7441 42.1794 14.9237C41.6965 15.4017 41.3948 15.4008 40.9111 14.9246C40.0966 14.1232 39.2948 13.3083 38.4704 12.5168C38.2765 12.3308 38.0111 12.2149 37.8371 12.1035Z" fill="#009FC2"/>
<path d="M21.5305 27.398C21.5169 28.893 20.2884 30.0978 18.7818 30.0924C17.2607 30.087 16.0385 28.8499 16.0548 27.3315C16.0703 25.8365 17.3033 24.6263 18.8035 24.6353C20.3283 24.6434 21.5441 25.876 21.5305 27.398ZM17.4156 27.3728C17.4192 28.1293 18.0443 28.7475 18.8008 28.7421C19.5573 28.7376 20.1733 28.1141 20.1697 27.3567C20.1661 26.6047 19.5346 25.9785 18.7845 25.9848C18.0289 25.991 17.412 26.6173 17.4156 27.3728Z" fill="#009FC2"/>
<path d="M16.0547 19.0928C16.0484 17.5933 17.2551 16.3705 18.7581 16.3552C20.2883 16.34 21.5258 17.5502 21.5312 19.0676C21.5367 20.5851 20.3019 21.8177 18.7835 21.8106C17.2805 21.8025 16.0611 20.5887 16.0547 19.0928ZM20.1705 19.0955C20.1768 18.3363 19.5671 17.7128 18.8088 17.7038C18.0496 17.6948 17.4236 18.3067 17.4164 19.064C17.41 19.8214 18.0206 20.4485 18.7771 20.4602C19.5282 20.471 20.1641 19.8484 20.1705 19.0955Z" fill="#009FC2"/>
<path d="M16.0629 35.5029C16.0883 34.0088 17.334 32.8093 18.8333 32.8345C20.368 32.8605 21.5603 34.086 21.5376 35.6134C21.515 37.1254 20.2684 38.3042 18.7219 38.2763C17.2271 38.2494 16.0375 37.0086 16.0629 35.5029ZM20.176 35.5756C20.1823 34.8129 19.5789 34.1965 18.8161 34.1866C18.0578 34.1768 17.43 34.7868 17.4227 35.5433C17.4155 36.3061 18.0198 36.9215 18.7826 36.9296C19.5508 36.9359 20.1696 36.3348 20.176 35.5756Z" fill="#009FC2"/>
<path d="M28.8606 25.1347C30.6399 25.1339 32.4192 25.124 34.1976 25.1455C34.4413 25.1482 34.7476 25.2462 34.9133 25.4106C35.2322 25.7268 35.0447 26.2794 34.6053 26.4204C34.4377 26.4743 34.2493 26.4788 34.0708 26.4788C30.5575 26.4815 27.0451 26.4815 23.5318 26.4806C23.4412 26.4806 23.3506 26.4851 23.2609 26.477C22.8179 26.4375 22.5325 26.1446 22.556 25.7592C22.5787 25.3863 22.8532 25.1392 23.2971 25.1374C25.1516 25.1312 27.0061 25.1347 28.8606 25.1347Z" fill="#009FC2"/>
<path d="M28.8096 36.4543C30.6043 36.4543 32.3981 36.4444 34.1928 36.466C34.4374 36.4687 34.7427 36.5666 34.9112 36.731C35.231 37.0428 35.0471 37.6007 34.6096 37.7435C34.4293 37.8028 34.2245 37.8055 34.0306 37.8064C30.5472 37.81 27.0647 37.8091 23.5813 37.8091C23.4762 37.8091 23.3693 37.8145 23.2651 37.8046C22.8212 37.766 22.5349 37.4749 22.5558 37.0895C22.5757 36.7166 22.8502 36.4633 23.2914 36.4606C24.9194 36.4516 26.5483 36.4561 28.1772 36.4552C28.3874 36.4543 28.5985 36.4543 28.8096 36.4543Z" fill="#009FC2"/>
<path d="M27.3602 33.3249C28.6884 33.3249 30.0165 33.3231 31.3455 33.3258C31.8801 33.3267 32.1917 33.5684 32.2017 33.9772C32.2116 34.4031 31.8855 34.6708 31.3338 34.6717C28.692 34.6744 26.0502 34.6744 23.4093 34.6717C22.8793 34.6708 22.5659 34.421 22.555 34.0095C22.5432 33.5765 22.8549 33.3276 23.422 33.3267C24.7338 33.324 26.0466 33.3249 27.3602 33.3249Z" fill="#009FC2"/>
<path d="M27.3798 21.4099C26.0064 21.4099 24.6339 21.4171 23.2604 21.4054C22.8283 21.4018 22.5565 21.1242 22.5547 20.7469C22.5538 20.3749 22.8265 20.1081 23.2541 20.0694C23.3592 20.0596 23.4652 20.0649 23.5712 20.0649C24.2352 20.0649 24.8993 20.0649 25.5634 20.0649C27.4197 20.0649 29.2751 20.0649 31.1314 20.0658C31.2818 20.0658 31.4349 20.0596 31.5826 20.0811C31.9694 20.1377 32.2376 20.4369 32.1968 20.7855C32.1524 21.1583 31.9341 21.3883 31.5445 21.4036C31.1378 21.4198 30.7301 21.4117 30.3224 21.4126C29.3412 21.4135 28.361 21.4126 27.3798 21.4126C27.3798 21.4117 27.3798 21.4108 27.3798 21.4099Z" fill="#009FC2"/>
<path d="M27.3323 18.2888C26.0649 18.2888 24.7975 18.2906 23.53 18.287C23.3651 18.287 23.1486 18.322 23.0471 18.2357C22.8496 18.0668 22.6259 17.8413 22.5806 17.6077C22.519 17.2933 22.7409 17.0408 23.0843 16.9725C23.2446 16.9411 23.4141 16.9429 23.5798 16.9429C26.1147 16.9411 28.6496 16.942 31.1845 16.942C31.2144 16.942 31.2452 16.942 31.2751 16.942C31.8821 16.9492 32.2064 17.1846 32.2046 17.6167C32.2028 18.0543 31.883 18.287 31.2705 18.2879C29.9569 18.2906 28.6451 18.2888 27.3323 18.2888Z" fill="#009FC2"/>
<path d="M25.9931 29.609C25.1325 29.609 24.2727 29.6144 23.412 29.6072C22.8712 29.6027 22.5668 29.3592 22.555 28.9486C22.5432 28.5219 22.8585 28.255 23.4211 28.2533C25.1569 28.247 26.8927 28.247 28.6286 28.2533C29.1694 28.255 29.4747 28.503 29.4856 28.9127C29.4974 29.3395 29.1794 29.6027 28.6186 29.6072C27.7443 29.6144 26.8683 29.609 25.9931 29.609Z" fill="#009FC2"/>
<path d="M19.6312 11.3232C18.9218 11.3232 18.2124 11.3277 17.5031 11.3223C16.9767 11.3178 16.6786 11.06 16.6877 10.6332C16.6959 10.2271 16.9903 9.97644 17.4904 9.97554C18.9236 9.97104 20.3577 9.97104 21.791 9.97554C22.3137 9.97733 22.619 10.2424 22.61 10.6655C22.6009 11.0689 22.3038 11.3187 21.8046 11.3232C21.0798 11.3286 20.355 11.3232 19.6312 11.3232Z" fill="#009FC2"/>
</g>
<defs>
<clipPath id="clip0_1273_729">
<rect width="53" height="46" fill="white"/>
</clipPath>
</defs>
</svg>
