<svg width="53" height="46" viewBox="0 0 53 46" fill="none" xmlns="http://www.w3.org/2000/svg">
<g clip-path="url(#clip0_1273_721)">
<path d="M42.5504 46.0001C41.6545 45.7602 40.7086 45.6297 39.8691 45.2617C36.5371 43.8024 34.6427 41.2405 34.216 37.6369C33.9595 35.4691 34.5426 33.5013 35.6887 31.6691C35.8051 31.4826 35.8564 31.2253 35.8564 31.0016C35.8664 26.6298 35.8639 22.2593 35.8639 17.8875C35.8639 16.9378 36.1542 16.6444 37.0964 16.6432C38.1511 16.642 39.2059 16.6382 40.2619 16.6444C41.0665 16.6494 41.3893 16.9689 41.3905 17.7582C41.393 20.9019 41.3918 24.0455 41.3918 27.1892C41.3918 27.3669 41.3918 27.5447 41.3918 27.7411C41.9936 27.6665 42.5554 27.5956 43.181 27.5173C43.181 27.347 43.181 27.1742 43.181 27.0015C43.181 22.3314 43.181 17.66 43.181 12.9899C43.181 12.1036 43.4726 11.8127 44.3747 11.809C45.4445 11.8053 46.5143 11.8028 47.5853 11.8102C48.4061 11.8152 48.7039 12.1148 48.7039 12.9228C48.7052 18.192 48.7064 23.4613 48.6989 28.7305C48.6989 29.0264 48.779 29.2116 49.0255 29.3968C52.0584 31.6666 53.4023 35.4977 52.4438 39.095C51.4641 42.7732 48.4224 45.4233 44.6124 45.9218C44.5261 45.933 44.4435 45.9728 44.3584 46.0001C43.7566 46.0001 43.1535 46.0001 42.5504 46.0001ZM43.4801 44.1206C47.5878 44.1045 50.8823 40.8141 50.8748 36.7345C50.8673 32.6784 47.5128 29.3695 43.4263 29.3893C39.3511 29.4092 36.0416 32.7381 36.0466 36.814C36.0516 40.8402 39.4061 44.1368 43.4801 44.1206ZM45.0604 13.6785C45.0604 13.8911 45.0604 14.0676 45.0604 14.2429C45.0604 17.0261 45.0604 19.8105 45.0604 22.5936C45.0604 24.1648 45.0566 25.736 45.0679 27.3072C45.0691 27.4427 45.1442 27.669 45.2355 27.6988C45.7423 27.8604 46.2653 27.9748 46.7908 28.1065C46.7908 23.2835 46.7908 18.4904 46.7908 13.6785C46.2177 13.6785 45.6797 13.6785 45.0604 13.6785ZM37.7783 18.5227C37.7783 22.171 37.7783 25.7771 37.7783 29.4105C38.2612 29.1258 38.6954 28.8325 39.1634 28.6087C39.4587 28.467 39.535 28.2917 39.5337 27.9884C39.5237 24.984 39.5275 21.9796 39.5275 18.9751C39.5275 18.8297 39.5275 18.6843 39.5275 18.5239C38.9181 18.5227 38.3663 18.5227 37.7783 18.5227Z" fill="#009FC2"/>
<path d="M36.1501 11.9034C39.4846 8.5484 42.7966 5.21581 46.1073 1.8857C46.056 1.88321 45.9221 1.87078 45.787 1.87078C44.6121 1.87078 43.4359 1.88197 42.2611 1.87078C41.4803 1.86332 41.0148 1.23186 41.2951 0.58299C41.4528 0.218779 41.7456 0.0124337 42.1409 0.0111906C44.2805 0.0012463 46.4214 -0.00372587 48.5609 0.00497542C49.1127 0.0074615 49.5006 0.391561 49.5044 0.95093C49.5156 3.06161 49.5144 5.1723 49.4981 7.28298C49.4931 7.87592 49.0727 8.2799 48.5472 8.26996C48.0217 8.26002 47.63 7.8436 47.6263 7.25315C47.6175 6.08594 47.6263 4.91748 47.6275 3.75026C47.6275 3.60482 47.6275 3.45939 47.6275 3.22321C47.4474 3.38729 47.326 3.48798 47.2159 3.59861C43.8388 6.95482 40.4618 10.3123 37.0848 13.6685C36.3315 14.418 35.9812 14.4193 35.2405 13.6784C34.2532 12.6902 33.2673 11.702 32.2788 10.7138C32.1737 10.6094 32.0649 10.5099 31.8697 10.326C31.7496 10.49 31.6607 10.6529 31.5356 10.7784C25.9939 16.2838 20.4523 21.7868 14.9094 27.2897C14.7718 27.4265 14.6354 27.5707 14.4765 27.6813C14.0786 27.9635 13.5718 27.9026 13.2478 27.552C12.9312 27.2089 12.9149 26.7478 13.2165 26.3662C13.3091 26.2493 13.4192 26.1449 13.5255 26.0392C19.3437 20.2591 25.1619 14.4802 30.9813 8.7013C31.7108 7.9766 32.1437 7.9766 32.8869 8.70751C33.8504 9.65471 34.8125 10.6056 35.776 11.5541C35.8923 11.6684 36.0137 11.7753 36.1501 11.9034Z" fill="#009FC2"/>
<path d="M34.0879 31.321C34.0879 34.0159 34.0891 36.7108 34.0879 39.4057C34.0879 40.3629 33.7851 40.6575 32.8116 40.6587C31.7719 40.66 30.7309 40.6649 29.6911 40.6575C28.9066 40.6513 28.5575 40.3082 28.5575 39.5288C28.5537 34.0495 28.5537 28.5689 28.5575 23.0896C28.5575 22.294 28.9154 21.9497 29.7261 21.9447C30.7959 21.9385 31.867 21.9385 32.9368 21.9447C33.7501 21.9497 34.0854 22.2841 34.0866 23.1008C34.0904 25.8417 34.0879 28.5813 34.0879 31.321ZM30.4681 23.8292C30.4681 28.8337 30.4681 33.8033 30.4681 38.7618C31.0687 38.7618 31.6318 38.7618 32.1923 38.7618C32.1923 33.7648 32.1923 28.8063 32.1923 23.8292C31.6092 23.8292 31.0562 23.8292 30.4681 23.8292Z" fill="#009FC2"/>
<path d="M21.1652 32.308C21.1652 29.9885 21.1639 27.669 21.1652 25.3495C21.1664 24.3836 21.463 24.089 22.4302 24.0878C23.4699 24.0865 24.5097 24.0853 25.5494 24.089C26.329 24.0915 26.6931 24.4383 26.6943 25.2065C26.6981 29.95 26.6981 34.6947 26.6943 39.4381C26.6931 40.215 26.3452 40.5581 25.557 40.5656C24.4721 40.5755 23.3873 40.5755 22.3025 40.5656C21.4842 40.5581 21.1677 40.2312 21.1652 39.4008C21.1627 37.0378 21.1652 34.6735 21.1652 32.308ZM24.7875 38.7756C24.7875 34.4958 24.7875 30.2408 24.7875 25.9896C24.1919 25.9896 23.6276 25.9896 23.0545 25.9896C23.0545 30.2645 23.0545 34.5082 23.0545 38.7756C23.6338 38.7756 24.1856 38.7756 24.7875 38.7756Z" fill="#009FC2"/>
<path d="M19.2938 36.3306C19.2938 37.3623 19.2976 38.394 19.2926 39.4257C19.2888 40.2064 18.9522 40.5582 18.1715 40.5669C17.0729 40.578 15.9731 40.578 14.8745 40.5669C14.1038 40.5594 13.7697 40.2225 13.7684 39.4692C13.7647 37.376 13.7647 35.2827 13.7684 33.1894C13.7697 32.4349 14.1125 32.0968 14.877 32.093C15.9756 32.0868 17.0754 32.0868 18.174 32.093C18.9222 32.0968 19.2876 32.456 19.2913 33.1919C19.2988 34.2373 19.2938 35.2839 19.2938 36.3306ZM17.3807 38.7881C17.3807 37.1622 17.3807 35.5748 17.3807 33.9887C16.7901 33.9887 16.2283 33.9887 15.6728 33.9887C15.6728 35.6059 15.6728 37.192 15.6728 38.7881C16.2534 38.7881 16.7926 38.7881 17.3807 38.7881Z" fill="#009FC2"/>
<path d="M46.5259 34.7494C46.5222 35.3075 46.1593 35.7202 45.6425 35.7563C45.0933 35.7936 44.7066 35.4219 44.6303 34.7842C44.5515 34.1316 44.1323 33.7077 43.5355 33.6767C42.9211 33.6456 42.4232 34.0347 42.3043 34.6363C42.1604 35.3697 42.7184 35.9763 43.578 36.0223C44.853 36.0894 45.9216 36.8564 46.337 38.0025C46.8437 39.4009 46.2757 40.9485 44.9644 41.6719C44.7004 41.8173 44.5652 41.9541 44.5678 42.2785C44.5715 42.9237 44.1836 43.3127 43.6256 43.3028C43.0913 43.2928 42.7272 42.9087 42.7235 42.286C42.7222 42.02 42.6058 41.9404 42.3881 41.8497C41.2495 41.3798 40.5839 40.5358 40.4462 39.3101C40.3687 38.6153 40.6614 38.179 41.2232 38.1044C41.7825 38.0298 42.1867 38.4176 42.2805 39.1199C42.3581 39.6967 42.7497 40.1082 43.2853 40.174C43.8683 40.2461 44.3676 39.9416 44.5577 39.3959C44.7304 38.9012 44.5515 38.3356 44.086 38.0683C43.8733 37.9465 43.6081 37.8881 43.3603 37.8607C41.7863 37.6904 40.694 36.7495 40.4725 35.3523C40.2373 33.8681 40.9805 32.6251 42.472 31.965C42.5896 31.9128 42.7222 31.699 42.7072 31.5759C42.6021 30.712 43.1601 30.3093 43.6494 30.2993C44.2637 30.2869 44.5953 30.7394 44.5903 31.6107C44.589 31.883 44.6666 32.0321 44.9193 32.1651C45.9066 32.6909 46.5322 33.7251 46.5259 34.7494Z" fill="#009FC2"/>
</g>
<defs>
<clipPath id="clip0_1273_721">
<rect width="53" height="46" fill="white"/>
</clipPath>
</defs>
</svg>
